<?xml version="1.0" encoding="utf-8"?>
<!-- Generator: Adobe Illustrator 19.1.0, SVG Export Plug-In . SVG Version: 6.00 Build 0)  -->
<svg version="1.1" id="Layer_1" xmlns="http://www.w3.org/2000/svg" xmlns:xlink="http://www.w3.org/1999/xlink" x="0px" y="0px"
	 viewBox="217.6 385.8 189.6 23.2" style="enable-background:new 217.6 385.8 189.6 23.2;" xml:space="preserve">
<style type="text/css">
	.st0{fill:#FFFFFF;}
</style>
<g>
	<path class="st0" d="M233.1,408.7l-3.8-7.5h-3v7.5h-5.7v-22.4h11.2c1.2,0,2.3,0.2,3.3,0.6s1.8,0.9,2.5,1.6c0.7,0.7,1.2,1.5,1.5,2.4
		c0.3,0.8,0.5,1.8,0.5,2.8s-0.1,1.9-0.4,2.6c-0.3,0.8-0.6,1.4-1,1.9c-0.4,0.5-0.9,1-1.4,1.4c-0.5,0.4-1.1,0.6-1.6,0.8l4.6,8.2h-6.7
		V408.7z M231,396.1c0.8,0,1.4-0.2,2-0.6c0.5-0.4,0.8-1,0.8-1.8c0-0.8-0.3-1.3-0.8-1.8c-0.5-0.4-1.2-0.6-2-0.6h-4.6v4.8
		C226.4,396.1,231,396.1,231,396.1z"/>
	<path class="st0" d="M242.8,408.7v-22.4h16.4v5h-10.6v3.5H259v5h-10.4v3.8h10.7v5h-16.5V408.7z"/>
	<path class="st0" d="M277.9,408.7l-1.1-3.2H268l-1.1,3.2h-6.6l8.4-22.4h7.3l8.5,22.4H277.9z M272.4,392l-2.9,8.4h5.7L272.4,392z"/>
	<path class="st0" d="M286,408.7v-22.4h9.4c1.8,0,3.4,0.3,4.9,0.8s2.8,1.3,3.8,2.2c1.1,1,1.9,2.1,2.5,3.5s0.9,2.9,0.9,4.7
		c0,1.8-0.3,3.3-0.9,4.7s-1.4,2.6-2.5,3.5c-1.1,1-2.3,1.7-3.8,2.2s-3.1,0.8-4.8,0.8H286z M295.5,403.6c1,0,1.9-0.2,2.6-0.5
		c0.7-0.3,1.4-0.8,1.9-1.3c0.5-0.6,0.9-1.2,1.2-2c0.3-0.8,0.4-1.5,0.4-2.4s-0.1-1.7-0.4-2.4c-0.3-0.7-0.6-1.4-1.2-1.9
		c-0.5-0.6-1.2-1-1.9-1.3c-0.8-0.3-1.7-0.5-2.7-0.5h-3.7v12.3H295.5z"/>
	<path class="st0" d="M315.3,408.7v-9l-8.5-13.4h6.5l4.9,8.3l4.8-8.3h6.6l-8.5,13.4v9H315.3z"/>
	<path class="st0" d="M339.8,408.7v-22.4h16.4v5h-10.7v3.5h10.4v5h-10.4v8.8h-5.7V408.7z"/>
	<path class="st0" d="M370.1,409.1c-1.7,0-3.3-0.3-4.8-0.9s-2.7-1.4-3.8-2.4s-1.9-2.2-2.5-3.7c-0.6-1.4-0.9-3-0.9-4.7
		c0-1.7,0.3-3.3,0.9-4.7c0.6-1.4,1.4-2.6,2.5-3.7c1.1-1,2.3-1.8,3.8-2.4c1.5-0.6,3-0.9,4.8-0.9c1.7,0,3.3,0.3,4.8,0.9
		c1.5,0.6,2.7,1.4,3.8,2.4s1.9,2.2,2.5,3.7c0.6,1.4,0.9,3,0.9,4.7c0,1.7-0.3,3.3-0.9,4.7c-0.6,1.4-1.4,2.6-2.5,3.7
		c-1.1,1-2.3,1.8-3.8,2.4S371.8,409.1,370.1,409.1z M370.1,404c0.9,0,1.8-0.2,2.5-0.5c0.8-0.3,1.4-0.8,1.9-1.4
		c0.5-0.6,0.9-1.3,1.2-2.1c0.3-0.8,0.4-1.6,0.4-2.6c0-0.9-0.1-1.8-0.4-2.6c-0.3-0.8-0.7-1.5-1.2-2c-0.5-0.6-1.2-1-1.9-1.4
		c-0.8-0.3-1.6-0.5-2.5-0.5s-1.8,0.2-2.5,0.5c-0.8,0.3-1.4,0.8-1.9,1.4s-0.9,1.3-1.2,2c-0.3,0.8-0.4,1.6-0.4,2.6
		c0,0.9,0.1,1.8,0.4,2.6c0.3,0.8,0.7,1.5,1.2,2.1c0.5,0.6,1.2,1,1.9,1.4C368.5,403.8,369.3,404,370.1,404z"/>
	<path class="st0" d="M397.5,408.7l-3.8-7.5h-3v7.5h-5.8v-22.4h11.2c1.2,0,2.3,0.2,3.3,0.6s1.8,0.9,2.5,1.6c0.7,0.7,1.2,1.5,1.5,2.4
		s0.5,1.9,0.5,2.9s-0.1,1.9-0.4,2.6c-0.3,0.8-0.6,1.4-1,1.9s-0.9,1-1.4,1.4s-1.1,0.6-1.6,0.8l4.6,8.2H397.5z M395.5,396.1
		c0.8,0,1.4-0.2,2-0.6c0.5-0.4,0.8-1,0.8-1.8c0-0.8-0.3-1.3-0.8-1.8c-0.5-0.4-1.2-0.6-2-0.6h-4.6v4.8
		C390.8,396.1,395.5,396.1,395.5,396.1z"/>
</g>
</svg>
