<?xml version="1.0" encoding="utf-8"?>
<!-- Generator: Adobe Illustrator 19.1.0, SVG Export Plug-In . SVG Version: 6.00 Build 0)  -->
<svg version="1.1" id="Layer_1" xmlns="http://www.w3.org/2000/svg" xmlns:xlink="http://www.w3.org/1999/xlink" x="0px" y="0px"
	 viewBox="-182 385.6 245.9 23.4" style="enable-background:new -182 385.6 245.9 23.4;" xml:space="preserve">
<style type="text/css">
	.st0{fill:#FFFFFF;}
</style>
<g>
	<path class="st0" d="M-175.7,408.6v-17.4h-6.3v-5h18.3v5h-6.3v17.4H-175.7z"/>
	<path class="st0" d="M-150.8,409c-1.7,0-3.3-0.3-4.8-0.9s-2.7-1.4-3.8-2.4c-1.1-1-1.9-2.2-2.5-3.7c-0.6-1.4-0.9-3-0.9-4.7
		c0-1.7,0.3-3.3,0.9-4.7c0.6-1.4,1.4-2.6,2.5-3.7c1.1-1,2.3-1.8,3.8-2.4s3-0.9,4.8-0.9c1.7,0,3.3,0.3,4.8,0.9s2.7,1.4,3.8,2.4
		c1.1,1,1.9,2.2,2.5,3.7c0.6,1.4,0.9,3,0.9,4.7c0,1.7-0.3,3.3-0.9,4.7c-0.6,1.4-1.4,2.6-2.5,3.7c-1.1,1-2.3,1.8-3.8,2.4
		S-149.1,409-150.8,409z M-150.8,403.9c0.9,0,1.8-0.2,2.5-0.5c0.8-0.3,1.4-0.8,1.9-1.4s0.9-1.3,1.2-2.1c0.3-0.8,0.4-1.6,0.4-2.6
		c0-0.9-0.1-1.8-0.4-2.6c-0.3-0.8-0.7-1.5-1.2-2c-0.5-0.6-1.2-1-1.9-1.4c-0.8-0.3-1.6-0.5-2.5-0.5c-0.9,0-1.8,0.2-2.5,0.5
		c-0.8,0.3-1.4,0.8-1.9,1.4s-0.9,1.3-1.2,2c-0.3,0.8-0.4,1.6-0.4,2.6c0,0.9,0.1,1.8,0.4,2.6c0.3,0.8,0.7,1.5,1.2,2.1s1.2,1,1.9,1.4
		C-152.6,403.7-151.7,403.9-150.8,403.9z"/>
	<path class="st0" d="M-125.2,409c-1.8,0-3.4-0.2-4.7-0.7c-1.3-0.5-2.4-1.1-3.3-2c-0.9-0.8-1.5-1.8-2-3c-0.4-1.2-0.6-2.4-0.6-3.8
		v-13.3h5.9v13.1c0,1.3,0.4,2.4,1.2,3.3s2,1.3,3.6,1.3c1.5,0,2.7-0.4,3.5-1.3s1.2-1.9,1.2-3.3v-13.1h5.9v13.3c0,1.4-0.2,2.7-0.6,3.8
		c-0.4,1.2-1.1,2.2-2,3c-0.9,0.8-2,1.5-3.3,2C-121.9,408.8-123.5,409-125.2,409z"/>
	<path class="st0" d="M-98.2,408.6l-3.8-7.5h-3v7.5h-5.8v-22.4h11.2c1.2,0,2.3,0.2,3.3,0.6c1,0.4,1.8,0.9,2.5,1.6
		c0.7,0.7,1.2,1.5,1.5,2.4c0.3,0.9,0.5,1.9,0.5,2.9s-0.1,1.9-0.4,2.6c-0.3,0.8-0.6,1.4-1,1.9s-0.9,1-1.4,1.4s-1.1,0.6-1.6,0.8
		l4.6,8.2H-98.2z M-100.3,396c0.8,0,1.4-0.2,2-0.6c0.5-0.4,0.8-1,0.8-1.8s-0.3-1.3-0.8-1.8s-1.2-0.6-2-0.6h-4.6v4.8H-100.3z"/>
	<path class="st0" d="M-69,409c-1.7,0-3.3-0.3-4.8-0.9s-2.7-1.4-3.8-2.4c-1.1-1-1.9-2.2-2.5-3.7c-0.6-1.4-0.9-3-0.9-4.7
		c0-1.7,0.3-3.3,0.9-4.7s1.4-2.6,2.5-3.7c1.1-1,2.3-1.8,3.8-2.4s3-0.9,4.8-0.9c1.7,0,3.3,0.3,4.8,0.9s2.7,1.4,3.8,2.4
		c1.1,1,1.9,2.2,2.5,3.7c0.6,1.4,0.9,3,0.9,4.7c0,1.7-0.3,3.3-0.9,4.7s-1.4,2.6-2.5,3.7c-1.1,1-2.3,1.8-3.8,2.4S-67.3,409-69,409z
		 M-69,403.9c0.9,0,1.8-0.2,2.5-0.5c0.8-0.3,1.4-0.8,1.9-1.4s0.9-1.3,1.2-2.1c0.3-0.8,0.4-1.6,0.4-2.6c0-0.9-0.1-1.8-0.4-2.6
		c-0.3-0.8-0.7-1.5-1.2-2c-0.5-0.6-1.2-1-1.9-1.4c-0.8-0.3-1.6-0.5-2.5-0.5s-1.8,0.2-2.5,0.5c-0.8,0.3-1.4,0.8-1.9,1.4
		s-0.9,1.3-1.2,2c-0.3,0.8-0.4,1.6-0.4,2.6c0,0.9,0.1,1.8,0.4,2.6c0.3,0.8,0.7,1.5,1.2,2.1s1.2,1,1.9,1.4
		C-70.8,403.7-70,403.9-69,403.9z"/>
	<path class="st0" d="M-54.1,408.6v-22.4h16.4v5h-10.7v3.5H-38v5h-10.4v8.8L-54.1,408.6L-54.1,408.6z"/>
	<path class="st0" d="M-26,408.6v-22.4h9.4c1.8,0,3.4,0.3,4.9,0.8s2.8,1.3,3.8,2.2c1.1,1,1.9,2.1,2.5,3.5s0.9,2.9,0.9,4.7
		c0,1.8-0.3,3.3-0.9,4.7s-1.4,2.6-2.5,3.5s-2.3,1.7-3.8,2.2s-3.1,0.8-4.8,0.8H-26z M-16.6,403.5c1,0,1.9-0.2,2.6-0.5
		c0.8-0.3,1.4-0.8,1.9-1.3c0.5-0.6,0.9-1.2,1.2-2c0.3-0.8,0.4-1.5,0.4-2.4c0-0.9-0.1-1.7-0.4-2.4c-0.3-0.7-0.6-1.4-1.2-1.9
		c-0.5-0.6-1.2-1-1.9-1.3c-0.8-0.3-1.7-0.5-2.7-0.5h-3.7v12.3C-20.4,403.5-16.6,403.5-16.6,403.5z"/>
	<path class="st0" d="M9.1,409c-1.8,0-3.4-0.2-4.7-0.7s-2.4-1.1-3.3-2c-0.9-0.8-1.5-1.8-2-3c-0.4-1.2-0.6-2.4-0.6-3.8v-13.3h5.9
		v13.1c0,1.3,0.4,2.4,1.2,3.3s2,1.3,3.6,1.3c1.5,0,2.7-0.4,3.5-1.3s1.2-1.9,1.2-3.3v-13.1h5.9v13.3c0,1.4-0.2,2.7-0.6,3.8
		c-0.4,1.2-1.1,2.2-2,3c-0.9,0.8-2,1.5-3.3,2C12.5,408.8,10.9,409,9.1,409z"/>
	<path class="st0" d="M28.7,408.6v-17.4h-6.3v-5h18.3v5h-6.3v17.4H28.7z"/>
	<path class="st0" d="M49.6,408.6v-9l-8.5-13.4h6.5l4.9,8.3l4.8-8.3h6.6l-8.5,13.4v9H49.6z"/>
</g>
</svg>
