<?xml version="1.0" encoding="utf-8"?>
<!-- Generator: Adobe Illustrator 22.0.1, SVG Export Plug-In . SVG Version: 6.00 Build 0)  -->
<svg version="1.1" xmlns="http://www.w3.org/2000/svg" xmlns:xlink="http://www.w3.org/1999/xlink" x="0px" y="0px"
	 viewBox="0 0 1321.5 800" style="enable-background:new 0 0 1321.5 800;" xml:space="preserve">
<style type="text/css">
	.st0{clip-path:url(#SVGID_2_);}
	.st1{display:none;}
	.st2{display:inline;fill-rule:evenodd;clip-rule:evenodd;fill:url(#SVGID_3_);}
	.st3{display:inline;fill-rule:evenodd;clip-rule:evenodd;fill:url(#SVGID_4_);}
	.st4{display:inline;fill-rule:evenodd;clip-rule:evenodd;fill:url(#SVGID_5_);}
	.st5{display:none;fill:#FF9D83;}
	.st6{fill-rule:evenodd;clip-rule:evenodd;fill:#FF4C00;}
	.st7{fill-rule:evenodd;clip-rule:evenodd;fill:#824737;}
	.st8{fill-rule:evenodd;clip-rule:evenodd;fill:#F95C32;}
	.st9{fill-rule:evenodd;clip-rule:evenodd;fill:#EA4006;}
	.st10{fill-rule:evenodd;clip-rule:evenodd;fill:#DD4712;}
	.st11{fill-rule:evenodd;clip-rule:evenodd;fill:#FC7E65;}
	.st12{fill:#FF4C00;}
	.st13{fill:#FFFFFF;}
	.st14{fill:#F07726;}
	.st15{fill:#2C1C0F;}
	.st16{fill:none;stroke:#282F39;stroke-linecap:round;stroke-linejoin:round;stroke-miterlimit:10;}
	.st17{fill-rule:evenodd;clip-rule:evenodd;fill:#B46720;}
	.st18{fill-rule:evenodd;clip-rule:evenodd;fill:#B35B28;}
	.st19{fill:#F7714D;}
	.st20{display:none;fill:#FF4C00;}
	.st21{display:inline;fill-rule:evenodd;clip-rule:evenodd;fill:#FF4C00;}
	.st22{display:inline;}
	.st23{fill-rule:evenodd;clip-rule:evenodd;fill:#DC9517;}
	.st24{display:inline;fill-rule:evenodd;clip-rule:evenodd;fill:#F95C32;}
	.st25{display:inline;opacity:0.64;fill-rule:evenodd;clip-rule:evenodd;fill:#FF9773;}
	.st26{display:inline;fill-rule:evenodd;clip-rule:evenodd;fill:#EA4006;}
	.st27{display:inline;fill-rule:evenodd;clip-rule:evenodd;fill:#212121;}
	.st28{display:inline;fill-rule:evenodd;clip-rule:evenodd;fill:#F1F2F2;}
	.st29{display:inline;fill-rule:evenodd;clip-rule:evenodd;fill:#414042;}
	.st30{display:inline;fill-rule:evenodd;clip-rule:evenodd;fill:#CAEBF3;}
	.st31{display:inline;fill-rule:evenodd;clip-rule:evenodd;fill:#726658;}
</style>
<g id="BACKGROUND_1_">
	<g>
		<defs>
			<rect id="SVGID_1_" width="1321.5" height="800"/>
		</defs>
		<clipPath id="SVGID_2_">
			<use xlink:href="#SVGID_1_"  style="overflow:visible;"/>
		</clipPath>
		<g class="st0">
			<g class="st1">
				<linearGradient id="SVGID_3_" gradientUnits="userSpaceOnUse" x1="213.2757" y1="400" x2="1175.8457" y2="400">
					<stop  offset="0" style="stop-color:#9FC7D3"/>
					<stop  offset="0.3154" style="stop-color:#C0D5DF"/>
					<stop  offset="0.7674" style="stop-color:#E9E6EE"/>
					<stop  offset="1" style="stop-color:#F9EDF4"/>
				</linearGradient>
				<path class="st2" d="M1162.5,399.2c-6.1,0-11.4,2.6-14.5,6.5c-1.3,0.1-2.6,0.2-3.8,0.5c-0.9-8.1-10.2-14.6-19.9-14.6
					c-5.1,0-9.7,1.6-13.1,4.2c-0.4,0-0.9,0-1.3,0c-3.5,0-6.7,1-9,2.5c-1-4.8-7.1-8.8-15.4-10.6c-0.2-1.5-0.8-2.8-1.6-4.1
					c-0.8-2.1-2.2-3.7-4.1-5.2c-1.8-1.6-4-2.5-6.4-3.1c-2.4-1-5-1.8-7.7-0.9h-0.8c-0.6,0-1.2-0.5-1.7-0.4c-2.7-1-6-2-9.6-2
					c-3.7,0-7.2,0.6-9.9,1.7c-0.2-0.3-0.3-0.6-0.5-0.9c-0.8-2.1-2.2-3.8-4.1-5.3c-1.8-1.6-4-2.7-6.4-3.3c-2.4-1-5-2.2-7.7-1.3h-0.8
					c-3.6,0-7,0.6-10.1,2.1c-1.4,0.9-2.7,1.6-4.1,2.5c-2.5,2.1-4.2,4.5-5.1,7.3c-0.2,1-0.3,2.1-0.5,3.2c-0.1-0.1-0.2-0.1-0.4-0.2
					c-1.8-1.6-4-2.5-6.4-3.2c-2.4-1-5-1.9-7.7-1h-0.8c-3.6,0-7,0.4-10.1,1.9c-1.4,0.9-2.7,1.4-4.1,2.3c-2.1,1.7-3.6,3.7-4.6,5.9
					c-0.1,0-0.1,0-0.2,0c-2,0-4,0.3-5.8,0.7c-1.3-0.8-2.8-1.2-4.3-1.7c-2.4-1-5-2-7.7-1.1h-0.8c-3.6,0-7,0.5-10.1,2
					c-1.4,0.9-2.7,1.5-4.1,2.3c-2.5,2.1-4.2,4.5-5.1,7.3c-0.2,1-0.3,2-0.5,3c-0.4,0.3-0.7,0.6-1.1,0.9c-2.2-1.1-4.8-1.8-7.7-1.8
					c-0.5,0-1,0-1.6,0.1c-0.2-0.2-0.4-0.4-0.6-0.7c-2.5-2.1-5.4-3.5-8.8-4.3c-1.8-0.2-3.5-0.4-5.3-0.6c-1.6,0-3.1,0.1-4.6,0.4
					c-2.6-5.4-10.6-9.4-20-9.4c-6.6,0-12.4,1.9-16.2,4.9c-1.7-3.2-5.8-5.8-10.9-7.2c0-0.2,0-0.4,0-0.6c0-4.6-3.6-8.6-8.7-10.4
					c-2.8-6.2-11.7-10.7-22.4-10.7c-1.8,0-3.6,0.1-5.3,0.4c0.9-1.5,1.3-3.2,1.3-5c0-7.2-7.7-13-17.2-13c-0.4,0-0.7,0-1.1,0
					c-1-5.2-5.6-9.7-11.3-12c0.4-0.7,0.7-1.5,1-2.3c0.2-1.5,0.5-2.9,0.7-4.4c0-3-0.9-5.8-2.7-8.4l-3.1-3.4c-1.5-1.4-3.3-2.4-5.4-3.1
					c-1.4-6.5-9-11.6-16.9-11.6c-3.1,0-5.9,0.7-8.4,1.9c-1.2-2.6-3.6-4.8-6.9-6.3c0.4-0.7,0.6-1.5,0.6-2.3c0-3.7-4.3-6.8-9.6-6.8
					c-2.7,0-5.1,0.8-6.8,2c-3.1-2.8-7.9-4.6-13.2-4.6c-7.3,0-13.6,3.3-15.8,8c-1.8-1.4-4.5-2.3-7.4-2.3c-5.6,0-10.1,3.2-10.1,7.1
					c0,0.1,0,0.2,0,0.4c-6.2,1.5-10.7,5.7-10.7,10.6c0,0.1,0,0.1,0,0.1c-3.2,1.2-5.9,2.9-7.8,5c-3.5-2-7.4-3.2-12-3.2
					c-2.7,0-5.4,0.4-7.8,1.2c-2.3-0.9-4.8-1.5-7.4-1.6c-3-3.9-8.1-6.5-14.2-6.5c-7.9,0-15.5,5.1-16.9,11.6c-2,0.7-3.8,1.7-5.4,3.1
					l-3.1,3.4c-1.8,2.6-2.7,5.4-2.7,8.4c0.2,1.5,0.5,2.9,0.7,4.4c0.3,0.8,0.6,1.6,1,2.3c-5.7,2.3-10.3,6.8-11.3,12
					c-0.3,0-0.7,0-1.1,0c-9.5,0-17.2,5.8-17.2,13c0,1.8,0.5,3.5,1.3,5c-1.7-0.3-3.5-0.4-5.3-0.4c-10.7,0-19.6,4.5-22.4,10.7
					c-5.1,1.8-8.7,5.8-8.7,10.4c0,0.2,0,0.4,0,0.6c-5.2,1.4-9.2,4-10.9,7.2c-3.8-3-9.7-4.9-16.2-4.9c-9.5,0-17.4,4-20,9.4
					c-1.5-0.3-3-0.5-4.6-0.4c-1.8,0.2-3.5,0.4-5.3,0.6c-3.4,0.8-6.3,2.2-8.8,4.3c-0.2,0.2-0.4,0.4-0.6,0.7c-0.5,0-1-0.1-1.6-0.1
					c-2.9,0-5.6,0.7-7.7,1.8c-0.3-0.3-0.7-0.6-1.1-0.9c-0.2-1-0.3-2-0.5-3c-1-2.8-2.7-5.2-5.1-7.3c-1.4-0.9-2.7-1.5-4.1-2.3
					c-3.1-1.5-6.5-2-10.1-2h-0.8c-2.8-0.9-5.3,0.1-7.7,1.1c-1.6,0.4-3,0.9-4.3,1.7c-1.8-0.4-3.8-0.7-5.8-0.7c-0.1,0-0.1,0-0.2,0
					c-1-2.2-2.5-4.2-4.6-5.9c-1.4-0.9-2.7-1.4-4.1-2.3c-3.1-1.5-6.5-1.9-10.1-1.9h-0.8c-2.8-0.9-5.3,0-7.7,1
					c-2.5,0.7-4.6,1.6-6.4,3.2c-0.1,0.1-0.2,0.1-0.4,0.2c-0.2-1-0.3-2.1-0.5-3.2c-1-2.8-2.7-5.2-5.1-7.3c-1.4-0.9-2.7-1.6-4.1-2.5
					c-3.1-1.5-6.5-2.1-10.1-2.1h-0.8c-2.8-0.9-5.3,0.3-7.7,1.3c-2.5,0.7-4.6,1.7-6.4,3.3c-2,1.5-3.3,3.3-4.1,5.3
					c-0.2,0.3-0.3,0.6-0.5,0.9c-2.8-1.1-6.2-1.7-9.9-1.7c-3.6,0-6.9,1-9.6,2c-0.6,0-1.2,0.4-1.7,0.4h-0.8c-2.8-0.9-5.3-0.1-7.7,0.9
					c-2.5,0.7-4.6,1.5-6.4,3.1c-2,1.5-3.3,3.2-4.1,5.2c-0.8,1.3-1.4,2.7-1.6,4.1c-8.3,1.7-14.4,5.7-15.4,10.6
					c-2.3-1.6-5.5-2.5-9-2.5c-0.4,0-0.9,0-1.3,0c-3.4-2.6-8-4.2-13.1-4.2c-9.7,0-19,6.6-19.9,14.6c-1.2-0.3-2.5-0.4-3.8-0.5
					c-3-3.9-8.4-6.5-14.5-6.5c-5,0-9.2,2-13.4,5.1v115.3h535.2v-2.7h427.3V404.4C1171.7,401.3,1167.5,399.2,1162.5,399.2z
					 M705,296.4c-0.4-0.5-0.8-1.1-1.3-1.6c0,0,0.1-0.1,0.1-0.1c0.4,0.6,0.8,1.1,1.3,1.6C705.1,296.3,705.1,296.4,705,296.4z"/>
				<linearGradient id="SVGID_4_" gradientUnits="userSpaceOnUse" x1="-0.7757" y1="458.5319" x2="576.9592" y2="458.5319">
					<stop  offset="0" style="stop-color:#9FC7D3"/>
					<stop  offset="0.3154" style="stop-color:#C0D5DF"/>
					<stop  offset="0.7674" style="stop-color:#E9E6EE"/>
					<stop  offset="1" style="stop-color:#F9EDF4"/>
				</linearGradient>
				<path class="st3" d="M511.3,450.2c-5.8,1.7-11.8,2.3-14.7,7c-1.3,0.1-2.4,0.3-3.6,0.6c-0.9-10-10-18.1-19.5-18.1
					c-5,0-9.5,2-12.8,5.2c-0.4,0-0.8,0-1.3,0c-3.5,0-6.6,1.2-8.8,3.1c-1-6-7-10.9-15.1-13c-0.2-1.8-0.7-3.4-1.6-5.1
					c-0.8-2.5-2.1-4.6-4.1-6.4c-1.8-2-3.9-2.8-6.3-3.6c-2.3-1.3-4.9-2.1-7.6-0.9h-0.8c-0.6,0-1.1-0.9-1.7-0.8
					c-2.6-1.2-5.9-2.7-9.4-2.7c-3.7,0-7,0.7-9.7,2c-0.1-0.4-0.3-0.7-0.5-1.1c-0.8-2.5-2.1-4.7-4.1-6.6c-1.8-2-3.9-3.3-6.3-4.1
					c-2.3-1.3-4.9-2.8-7.6-1.6h-0.8c-3.5,0-6.8,0.8-9.9,2.6c-1.3,1.1-2.6,2-4,3.1c-2.4,2.5-4.1,5.6-5,9c-0.2,1.3-0.3,2.6-0.5,3.9
					c-0.1-0.1-0.2-0.2-0.3-0.3c-1.8-2-3.9-2.9-6.3-3.7c-2.3-1.3-4.9-2.3-7.6-1.1h-0.8c-3.5,0-6.8,0.2-9.9,2.1
					c-1.3,1.1-2.6,1.6-4,2.7c-2,2.1-3.5,4.5-4.5,7.2c-0.1,0-0.1,0-0.2,0c-2,0-3.9,0.3-5.7,0.8c-1.3-1-2.7-1.3-4.2-1.8
					c-2.3-1.3-4.9-2.4-7.6-1.1h-0.8c-3.5,0-6.8,0.3-9.9,2.2c-1.3,1.1-2.6,1.7-4,2.7c-2.4,2.5-4.1,5.5-5,8.9
					c-0.2,1.2-0.3,2.4-0.5,3.7c-0.4,0.3-0.7,0.7-1,1.1c-2.1-1.4-4.7-2.3-7.6-2.3c-0.5,0-1,0-1.5,0.1c-0.2-0.3-0.4-0.6-0.6-0.8
					c-2.4-2.5-5.3-4.3-8.6-5.3c-1.7-0.2-3.5-0.5-5.2-0.7c-1.6-0.1-3,0.1-4.5,0.5c-2.5-6.7-10.4-11.6-19.6-11.6
					c-6.4,0-12.2,2.3-15.9,6c-1.7-3.9-5.6-7.2-10.7-8.9c0-0.2,0-0.5,0-0.7c0-5.7-3.5-10.6-8.6-12.8c-2.7-7.6-11.5-13.2-21.9-13.2
					c-1.8,0-3.5,0.2-5.2,0.5c0.8-1.9,1.3-4,1.3-6.2c0-8.8-7.6-16-16.9-16c-0.3,0-0.7,0-1,0c-1-6.4-5.5-11.9-11.1-14.8
					c0.4-0.9,0.7-1.9,1-2.9c0.2-1.8,0.5-3.6,0.7-5.4c0-3.7-0.9-7.1-2.7-10.3l-3.1-4.1c-1.5-1.7-3.3-3-5.3-3.8
					c-1.4-8-8.8-14.2-16.6-14.2c-6,0-10.9,3.2-13.9,8c-3,0.2-5.8,1.1-8.4,2.6c-1.3,1-2.5,2-3.8,3.1c-1.8,1.8-3.1,3.9-3.9,6.3
					c-1.2,2.3-1.7,4.9-1.6,7.5c0,0.3,0,0.6,0,0.9c-0.3,0.2-0.6,0.4-0.9,0.6c-1-0.5-2-0.9-3-1.2c-1.7-0.2-3.5-0.5-5.2-0.7
					c-2.4-0.1-4.7,0.4-6.8,1.4c-0.8-0.1-1.5-0.1-2.3-0.1c-1.8,0-3.6,0.2-5.3,0.6c0.7-1.6,1.1-3.4,1.1-5.2c0-9.1-9.5-16.6-21.2-16.6
					c-8,0-15,3.4-18.6,8.5c-3.4-2.5-7.6-3.9-12.1-3.9c-5.8,0-10.6,2.4-14.7,6.1v260.6h524l45.8-72.2
					C591.4,511.5,564.9,434.8,511.3,450.2z"/>
				
					<linearGradient id="SVGID_5_" gradientUnits="userSpaceOnUse" x1="329.598" y1="484.8698" x2="851.598" y2="484.8698" gradientTransform="matrix(-1 0 0 1 1651.0774 0)">
					<stop  offset="0" style="stop-color:#9FC7D3"/>
					<stop  offset="0.3154" style="stop-color:#C0D5DF"/>
					<stop  offset="0.7674" style="stop-color:#E9E6EE"/>
					<stop  offset="1" style="stop-color:#F9EDF4"/>
				</linearGradient>
				<path class="st4" d="M812.6,477.4c5.9,0,11.2,2.6,14.1,6.5c1.3,0.1,2.5,0.2,3.7,0.5c0.9-8.1,10-14.6,19.4-14.6
					c5,0,9.4,1.6,12.8,4.2c0.4,0,0.9,0,1.3,0c3.4,0,6.6,1,8.8,2.5c1-4.8,6.9-8.8,15-10.6c0.2-1.5,0.7-2.8,1.6-4.1
					c0.8-2.1,2.1-3.7,4-5.2c1.8-1.6,3.9-2.3,6.3-3c2.3-1,4.8-1.8,7.5-0.8h0.8c0.6,0,1.1-0.6,1.7-0.6c2.6-1,5.8-2.1,9.3-2.1
					c3.6,0,7,0.6,9.7,1.7c0.1-0.3,0.3-0.6,0.5-0.9c0.8-2.1,2.1-3.8,4-5.3c1.8-1.6,3.9-2.7,6.3-3.4c2.3-1,4.8-2.4,7.5-1.4h0.8
					c3.5,0,6.8,0.7,9.8,2.2c1.3,0.9,2.6,1.7,3.9,2.5c2.4,2.1,4.1,4.5,5,7.3c0.2,1,0.3,2.1,0.5,3.2c0.1-0.1,0.2-0.1,0.3-0.2
					c1.8-1.6,3.9-2.4,6.3-3.1c2.3-1,4.8-1.9,7.5-0.9h0.8c3.5,0,6.8,0.3,9.8,1.8c1.3,0.9,2.6,1.4,3.9,2.3c2,1.7,3.5,4,4.5,6
					c0.1,0,0.1,0,0.2,0c2,0,3.9,0.2,5.6,0.6c1.3-0.8,2.7-1.1,4.2-1.6c2.3-1,4.8-2,7.5-1h0.8c3.5,0,6.8,0.3,9.8,1.8
					c1.3,0.9,2.6,1.4,3.9,2.2c2.4,2.1,4.1,4.5,5,7.3c0.2,1,0.3,2,0.5,3c0.4,0.3,0.7,0.6,1,0.9c2.1-1.1,4.7-1.8,7.5-1.8
					c0.5,0,1,0,1.5,0.1c0.2-0.2,0.4-0.4,0.6-0.7c2.4-2.1,5.3-3.5,8.6-4.3c1.7-0.2,3.5-0.4,5.2-0.6c1.5,0,3,0.1,4.5,0.4
					c2.5-5.4,10.3-9.4,19.5-9.4c6.4,0,12.1,1.9,15.8,4.9c1.7-3.2,5.6-5.8,10.7-7.2c0-0.2,0-0.4,0-0.6c0-4.6,3.5-8.6,8.5-10.4
					c2.7-6.2,11.4-10.7,21.8-10.7c1.8,0,3.5,0.1,5.2,0.4c-0.8-1.5-1.3-3.2-1.3-5c0-7.2,7.5-13,16.8-13c0.3,0,0.7,0,1,0
					c1-5.2,5.4-9.7,11-12c-0.4-0.7-0.7-1.5-1-2.3c-0.2-1.5-0.5-2.9-0.7-4.4c0-3,0.9-5.8,2.7-8.4l3-3.4c1.5-1.4,3.3-2.4,5.2-3.1
					c1.4-6.5,8.8-11.6,16.5-11.6c5.9,0,10.9,2.6,13.8,6.5c3,0.1,5.8,0.9,8.4,2.1c1.3,0.8,2.5,1.7,3.8,2.5c1.8,1.4,3.1,3.1,3.9,5.1
					c1.2,1.9,1.7,3.9,1.6,6.1c0,0.2,0,0.5,0,0.7c0.3,0.2,0.6,0.3,0.9,0.5c1-0.4,2-0.7,3-1c1.7-0.2,3.5-0.4,5.2-0.6
					c2.4-0.1,4.7,0.3,6.8,1.1c0.8-0.1,1.5-0.1,2.3-0.1c1.8,0,3.6,0.2,5.2,0.5c-0.7-1.3-1.1-2.8-1.1-4.2c0-7.4,9.5-13.4,21.1-13.4
					c8,0,14.9,2.8,18.5,6.9c3.4-2,7.4-3.2,11.9-3.2c5.7,0,10.5,1.9,14.5,5v211.3h-522V482.5C803.5,479.4,807.7,477.4,812.6,477.4z"
					/>
			</g>
			<ellipse class="st5" cx="379.4" cy="715.7" rx="683.2" ry="220.5"/>
			<g>
				<g>
					<path class="st6" d="M1019.5,146.5c-6.1-5.1-14-8.2-22.5-8.2c-17.9,0-32.6,13.3-34.9,30.6h-0.3c-16.6,0-30,13.5-30,30.1
						c0,1.7,0.2,3.4,0.4,5c-11.6,2.5-20.3,12.7-20.3,25.1c0,1.8,0.2,3.6,0.5,5.3c-16.4,2.7-29,17-29,34.3c0,8.7,3.2,16.6,8.4,22.7
						l0,0.6c0,13.5,10.9,24.4,24.4,24.4c2.1,0,4.1-0.2,6-0.7c-1.4,3.4-2.2,7.1-2.2,11.1c0,15.8,12.8,28.6,28.6,28.6
						c1.1,0,2.2-0.1,3.3-0.2c-1.4,3.6-2.2,7.5-2.2,11.7c0,17.7,14.4,32.1,32,32.1c10.7,0,20.1-5.2,25.9-13.2
						c10.1,2.7,20.7,4.1,31.6,4.1c20,0,38.9-4.8,55.5-13.2c4,2,8.5,3.1,13.3,3.1c16.6,0,30-13.5,30-30.1c0-1.8-0.2-3.6-0.5-5.3
						c5.5,4.5,12.6,7.2,20.3,7.2c17.7,0,32-14.4,32-32.1c0-14.6-9.7-26.9-23-30.8c4.8-5.7,7.7-13.1,7.7-21.2
						c0-13.1-7.7-24.5-18.8-29.7l-0.5-1.6c2.1-3.6,3.3-7.8,3.3-12.2c0-12.7-9.6-23.1-22-24.3l-0.7-1c0.4-2.2,0.6-4.5,0.6-6.8
						c0-21.9-17.8-39.7-39.7-39.7c-7.2,0-14,1.9-19.8,5.3c-0.8-0.4-1.1-0.5-1.9-0.8c-2.4-14.3-14.8-25.1-29.7-25.1
						C1034.4,131.4,1024.7,137.5,1019.5,146.5z"/>
					<path class="st7" d="M1101,339.5l-2.7-2.9c-12.5,7.1-25.7,15.7-39.2,25.9c-5.3,4-10.2,8-14.9,12c-0.7-3.9-1.2-8.2-1.4-13
						c-0.3-6.8,0.2-12.9,0.9-18c12.2-12.9,24.4-25.7,36.6-38.6l-4.1-3.8l-34.5,26.9l-2.6-81.1l-4.1,0l-4.1,0l-2.6,81.1l-34.5-26.9
						l-4.1,3.8l36.6,38.6c0.7,4,1.2,8.7,1.2,14.1c0,6.6-0.8,12.3-1.7,16.9c-18-12.6-36.1-25.3-54.1-37.9l-2.7,2.9
						c14.6,10.3,30.3,23.6,45.4,40.7c3.9,4.4,7.5,8.8,10.9,13.1c0.1,6.5,0.2,13,0.2,19.5l-0.9,22.1l-3,72.6c8.4,4.2,18.4,4.2,26.8,0
						v0c-1-37.7-2.1-75.4-3.1-113.1c2.7-4.6,5.9-9.3,9.5-14C1069.6,360.7,1086.9,347.8,1101,339.5z"/>
					<path class="st8" d="M1024,111.3c-6.1-5.1-14-8.2-22.5-8.2c-17.9,0-32.6,13.3-34.9,30.6l-0.3,0c-16.6,0-30,13.5-30,30.1
						c0,1.7,0.2,3.4,0.4,5c-11.6,2.5-20.3,12.7-20.3,25.1c0,1.8,0.2,3.6,0.5,5.3c-16.4,2.7-29,17.1-29,34.3c0,8.7,3.2,16.6,8.4,22.7
						l0,0.6c0,13.5,10.9,24.5,24.4,24.5c2.1,0,4.1-0.3,6-0.8c-1.4,3.4-2.2,7.1-2.2,11.1c0,15.8,12.8,28.7,28.6,28.7
						c1.1,0,2.2-0.1,3.3-0.2c-1.8,4.5-2.5,9.4-2.1,14.6c1.4,15.2,13.6,27.5,28.8,29c11.9,1.1,22.7-4.3,29.1-13.1
						c10.1,2.7,20.7,4.1,31.6,4.1c20,0,38.9-4.8,55.5-13.2c4,2,8.5,3.1,13.3,3.1c16.6,0,30.1-13.5,30.1-30.1c0-1.8-0.2-3.5-0.5-5.3
						c5.5,4.5,12.6,7.2,20.3,7.2c17.7,0,32-14.4,32-32.1c0-14.6-9.7-26.9-23-30.8c4.8-5.7,7.7-13.1,7.7-21.2
						c0-13.1-7.7-24.5-18.8-29.7l-0.5-1.6c2.1-3.6,3.3-7.8,3.3-12.2c0-12.7-9.6-23.1-22-24.3l-0.7-1c0.4-2.2,0.6-4.5,0.6-6.8
						c0-21.9-17.8-39.7-39.7-39.7c-7.2,0-14,1.9-19.9,5.3c-0.8-0.4-1.1-0.5-1.9-0.8c-2.4-14.3-14.8-25.1-29.7-25.1
						C1039,96.3,1029.3,102.3,1024,111.3z"/>
					<path class="st9" d="M1107.8,192.1c-2.7-2.3-6.2-3.6-10-3.6c-8,0-14.5,5.9-15.6,13.6h-0.2c-7.4,0-13.4,6-13.4,13.4
						c0,0.8,0.1,1.5,0.2,2.2c-5.2,1.1-9,5.7-9,11.2c0,0.8,0.1,1.6,0.2,2.4c-7.3,1.2-12.9,7.6-12.9,15.3c0,3.9,1.4,7.4,3.7,10.1v0.3
						c0,5.2,3.6,9.9,8.8,10.7c1.7,0.3,3.3,0.2,4.8-0.2c-1.1,2.7-1.3,5.9-0.3,9c1.8,5.6,7.4,9.1,13.3,8.6c0.1,0,0.2,0,0.3,0
						c-0.9,2.3-1.2,4.9-0.8,7.6c1,6.1,6.1,11,12.3,11.8c5.5,0.7,10.5-1.8,13.4-5.8c4.5,1.2,9.2,1.8,14.1,1.8
						c8.9,0,17.3-2.1,24.8-5.9c1.8,0.9,3.8,1.4,5.9,1.4c7.4,0,13.4-6,13.4-13.4c0-0.8-0.1-1.6-0.2-2.3c3,2.5,7.2,3.8,11.5,3
						c5.8-1,10.5-5.6,11.5-11.4c1.4-7.6-3.3-14.4-10-16.4c2.1-2.6,3.4-5.8,3.4-9.4c0-5.9-3.4-10.9-8.4-13.3l-0.2-0.7
						c0.9-1.6,1.5-3.5,1.5-5.4c0-5.7-4.3-10.3-9.8-10.8l-0.3-0.4c0.4-2.4,0.3-5-0.2-7.6c-0.9-4.4-3.7-8.3-7.6-10.5
						c-6.5-3.7-13.4-3.2-18.5-0.2c-0.4-0.2-0.5-0.2-0.8-0.4c-1.1-6.4-6.6-11.2-13.2-11.2C1114.5,185.4,1110.1,188.1,1107.8,192.1z"
						/>
					<path class="st10" d="M953.7,179.9c-2.7-2.3-6.2-3.6-10-3.6c-8,0-14.5,5.9-15.6,13.6H928c-4.5,0-8.8,2.2-11.2,6
						c-2.1,3.5-2.5,6.7-2,9.6c-5.2,1.1-9,5.7-9,11.2c0,0.8,0.1,1.6,0.2,2.4c-7.3,1.2-12.9,7.6-12.9,15.3c0,3.9,1.4,7.4,3.7,10.1v0.3
						c0,6,4.9,10.9,10.9,10.9c0.9,0,1.8-0.1,2.7-0.3c-1.4,3.3-1.4,7.2,0.5,11.1c1.9,4,6.1,6.5,10.6,6.6c0.8,0,1.5,0,2.2-0.1
						c-0.9,2.3-1.2,4.9-0.8,7.6c1,6.1,6,11,12.1,11.8c5.5,0.7,10.6-1.7,13.6-5.8c4.5,1.2,9.2,1.8,14.1,1.8c8.9,0,17.3-2.1,24.7-5.9
						c1.8,0.9,3.8,1.4,5.9,1.4c7.4,0,13.4-6,13.4-13.4c0-0.8-0.1-1.6-0.2-2.3c3.1,2.5,7.2,3.8,11.5,3c5.8-1,10.5-5.6,11.6-11.4
						c1.4-7.6-3.3-14.5-10-16.4c2.1-2.6,3.4-5.9,3.4-9.4c0-5.9-3.4-10.9-8.4-13.3l-0.2-0.7c0.9-1.6,1.5-3.5,1.5-5.4
						c0-5.6-4.3-10.3-9.8-10.8l-0.3-0.4c0.2-1,0.3-2,0.3-3c0-9.8-7.9-17.7-17.7-17.7c-3.2,0-6.2,0.9-8.8,2.3c-0.4-0.2-0.6-0.3-1-0.5
						c-1.1-6.3-6.6-11-13.2-11C960.3,173.2,956,175.9,953.7,179.9z"/>
					<path class="st11" d="M1036,126.8c-3.5-2.9-8-4.7-12.9-4.7c-10.2,0-18.6,7.6-19.9,17.5h-0.2c-8.9,0-16.5,6.9-17.1,15.8
						c-0.1,1.5-0.1,2.9,0.2,4.3c-6.6,1.4-11.6,7.3-11.6,14.3c0,1,0.1,2,0.3,3c-9.4,1.6-16.6,9.7-16.6,19.6c0,5,1.8,9.5,4.8,13v0.4
						c0,5,2.6,9.8,7,12.2c3.8,2,7.2,2.2,10.4,1.4c-1.4,3.4-1.7,7.4-0.5,11.4c2.3,7.2,9.5,11.9,17.1,11.2c0.1,0,0.3,0,0.4,0
						c-1.2,2.9-1.6,6.3-1,9.7c1.2,7.5,7.2,13.6,14.6,14.9c7.5,1.4,14.3-1.8,18.3-7.3c5.8,1.5,11.8,2.3,18.1,2.3
						c11.4,0,22.2-2.7,31.7-7.5c2.3,1.1,4.9,1.8,7.6,1.8c9.5,0,17.2-7.7,17.2-17.2c0-1-0.1-2-0.3-3c3.5,2.8,7.9,4.4,12.8,4.1
						c8.8-0.6,16.1-7.6,17-16.4c0.9-9.2-4.9-17.1-13-19.5c2.8-3.3,4.4-7.5,4.4-12.1c0-7.5-4.4-14-10.8-17l-0.3-0.9
						c1.2-2.1,1.9-4.4,1.9-7c0-7.2-5.5-13.2-12.6-13.9l-0.4-0.5c0.2-1.3,0.3-2.6,0.3-3.9c0-12.5-10.1-22.7-22.7-22.7
						c-4.1,0-7.9,1.1-11.2,3c-0.5-0.3-0.7-0.3-1.2-0.6c-1.4-8.1-8.5-14.2-17-14.2C1044.5,118.2,1038.9,121.7,1036,126.8z"/>
				</g>
			</g>
			<g>
				<g>
					<g>
						<path class="st12" d="M936.9,497.7c0,0,23-2.1,13-21.8c-10-19.7-24.6-23.3-29.8-34.6c-5.2-11.3-14.8,13.5-13.1,31.1
							c1.7,17.6,5.5,29.4,7.9,27l0.2-12.2c0,0,6.2,4.5,13.1,4.6c0,0-13.3,8.3-6.9,8C927.6,499.5,936.9,497.7,936.9,497.7z"/>
						<g>
							<path class="st13" d="M895.5,450.1c0,0,11.7,10.6,16.7,13.4c3.5,1.9,17.8-14.1,17.8-14.1
								C937.7,445.8,903.1,430.7,895.5,450.1z"/>
							<path class="st12" d="M889.9,437.1c0,0-4.6,5.4-1.8,9.3l5.5-0.8c0,0-2.2,3.8,0,6.9c0,0,10.8-10.6,16.8,9.9l-0.8-33.7
								C909.7,428.6,898.6,426.3,889.9,437.1z"/>
							<path class="st12" d="M935.6,436.6c0,0,4.7,5.3,2.1,9.2l-5.5-0.6c0,0,2.3,3.8,0.2,6.9c0,0-11.1-10.3-16.6,10.3l-0.1-33.7
								C915.7,428.6,926.7,426,935.6,436.6z"/>
							<polyline class="st12" points="910.4,462.3 915.8,462.3 918,428.7 904.5,428.6 							"/>
							<path class="st14" d="M915.8,462.3"/>
							<polygon class="st15" points="910.4,462.3 913.8,470.1 915.8,462.3 							"/>
							<path class="st12" d="M892.8,434.1c0,0,0.8-13.3,4-16l9.5,10.6c0,0,12.3,1.1,14.5-0.1c2.2-1.3,9.3-11.7,9.3-11.7l4.2,18.4"/>
						</g>
						<path class="st12" d="M980.9,442c1.3,3.3-1.3,18-2,14.1c-0.7-3.9-7.6-12.8-7.6-12.8c-1.8,0.6-4.6,12.6-4.6,12.6
							c-2.8-1.1-5.5-8.1-5.5-8.1l0,0c0.4,5,1.3,10.5,2.6,16.6c5.5,26-11.3,19.8-11.3,19.8l-5.8,10.4c38.5,5.6,45.3-25.5,42.6-45.1
							C987.3,446.6,980.9,442,980.9,442z"/>
						<path class="st13" d="M977.6,414.2c-13.6,6.2-17.7,17.1-16.4,33.5l0,0c0,0,2.7,7,5.5,8.1c0,0,2.8-12,4.6-12.6
							c0,0,6.9,8.8,7.6,12.8c0.7,3.9,3.3-10.8,2-14.1c0,0,6.4,4.6,8.3,7.5c-0.7-5.1-2-9.5-3.6-12.2
							C977.9,424.5,977.6,414.2,977.6,414.2z"/>
					</g>
					<path class="st16" d="M927,443.1c0,1.4-1.2,2.6-2.7,2.6c-1.4,0-2.6-1.2-2.6-2.7"/>
					<path class="st16" d="M904.2,442.8c0,1.4-1.2,2.6-2.7,2.6c-1.4,0-2.6-1.2-2.6-2.7"/>
				</g>
			</g>
			<path class="st17" d="M1137.4,518.1c0.5-0.8,0.7-1.7,0.4-2.6c-0.1-0.2-0.2-0.5-0.3-0.7c-0.6-1.7-2.4-2.9-4.6-3.2
				c-0.4-0.2-0.8-0.3-1.3-0.5c-0.1-0.2-0.3-0.4-0.5-0.6c0.1-0.9,0.1-1.8-0.3-2.7c-0.4-1.1-1.1-1.9-2.3-2.5c-0.9-0.5-2.1-0.7-3.2-0.7
				c-0.3-0.3-0.5-0.5-0.9-0.7c-1-0.6-2.1-0.7-3.3-0.7c-0.2-0.1-0.1-0.1-0.2-0.2c-0.4-0.1-0.4-0.2-0.9-0.2c-0.2-0.1,0.3-0.2,0.3-0.3
				c0,0,0,0,0,0c0-0.3-1.7-0.7-2.2-0.9c-0.4-0.2-1.8-0.4-2.2-0.5c-0.4-0.1-0.7-0.2-1.1-0.2c-0.8-0.7-2-1.3-3.6-1.4
				c-2.7-0.2-4.4,1-5,2.5c-0.1,0-0.2,0-0.3,0c-1.7-0.1-3,0.3-3.9,1c-0.6-0.7-1.6-1.2-2.6-1.5c-0.8-0.2-1.6-0.3-2.5-0.2
				c-0.8-0.9-2.2-1.6-3.8-1.7c-0.9-0.1-1.4,0.1-2.2,0.3c-0.2-0.1-0.3-0.3-0.5-0.4c-0.2-0.2-0.5-0.4-0.7-0.5c0-0.4-0.1-0.7-0.3-1.1
				c0.1-0.2,0.2-0.3,0.3-0.5c0.1-0.2,0.2-0.5,0.3-0.7c0.5-1,0.2-2.2-0.3-3.1c-0.6-1-1.8-1.6-3-2c-0.8-0.3-1.8-0.3-2.7-0.1
				c-0.5-0.5-1-0.9-1.7-1.3c-1.1-0.7-2.7-0.8-4-0.6c-0.3,0-0.5,0.1-0.8,0.1c-1.4-0.6-3.1-0.6-4.6-0.1c-0.6-0.5-1.4-1-2.2-1.3
				l-1.2-0.5c-1.5-0.4-3-0.5-4.3,0c-0.7-0.3-1.5-1.1-2.3-1.2l-0.3,0c-2.6-0.2-4.7,1.8-5.3,3.6c-1.9-0.1-3.6,1.3-4.5,2.5
				c-2.1,0.1-3.5,1.2-4,2.5c-1.1,0-2,0.3-2.8,0.8c-2.2,0-4.2,1.4-4.7,3c0-0.3-0.1-0.5-0.1-0.8c-0.3-0.9-0.8-1.6-1.5-2.3
				c-0.5-0.6-1.4-0.9-2.2-1.1c0.3-0.7,0.3-1.4,0.1-2.1c-0.2-1-1.2-1.9-2.3-2.5c-1-0.5-2.4-0.8-3.6-0.7c-0.8-0.5-1.7-0.8-2.7-1
				c-0.4-0.4-1-0.8-1.6-1.2c-1.2-0.7-2.7-0.8-4-0.6c-0.1,0-0.1,0-0.2,0c-1.2-1.2-3.1-1.8-5.2-1.5c-1.9,0.2-3.5,1.5-4,3
				c-0.1,0-0.2,0-0.3,0c-1.1,0.3-1.7,0.4-2.5,0.9c-0.8,0.4-1.3,0.9-2,1.4c-0.9,0.8-0.9,2-0.7,3c-0.5,0.4-1,0.8-1.3,1.3
				c-0.5-0.1-1.1-0.2-1.6-0.1c-1.5-1.1-3.6-1.4-5.4-0.9c0-0.6-0.2-1.3-0.6-1.9c-0.5-0.9-1.8-1.7-3-2c-1.2-0.3-2.8-0.3-3.9,0.1
				c-0.1-0.8-0.5-1.6-1.2-2.2c-0.5-0.5-1.7-0.8-1.7-1l0-0.4c0.1-2.2-2.3-4.1-5.1-4.3c-2.3-0.2-4.4,1-5.2,2.5
				c-0.6,0.1-1.1,0.3-1.6,0.5c-0.3-0.1-0.7-0.2-1-0.3c-0.4-0.5-1-1-1.6-1.3c-0.6-0.3-1.3-0.5-1.9-0.6c-0.6-0.7-1.6-1.2-2.6-1.4
				c-1.4-0.4-2.8-0.2-4.1,0.2c-0.2,0.1-0.4,0.1-0.6,0.2c-1.2,0.4-2.1,1.3-2.6,2.3c-0.1,0.1-0.1,0.3-0.1,0.4
				c-0.4-0.1-0.9-0.1-1.3-0.1c-0.4-0.8-1.1-1.6-2-2c-0.2-0.1-0.4-0.2-0.6-0.3c-2.6-1.2-5.5-0.8-7.3,1c-0.3,0.4-0.6,0.8-0.7,1.3
				c-1.5-0.1-3,0.2-4.1,0.9c-0.2,0.1-0.4,0.3-0.6,0.4c-1.1,0.8-1.7,1.8-1.7,2.9c-0.8,0.2-1.5,0.6-2,1.2c-0.3,0.1-0.7,0.1-1,0.3
				c-0.5-0.1-0.9,0-1.4-0.1l-0.6,0c-0.1,0-0.1,0-0.2,0c-0.3-0.3-0.8-0.6-1.2-0.8c-0.1-0.6-0.3-1.2-0.6-1.8c-0.5-0.9-1.6-1.5-2.8-1.9
				c-0.1-0.2-0.1-0.4-0.2-0.5c-0.7-2-2.9-3.2-5.5-3.2c-0.8-0.9-2.1-1.6-3.6-1.9c-0.2-0.2-0.4-0.3-0.7-0.5c-0.2-0.1-0.4-0.2-0.6-0.3
				c-0.6-0.3-1.3-0.5-1.9-0.6c0,0,0,0,0,0c0,0-0.1,0-0.1,0c-0.3-0.1-0.6-0.1-0.9-0.1c-1.4-0.1-2.7,0.3-3.8,1c-0.6,0.4-1,0.9-1.3,1.4
				c-1.2-0.3-2.8-0.2-3.9,0.2c-1.3,0.5-2,1.3-2.6,2.3c-1,1.6-1.4,3.5-1.4,5.3c-0.1,0-0.2,0-0.3,0c-1.7-0.2-3.2,0.9-3.5,2.2
				c-0.7,0.2-1.3,0.6-1.7,1.1c-0.1,0.1-0.2,0.6-0.3,0.6l-0.5,0c-0.3,0-0.6-0.3-0.9-0.2c-0.3-0.2-0.7-0.6-1.1-0.8
				c-0.8-0.2-1.6-0.2-2.4-0.1c-0.5,0.1-0.9,0.2-1.3,0.4c-0.4-0.7-1.1-1.4-2.1-1.6c-0.6-0.2-1.2-0.3-1.8-0.5
				c-1.3-0.3-2.5-0.1-3.3,0.6c-0.9-0.3-2-0.4-2.9,0c-0.6,0.3-1.3,0.6-1.9,0.8c-0.9,0.4-1.4,1-1.6,1.7c-0.7-0.3-1.5-0.4-2.3-0.3
				l-1.5,0.2c-0.6,0.1-1.2,0.4-1.6,0.7c-1.4,0.2-2.4,1.2-2.5,2.3c0,0.1,0,0.1,0,0.2c-0.1,0-0.2,0.1-0.3,0.1c-1,0.3-1.8,1-2.3,1.8
				c-1.5,0.6-2.6,1.9-2.7,3.3c-0.1,0.6,0.1,1.2,0.4,1.8L1137.4,518.1z"/>
			<path class="st17" d="M1206.8,528.3c0.5-0.8,0.7-1.7,0.4-2.6c-0.1-0.2-0.2-0.5-0.3-0.7c-0.6-1.7-2.4-2.9-4.6-3.2
				c-0.4-0.2-0.8-0.3-1.3-0.5c-0.1-0.2-0.3-0.4-0.5-0.6c0.1-0.9,0.1-1.8-0.3-2.7c-0.4-1.1-1.1-1.9-2.3-2.5c-0.9-0.5-2.1-0.7-3.2-0.7
				c-0.3-0.3-0.5-0.5-0.9-0.7c-1-0.6-2.1-0.7-3.3-0.7c-0.2-0.1-0.1-0.1-0.2-0.2c-0.4-0.1-0.4-0.2-0.9-0.2c-0.2-0.1,0.3-0.2,0.3-0.3
				c0,0,0,0,0,0c0-0.3-1.7-0.7-2.2-0.9c-0.4-0.2-1.8-0.4-2.2-0.5c-0.4-0.1-0.7-0.2-1.1-0.2c-0.8-0.7-2-1.3-3.6-1.4
				c-2.7-0.2-4.4,1-5,2.5c-0.1,0-0.2,0-0.3,0c-1.7-0.1-3,0.3-3.9,1c-0.6-0.7-1.6-1.2-2.6-1.5c-0.8-0.2-1.6-0.3-2.5-0.2
				c-0.8-0.9-2.2-1.6-3.8-1.7c-0.9-0.1-1.4,0.1-2.2,0.3c-0.2-0.1-0.3-0.3-0.5-0.4c-0.2-0.2-0.5-0.4-0.7-0.5c0-0.4-0.1-0.7-0.3-1.1
				c0.1-0.2,0.2-0.3,0.3-0.5c0.1-0.2,0.2-0.5,0.3-0.7c0.5-1,0.2-2.2-0.3-3.1c-0.6-1-1.8-1.6-3-2c-0.8-0.3-1.8-0.3-2.7-0.1
				c-0.5-0.5-1-0.9-1.7-1.3c-1.1-0.7-2.7-0.8-4-0.6c-0.3,0-0.5,0.1-0.8,0.1c-1.4-0.6-3.1-0.6-4.6-0.1c-0.6-0.5-1.4-1-2.2-1.3
				l-1.2-0.5c-1.5-0.4-3-0.5-4.3,0c-0.7-0.3-1.5-1.1-2.3-1.2l-0.3,0c-2.6-0.2-4.7,1.8-5.3,3.6c-1.9-0.1-3.6,1.3-4.5,2.5
				c-2.1,0.1-3.5,1.2-4,2.5c-1.1,0-2,0.3-2.8,0.8c-2.2,0-4.2,1.4-4.7,3c0-0.3-0.1-0.5-0.1-0.8c-0.3-0.9-0.8-1.6-1.5-2.3
				c-0.5-0.6-1.4-0.9-2.2-1.1c0.3-0.7,0.3-1.4,0.1-2.1c-0.2-1-1.2-1.9-2.3-2.5c-1-0.5-2.4-0.8-3.6-0.7c-0.8-0.5-1.7-0.8-2.7-1
				c-0.4-0.4-1-0.8-1.6-1.2c-1.2-0.7-2.7-0.8-4-0.6c-0.1,0-0.1,0-0.2,0c-1.2-1.2-3.1-1.8-5.2-1.5c-1.9,0.2-3.5,1.5-4,3
				c-0.1,0-0.2,0-0.3,0c-1.1,0.3-1.7,0.4-2.5,0.9c-0.8,0.4-1.3,0.9-2,1.4c-0.9,0.8-0.9,2-0.7,3c-0.5,0.4-1,0.8-1.3,1.3
				c-0.5-0.1-1.1-0.2-1.6-0.1c-1.5-1.1-3.6-1.4-5.4-0.9c0-0.6-0.2-1.3-0.6-1.9c-0.5-0.9-1.8-1.7-3-2c-1.2-0.3-2.8-0.3-3.9,0.1
				c-0.1-0.8-0.5-1.6-1.2-2.2c-0.5-0.5-1.7-0.8-1.7-1l0-0.4c0.1-2.2-2.3-4.1-5.1-4.3c-2.3-0.2-4.4,1-5.2,2.5
				c-0.6,0.1-1.1,0.3-1.6,0.5c-0.3-0.1-0.7-0.2-1-0.3c-0.4-0.5-1-1-1.6-1.3c-0.6-0.3-1.3-0.5-1.9-0.6c-0.6-0.7-1.6-1.2-2.6-1.4
				c-1.4-0.4-2.8-0.2-4.1,0.2c-0.2,0.1-0.4,0.1-0.6,0.2c-1.2,0.4-2.1,1.3-2.6,2.3c-0.1,0.1-0.1,0.3-0.1,0.4
				c-0.4-0.1-0.9-0.1-1.3-0.1c-0.4-0.8-1.1-1.6-2-2c-0.2-0.1-0.4-0.2-0.6-0.3c-2.6-1.2-5.5-0.8-7.3,1c-0.3,0.4-0.6,0.8-0.7,1.3
				c-1.5-0.1-3,0.2-4.1,0.9c-0.2,0.1-0.4,0.3-0.6,0.4c-1.1,0.8-1.7,1.8-1.7,2.9c-0.8,0.2-1.5,0.6-2,1.2c-0.3,0.1-0.7,0.1-1,0.3
				c-0.5-0.1-0.9,0-1.4-0.1l-0.6,0c-0.1,0-0.1,0-0.2,0c-0.3-0.3-0.8-0.6-1.2-0.8c-0.1-0.6-0.3-1.2-0.6-1.8c-0.5-0.9-1.6-1.5-2.8-1.9
				c-0.1-0.2-0.1-0.4-0.2-0.5c-0.7-2-2.9-3.2-5.5-3.2c-0.8-0.9-2.1-1.6-3.6-1.9c-0.2-0.2-0.4-0.3-0.7-0.5c-0.2-0.1-0.4-0.2-0.6-0.3
				c-0.6-0.3-1.3-0.5-1.9-0.6c0,0,0,0,0,0c0,0-0.1,0-0.1,0c-0.3-0.1-0.6-0.1-0.9-0.1c-1.4-0.1-2.7,0.3-3.8,1c-0.6,0.4-1,0.9-1.3,1.4
				c-1.2-0.3-2.8-0.2-3.9,0.2c-1.3,0.5-2,1.3-2.6,2.3c-1,1.6-1.4,3.5-1.4,5.3c-0.1,0-0.2,0-0.3,0c-1.7-0.2-3.2,0.9-3.5,2.2
				c-0.7,0.2-1.3,0.6-1.7,1.1c-0.1,0.1-0.2,0.6-0.3,0.6l-0.5,0c-0.3,0-0.6-0.3-0.9-0.2c-0.3-0.2-0.7-0.6-1.1-0.8
				c-0.8-0.2-1.6-0.2-2.4-0.1c-0.5,0.1-0.9,0.2-1.3,0.4c-0.4-0.7-1.1-1.4-2.1-1.6c-0.6-0.2-1.2-0.3-1.8-0.5
				c-1.3-0.3-2.5-0.1-3.3,0.6c-0.9-0.3-2-0.4-2.9,0c-0.6,0.3-1.3,0.6-1.9,0.8c-0.9,0.4-1.4,1-1.6,1.7c-0.7-0.3-1.5-0.4-2.3-0.3
				l-1.5,0.2c-0.6,0.1-1.2,0.4-1.6,0.7c-1.4,0.2-2.4,1.2-2.5,2.3c0,0.1,0,0.1,0,0.2c-0.1,0-0.2,0.1-0.3,0.1c-1,0.3-1.8,1-2.3,1.8
				c-1.5,0.6-2.6,1.9-2.7,3.3c-0.1,0.6,0.1,1.2,0.4,1.8L1206.8,528.3z"/>
			<path class="st18" d="M1025.8,506c0.5-0.8,0.6-1.8,0.2-2.6c-0.1-0.2-0.2-0.5-0.3-0.7c-0.8-1.7-2.6-2.7-4.8-2.8
				c-0.4-0.2-0.9-0.3-1.3-0.3c-0.2-0.2-0.3-0.4-0.5-0.6c0.1-0.9,0-1.8-0.5-2.6c-0.5-1-1.2-1.8-2.5-2.3c-1-0.5-2.1-0.5-3.3-0.4
				c-0.3-0.2-0.6-0.5-1-0.6c-1-0.5-2.2-0.6-3.4-0.4c-0.2-0.1-0.1-0.1-0.3-0.1c-0.5-0.1-0.5-0.1-1-0.1c-0.2-0.1,0.3-0.3,0.3-0.4
				c0,0,0,0,0,0c0-0.3-1.8-0.5-2.2-0.7c-0.4-0.1-1.8-0.2-2.3-0.4c-0.4-0.1-0.7-0.1-1.1-0.1c-0.9-0.7-2.1-1.1-3.7-1.1
				c-2.7,0.1-4.3,1.4-4.8,2.9c-0.1,0-0.2,0-0.3,0c-1.7,0-3,0.6-3.8,1.4c-0.7-0.6-1.7-1.1-2.7-1.3c-0.8-0.2-1.7-0.1-2.5,0
				c-0.9-0.9-2.3-1.4-3.9-1.4c-0.9,0-1.4,0.2-2.1,0.5c-0.2-0.1-0.3-0.2-0.5-0.3c-0.2-0.2-0.5-0.3-0.8-0.5c-0.1-0.4-0.2-0.7-0.4-1.1
				c0.1-0.2,0.2-0.3,0.2-0.5c0.1-0.2,0.2-0.5,0.3-0.7c0.4-1,0.1-2.2-0.6-3.1c-0.7-0.9-1.9-1.5-3.2-1.8c-0.8-0.2-1.8-0.1-2.7,0.1
				c-0.5-0.5-1.1-0.8-1.8-1.2c-1.1-0.6-2.8-0.6-4.1-0.3c-0.3,0.1-0.5,0.1-0.7,0.2c-1.5-0.4-3.1-0.4-4.6,0.2
				c-0.7-0.5-1.5-0.9-2.3-1.1l-1.2-0.4c-1.6-0.3-3.1-0.3-4.2,0.4c-0.7-0.3-1.5-1-2.4-1l-0.3,0c-2.6,0.1-4.6,2.1-5,4
				c-1.9,0.1-3.5,1.6-4.3,2.8c-2.1,0.3-3.4,1.4-3.8,2.8c-1.1,0.1-2,0.5-2.8,1c-2.2,0.2-4,1.7-4.5,3.3c0-0.3-0.1-0.5-0.2-0.8
				c-0.3-0.9-1-1.5-1.7-2.2c-0.6-0.5-1.4-0.8-2.3-0.9c0.2-0.7,0.2-1.4-0.1-2.1c-0.3-1-1.3-1.8-2.5-2.3c-1-0.5-2.4-0.6-3.6-0.4
				c-0.8-0.4-1.8-0.7-2.8-0.7c-0.5-0.4-1-0.8-1.7-1.1c-1.2-0.6-2.7-0.6-4.1-0.3c-0.1,0-0.1,0-0.1,0c-1.3-1.1-3.2-1.5-5.3-1.1
				c-1.9,0.4-3.4,1.8-3.7,3.3c-0.1,0-0.2,0-0.3,0.1c-1,0.3-1.6,0.5-2.4,1.1c-0.8,0.5-1.3,1-1.8,1.6c-0.8,0.8-0.8,2.1-0.5,3
				c-0.5,0.4-0.9,0.9-1.2,1.4c-0.5-0.1-1.1-0.1-1.6,0c-1.6-1-3.7-1.1-5.5-0.5c-0.1-0.6-0.3-1.3-0.7-1.8c-0.6-0.9-1.9-1.5-3.2-1.8
				c-1.2-0.2-2.9-0.1-3.9,0.5c-0.2-0.8-0.6-1.5-1.4-2.1c-0.5-0.4-1.8-0.7-1.8-0.9l0-0.4c-0.1-2.3-2.6-3.9-5.4-3.9
				c-2.3,0-4.3,1.3-5,2.9c-0.6,0.1-1.1,0.4-1.5,0.6c-0.3-0.1-0.7-0.2-1-0.2c-0.5-0.5-1.1-0.9-1.7-1.2c-0.6-0.3-1.3-0.4-2-0.5
				c-0.7-0.6-1.7-1.1-2.7-1.2c-1.4-0.3-2.8,0-4,0.5c-0.2,0.1-0.4,0.2-0.6,0.2c-1.2,0.5-2,1.5-2.4,2.5c-0.1,0.1-0.1,0.3-0.1,0.4
				c-0.4,0-0.9-0.1-1.3,0c-0.5-0.7-1.3-1.5-2.2-1.8c-0.2-0.1-0.4-0.1-0.6-0.2c-2.6-1-5.6-0.3-7.2,1.6c-0.3,0.4-0.5,0.9-0.6,1.4
				c-1.5,0-3,0.4-4,1.2c-0.2,0.2-0.4,0.3-0.6,0.5c-1.1,0.9-1.5,2-1.4,3c-0.8,0.3-1.4,0.7-1.9,1.3c-0.3,0.2-0.7,0.2-1,0.4
				c-0.5-0.1-0.9,0-1.4,0l-0.6,0c-0.1,0-0.1,0-0.2,0c-0.4-0.3-0.8-0.5-1.2-0.7c-0.1-0.6-0.4-1.1-0.8-1.7c-0.6-0.9-1.8-1.4-2.9-1.7
				c-0.1-0.2-0.2-0.4-0.3-0.5c-0.9-1.9-3.1-3-5.7-2.8c-0.9-0.9-2.2-1.5-3.8-1.6c-0.3-0.2-0.4-0.3-0.7-0.4c-0.2-0.1-0.4-0.1-0.6-0.2
				c-0.6-0.2-1.3-0.4-1.9-0.4c0,0,0,0,0,0c0,0-0.1,0-0.1,0c-0.3,0-0.6-0.1-0.9-0.1c-1.4,0-2.7,0.5-3.7,1.3c-0.5,0.4-0.9,1-1.2,1.5
				c-1.2-0.2-2.8,0-3.8,0.5c-1.3,0.6-1.9,1.4-2.4,2.5c-0.8,1.7-1.1,3.6-1,5.4c-0.1,0-0.2,0-0.3,0c-1.7,0-3.1,1.2-3.3,2.4
				c-0.7,0.2-1.3,0.7-1.6,1.2c-0.1,0.1-0.2,0.7-0.2,0.7l-0.5,0c-0.3,0-0.7-0.2-1-0.1c-0.4-0.2-0.7-0.6-1.2-0.7
				c-0.8-0.2-1.6-0.1-2.4,0.1c-0.5,0.1-0.9,0.3-1.3,0.5c-0.4-0.7-1.2-1.3-2.2-1.4c-0.6-0.1-1.2-0.2-1.9-0.3
				c-1.3-0.2-2.5,0.1-3.3,0.9c-0.9-0.3-2.1-0.2-2.9,0.2c-0.6,0.3-1.2,0.7-1.8,1c-0.8,0.5-1.4,1.1-1.5,1.8c-0.7-0.2-1.5-0.3-2.3-0.1
				l-1.5,0.3c-0.6,0.1-1.1,0.4-1.5,0.8c-1.4,0.3-2.3,1.4-2.3,2.5c0,0.1,0,0.1,0,0.2c-0.1,0-0.2,0.1-0.3,0.1c-1,0.4-1.7,1.2-2.1,2
				c-1.5,0.8-2.4,2.1-2.5,3.5c0,0.6,0.2,1.2,0.6,1.7L1025.8,506z"/>
			<ellipse class="st19" cx="901.4" cy="723.6" rx="683.2" ry="220.5"/>
			
				<ellipse transform="matrix(5.355387e-02 -0.9986 0.9986 5.355387e-02 -147.1288 1335.1003)" class="st20" cx="630.7" cy="745.2" rx="169.1" ry="935.8"/>
			<g id="XMLID_1084_" class="st1">
				<path id="XMLID_1089_" class="st21" d="M845.4,325.2L845.4,325.2c0.1-0.3,0.1-0.5,0.1-0.6c0,0,0,0,0,0c-0.1,0-0.1,0-0.1,0
					c0-0.1,0-0.2,0.1-0.3c0,0,0,0,0,0c0,0,0,0,0,0c0,0-0.1,0-0.2,0c0-0.1,0.1-0.3,0.1-0.3c0.1,0-0.2,0-0.2,0c0-0.2,0.2-0.3,0.2-0.3
					s-0.2,0-0.2,0c0-0.1,0.2-0.3,0.2-0.3c0,0,0,0,0,0l0,0c0,0-0.1,0-0.2,0c0.1-0.1,0.1-0.2,0.2-0.3c0,0-0.1-0.1-0.2-0.1
					c0-0.1,0.2-0.2,0.3-0.3c0,0-0.1-0.1-0.2-0.1c0-0.1,0.1-0.2,0.2-0.3c0,0,0,0,0,0c0,0,0,0,0,0c0,0,0,0,0,0c0,0-0.1-0.1-0.2-0.1
					c0-0.1,0.2-0.2,0.3-0.2c0,0-0.1-0.1-0.2-0.1c0.1-0.1,0.2-0.1,0.3-0.2c0,0-0.1-0.1-0.2-0.1c0.1-0.1,0.2-0.1,0.3-0.1
					c0,0-0.1-0.1-0.1-0.1c0-0.1,0.2-0.1,0.3-0.1c0,0-0.1-0.1-0.1-0.1c0.1-0.1,0.2-0.1,0.3-0.2c0,0-0.1,0-0.1,0
					c0.1-0.2,0.3-0.1,0.4-0.2c0,0-0.1-0.1-0.1-0.1c0.1-0.1,0.2-0.1,0.4-0.1c0,0-0.1-0.1-0.1-0.1c0.1-0.1,0.3-0.1,0.5-0.1
					c0,0,0,0,0,0c0,0-0.1-0.2-0.1-0.2c0.1,0,0.4,0,0.5,0c0,0-0.1-0.1-0.1-0.2c0.2-0.1,0.3,0.1,0.5,0.1c0,0-0.1-0.2-0.1-0.2
					c0.2,0,0.4,0.2,0.6,0.2c0,0-0.1-0.2-0.1-0.2c0.2,0,0.3,0.1,0.5,0.1c0.3,0.1,0.9,0.1,1.2,0.1c0,0.4,0.1,0.9,0.2,1.2
					c0.1,0.2,0.1,0.3,0.2,0.5c-0.1,0-0.2-0.1-0.3-0.1c0,0.2,0.2,0.4,0.3,0.5c0,0-0.2,0-0.2-0.1c0,0.2,0.1,0.3,0.1,0.5
					c0,0-0.2,0-0.2-0.1c0,0.2,0.1,0.3,0.1,0.5c0,0-0.2-0.1-0.2-0.1c0,0,0,0,0,0c0,0.2,0.1,0.3,0,0.5c0,0-0.1,0-0.1-0.1
					c0,0.2,0,0.3,0,0.4c0,0-0.1-0.1-0.2-0.1c0,0.1,0,0.3-0.1,0.4c0,0-0.1-0.1-0.1-0.1c-0.1,0.1,0,0.2-0.1,0.3c0,0-0.1-0.1-0.1-0.1
					c0,0.1-0.1,0.2-0.1,0.3c0,0-0.1-0.1-0.1-0.1c-0.1,0.1,0,0.2-0.1,0.3c-0.1,0-0.1-0.1-0.1-0.1c-0.1,0.1-0.1,0.2-0.2,0.3
					c0,0-0.1-0.1-0.1-0.2c-0.1,0.1-0.1,0.2-0.2,0.3c0,0-0.1-0.1-0.1-0.1c0,0,0,0,0,0c0,0,0,0,0,0c0,0,0,0,0,0
					c-0.1,0.1-0.1,0.2-0.2,0.3c0,0-0.1-0.1-0.1-0.1c-0.1,0.1-0.1,0.2-0.3,0.3c0,0-0.1-0.1-0.1-0.2c0,0.1-0.1,0.2-0.3,0.3
					c0-0.1,0-0.1,0-0.2l0,0c0,0,0,0,0,0c0,0.1-0.2,0.2-0.3,0.3c0,0,0-0.2,0-0.2s-0.1,0.2-0.3,0.2c0,0,0-0.2-0.1-0.2
					c0,0-0.1,0.2-0.2,0.2c0,0-0.1-0.1-0.1-0.2c0,0,0,0,0,0c0,0,0,0,0,0c-0.1,0.1-0.2,0.1-0.3,0.1c0,0,0-0.1,0-0.2c0,0,0,0,0,0
					C845.8,325,845.7,325,845.4,325.2L845.4,325.2z M847.4,320.3L847.4,320.3c-0.1,0-0.2,0-0.3,0
					C847.3,320.3,847.3,320.3,847.4,320.3L847.4,320.3z M850,322.5L850,322.5c0,0.1,0,0.2,0,0.2C850,322.7,850,322.6,850,322.5z"/>
				<g id="XMLID_1085_" class="st22">
					<path id="XMLID_1086_" class="st23" d="M851,318.1c-0.4,0.9-1.1,1.9-1.8,2.8c0.3,0.7,0.5,1.4,0.3,2.1l0-0.1
						c0.1-0.8,0-1.3-0.3-2c-0.1,0.2-0.3,0.4-0.4,0.5c0.3,0.5,0.2,1.5,0.1,2.1c0,0.1,0,0.1-0.1,0.2c0-0.1,0.1-0.1,0.1-0.2
						c0.1-0.6,0.2-1.5-0.1-2c-0.1,0.2-0.3,0.4-0.4,0.5c0,0-0.1,0.1-0.1,0.1c0.1,0.6,0,1.4-0.2,2l0-0.1c0.1-0.6,0.2-1.3,0.1-1.9
						c-0.2,0.2-0.4,0.5-0.6,0.7c0,0.5,0,1.1-0.2,1.6c0.2-0.5,0.2-1,0.2-1.5c-0.2,0.2-0.4,0.4-0.6,0.6c0,0.4-0.1,0.8-0.2,1.1
						c0-0.1,0-0.1,0-0.1c0.1-0.3,0.1-0.6,0.2-0.9c-0.4,0.4-0.8,0.7-1.1,0.9l0.1-0.1c0.3-0.2,0.6-0.5,1-0.8c-0.3,0-0.6,0.1-0.9,0.2
						c-0.1,0-0.1,0-0.1,0c0.4-0.1,0.7-0.2,1.1-0.2c0.2-0.2,0.4-0.4,0.6-0.6c-0.5,0-1,0-1.5,0.1c0.4-0.2,1.1-0.2,1.6-0.2
						c0.2-0.2,0.4-0.5,0.6-0.7c-0.6-0.1-1.3,0.1-1.9,0.3l-0.1,0c0.6-0.2,1.4-0.4,2-0.3c0.1-0.2,0.2-0.3,0.4-0.5
						c0.1-0.1,0.1-0.1,0.2-0.2c-0.6-0.2-1.5,0-2.1,0.2c-0.1,0-0.1,0.1-0.2,0.1c0.1-0.1,0.1-0.1,0.2-0.1c0.5-0.2,1.5-0.4,2.1-0.2
						c0.1-0.2,0.3-0.4,0.4-0.5c-0.7-0.3-1.3-0.2-2,0l-0.1,0c0.7-0.3,1.4-0.3,2.1,0c0.7-0.9,1.3-2,1.7-2.8
						C850.9,318.1,851,318,851,318.1C851,318.1,851,318.1,851,318.1L851,318.1z M847.5,323C847.5,323,847.5,323,847.5,323L847.5,323
						z"/>
				</g>
			</g>
			<g id="XMLID_46_" class="st1">
				<path id="XMLID_51_" class="st24" d="M830.1,337.2L830.1,337.2c0.2-0.1,0.4-0.3,0.4-0.4c0,0,0,0,0,0c-0.1,0-0.1,0-0.1-0.1
					c0.1-0.1,0.2-0.1,0.3-0.2c0,0,0,0,0,0c0,0,0,0,0,0c0,0-0.1-0.1-0.1-0.1c0.1-0.1,0.3-0.1,0.3-0.1c0.1,0-0.1-0.1-0.1-0.1
					c0.1-0.1,0.4-0.1,0.4-0.1s-0.1-0.1-0.1-0.1c0.1-0.1,0.3-0.1,0.4-0.1c0,0,0,0,0,0l0,0c0,0-0.1-0.1-0.1-0.1
					c0.1-0.1,0.2-0.1,0.4-0.1c0,0-0.1-0.1-0.1-0.2c0.1-0.1,0.3-0.1,0.4-0.1c0,0,0-0.1-0.1-0.2c0.1-0.1,0.2-0.1,0.3,0c0,0,0,0,0,0
					c0,0,0,0,0,0c0,0,0,0,0,0c0-0.1,0-0.1-0.1-0.2c0.1-0.1,0.2,0,0.4,0c0,0,0-0.1-0.1-0.2c0.1,0,0.2,0,0.4,0c0,0-0.1-0.1-0.1-0.2
					c0.1,0,0.2,0.1,0.3,0.1c0,0,0-0.1,0-0.2c0.1,0,0.2,0,0.3,0.1c0,0,0-0.1,0-0.2c0.1-0.1,0.2,0.1,0.3,0.1c0,0,0-0.1-0.1-0.1
					c0.2-0.1,0.3,0.1,0.4,0.1c0,0,0-0.2,0-0.2c0.2,0,0.2,0.1,0.4,0.2c0,0,0-0.1,0-0.2c0.2,0,0.3,0.1,0.4,0.2c0,0,0,0,0,0
					c0,0,0-0.2,0-0.2c0.1,0.1,0.2,0.3,0.4,0.3c0,0,0-0.2,0-0.2c0.2,0.1,0.2,0.2,0.3,0.3c0,0,0.1-0.2,0-0.2c0.1,0.1,0.2,0.4,0.3,0.5
					c0-0.1,0-0.2,0.1-0.3c0.1,0.1,0.2,0.3,0.3,0.4c0.2,0.3,0.6,0.6,0.9,0.8c-0.2,0.3-0.5,0.8-0.6,1.1c0,0.2-0.1,0.3-0.2,0.5
					c-0.1,0-0.1-0.2-0.1-0.2c-0.1,0.2-0.1,0.4-0.2,0.6c0,0-0.1-0.1-0.1-0.2c-0.1,0.1-0.1,0.3-0.2,0.4c0,0-0.1-0.1-0.1-0.2
					c-0.1,0.1-0.1,0.3-0.3,0.4c0,0-0.1-0.2-0.1-0.2c0,0,0,0,0,0c-0.1,0.1-0.2,0.3-0.3,0.3c0-0.1-0.1-0.1,0-0.2
					c-0.1,0.1-0.1,0.2-0.3,0.3c0,0,0-0.2,0-0.2c-0.1,0.1-0.1,0.2-0.4,0.2c0,0,0-0.1,0-0.1c-0.1,0-0.2,0.2-0.3,0.2c0,0,0-0.1,0-0.2
					c-0.1,0.1-0.2,0.1-0.3,0.1c0-0.1,0-0.1,0-0.2c-0.1,0-0.1,0.1-0.3,0.2c0-0.1,0-0.2,0-0.2c-0.1,0-0.2,0.1-0.3,0.1c0,0,0-0.1,0-0.2
					c-0.1,0.1-0.2,0.1-0.4,0.1c0,0,0-0.1,0-0.2c0,0,0,0,0,0c0,0,0,0,0,0c0,0,0,0,0,0c-0.1,0-0.2,0.1-0.3,0.1c0,0,0-0.1,0-0.2
					c-0.1,0.1-0.3,0.1-0.4,0.1c0,0,0-0.1,0-0.2c-0.1,0.1-0.2,0.1-0.4,0c0,0,0.1-0.1,0.1-0.1l0,0c0,0,0,0,0,0c-0.1,0-0.3,0.1-0.4,0
					c0,0,0.1-0.1,0.1-0.1s-0.2,0.1-0.4,0c0,0,0.1-0.2,0.1-0.2c0,0-0.2,0-0.3,0c0,0,0-0.1,0.1-0.2l0,0c0,0,0,0,0,0
					c-0.1,0-0.2,0-0.3-0.1c0,0,0.1-0.1,0.1-0.1c0,0,0,0,0,0C830.6,337.4,830.4,337.3,830.1,337.2L830.1,337.2z M834.9,334.8
					L834.9,334.8c-0.1-0.1-0.2-0.1-0.2-0.2C834.7,334.7,834.8,334.7,834.9,334.8L834.9,334.8z M835.4,338.1L835.4,338.1
					c-0.1,0.1-0.1,0.2-0.1,0.2C835.3,338.3,835.3,338.2,835.4,338.1z"/>
				<g id="XMLID_47_" class="st22">
					<path id="XMLID_48_" class="st23" d="M839,335.5c-0.8,0.4-2.1,0.8-3.2,1c-0.2,0.7-0.5,1.4-1.2,1.8l0,0c0.6-0.5,0.9-1,1.1-1.7
						c-0.2,0.1-0.4,0.1-0.7,0.1c-0.2,0.6-0.8,1.3-1.3,1.6c-0.1,0.1-0.1,0.1-0.2,0.1c0.1,0,0.1-0.1,0.2-0.1c0.5-0.3,1.1-1,1.3-1.6
						c-0.2,0-0.5,0.1-0.7,0.1c0,0-0.1,0-0.1,0c-0.3,0.5-0.9,1.1-1.4,1.4l0.1,0c0.5-0.4,1-0.8,1.3-1.4c-0.3,0-0.6,0.1-0.9,0.1
						c-0.3,0.4-0.7,0.9-1.2,1.1c0.5-0.3,0.8-0.6,1.1-1.1c-0.3,0-0.5,0.1-0.8,0.1c-0.3,0.3-0.6,0.5-0.9,0.7c0.1-0.1,0,0,0.1-0.1
						c0.3-0.2,0.5-0.4,0.7-0.6c-0.5,0-1,0-1.4,0l0.1,0c0.4,0,0.8,0,1.3,0c-0.3-0.2-0.5-0.3-0.8-0.5c-0.1,0,0,0-0.1-0.1
						c0.3,0.1,0.7,0.3,1,0.5c0.3,0,0.6-0.1,0.8-0.1c-0.4-0.4-0.8-0.7-1.3-0.9c0.5,0.1,1,0.5,1.3,0.9c0.3,0,0.6-0.1,0.9-0.2
						c-0.4-0.5-1-0.7-1.6-1l-0.1,0c0.6,0.2,1.3,0.6,1.7,1c0.2,0,0.4-0.1,0.6-0.1c0.1,0,0.2,0,0.3-0.1c-0.3-0.5-1.1-1-1.7-1.2
						c-0.1,0-0.1,0-0.2-0.1c0.1,0,0.1,0,0.2,0c0.6,0.2,1.4,0.7,1.7,1.2c0.2,0,0.4-0.1,0.7-0.2c-0.4-0.7-0.8-1-1.5-1.3l-0.1,0
						c0.7,0.2,1.3,0.7,1.6,1.4c1.1-0.3,2.3-0.6,3.1-1C839,335.4,839,335.4,839,335.5C839,335.4,839,335.5,839,335.5L839,335.5z
						 M833.1,336.9C833.2,336.9,833.2,336.9,833.1,336.9L833.1,336.9z"/>
				</g>
			</g>
			<g id="XMLID_10_" class="st1">
				<path id="XMLID_15_" class="st25" d="M946.5,444.7L946.5,444.7c0.1-0.3,0.1-0.5,0.1-0.6c0,0,0,0,0,0c-0.1,0-0.1,0-0.2,0.1
					c0-0.1,0-0.2,0.1-0.3c0,0,0,0,0,0c0,0,0,0,0,0c0,0-0.1,0-0.2,0c0-0.1,0.1-0.3,0.1-0.3c0.1,0-0.2,0-0.2,0c0-0.2,0.2-0.4,0.2-0.4
					s-0.2,0-0.2,0c0-0.1,0.2-0.3,0.2-0.3c0,0,0,0,0,0l0,0c0,0-0.1,0-0.2,0c0.1-0.1,0.1-0.2,0.2-0.3c0,0-0.1-0.1-0.2-0.1
					c0-0.2,0.2-0.2,0.3-0.3c0,0-0.1-0.1-0.2-0.1c0-0.1,0.1-0.2,0.2-0.3c0,0,0,0,0,0c0,0,0,0,0,0c0,0,0,0,0,0c-0.1,0-0.1-0.1-0.2-0.1
					c0-0.1,0.2-0.2,0.3-0.3c0,0-0.1-0.1-0.2-0.1c0.1-0.1,0.2-0.1,0.3-0.2c0,0-0.1-0.1-0.2-0.1c0.1-0.1,0.2-0.1,0.3-0.2
					c0,0-0.1-0.1-0.2-0.1c0-0.1,0.2-0.1,0.3-0.2c0,0-0.1-0.1-0.1-0.1c0.1-0.1,0.2-0.1,0.3-0.2c0,0-0.1,0-0.1-0.1
					c0.1-0.2,0.3-0.2,0.4-0.2c0,0-0.1-0.1-0.2-0.1c0.1-0.1,0.2-0.1,0.4-0.1c0,0-0.1-0.1-0.1-0.1c0.1-0.1,0.3-0.1,0.5-0.1
					c0,0,0,0,0,0c0,0-0.1-0.2-0.1-0.2c0.2-0.1,0.4,0,0.5,0c0,0-0.1-0.1-0.1-0.2c0.2-0.1,0.3,0.1,0.5,0.1c0,0-0.1-0.2-0.1-0.2
					c0.2,0,0.4,0.2,0.6,0.2c0-0.1-0.1-0.2-0.1-0.3c0.2,0,0.4,0.1,0.5,0.1c0.3,0.1,0.9,0.1,1.3,0.1c0,0.4,0.1,1,0.2,1.3
					c0.1,0.2,0.2,0.3,0.2,0.5c-0.1,0-0.2-0.1-0.3-0.1c0.1,0.2,0.2,0.4,0.3,0.6c0,0-0.2,0-0.2-0.1c0,0.2,0.2,0.3,0.1,0.5
					c0,0-0.2,0-0.2-0.1c0,0.2,0.1,0.4,0.1,0.5c0,0-0.2-0.1-0.2-0.1c0,0,0,0,0,0c0,0.2,0.1,0.4,0,0.5c0-0.1-0.1,0-0.1-0.1
					c0,0.2,0,0.3,0,0.4c0,0-0.2-0.1-0.2-0.1c0,0.2,0,0.3-0.1,0.4c0,0-0.1-0.1-0.1-0.1c-0.1,0.1,0,0.2-0.1,0.3c0,0-0.1-0.1-0.1-0.1
					c0,0.1-0.1,0.2-0.1,0.3c0-0.1-0.1-0.1-0.1-0.1c-0.1,0.1,0,0.2-0.1,0.3c-0.1,0-0.1-0.1-0.1-0.2c-0.1,0.1-0.1,0.2-0.2,0.3
					c0,0-0.1-0.1-0.1-0.2c-0.1,0.1-0.1,0.3-0.2,0.3c0,0-0.1-0.1-0.1-0.2c0,0,0,0,0-0.1c0,0,0,0,0,0c0,0,0,0,0,0
					c-0.1,0.1-0.1,0.2-0.2,0.3c0,0-0.1-0.1-0.1-0.2c-0.1,0.1-0.1,0.3-0.3,0.3c0,0-0.1-0.1-0.1-0.2c-0.1,0.2-0.1,0.2-0.3,0.3
					c0-0.1,0-0.2,0-0.2l0,0c0,0,0,0,0,0c0,0.1-0.2,0.2-0.3,0.3c0,0,0-0.2,0-0.2s-0.2,0.2-0.3,0.2c0,0,0-0.3-0.1-0.2
					c0,0-0.1,0.2-0.3,0.2c0,0-0.1-0.1-0.1-0.2l0,0c0,0,0,0,0,0c-0.1,0.1-0.2,0.1-0.3,0.1c0,0,0-0.1,0-0.2c0,0,0,0,0,0
					C946.9,444.5,946.7,444.5,946.5,444.7L946.5,444.7z M948.6,439.5L948.6,439.5c-0.1,0-0.2,0-0.3,0
					C948.4,439.5,948.5,439.5,948.6,439.5L948.6,439.5z M951.3,441.8L951.3,441.8c0,0.1,0,0.2,0,0.3
					C951.4,442.1,951.4,442,951.3,441.8z"/>
				<g id="XMLID_11_" class="st22">
					<path id="XMLID_12_" class="st23" d="M952.4,437.2c-0.4,0.9-1.1,2-1.9,3c0.4,0.7,0.5,1.5,0.3,2.2l0-0.1
						c0.1-0.8,0.1-1.4-0.3-2.1c-0.1,0.2-0.3,0.4-0.4,0.6c0.3,0.6,0.2,1.6,0.1,2.2c0,0.1,0,0.1-0.1,0.2c0-0.1,0.1-0.1,0.1-0.2
						c0.1-0.6,0.2-1.6-0.1-2.2c-0.2,0.2-0.3,0.4-0.4,0.6c0,0-0.1,0.1-0.1,0.1c0.1,0.6,0,1.5-0.2,2.1l0-0.1c0.1-0.7,0.3-1.3,0.1-2
						c-0.2,0.2-0.4,0.5-0.7,0.8c0,0.5,0,1.2-0.3,1.7c0.2-0.5,0.2-1.1,0.2-1.6c-0.2,0.2-0.4,0.4-0.6,0.6c0,0.4-0.1,0.8-0.3,1.2
						c0-0.1,0-0.1,0-0.2c0.1-0.4,0.1-0.6,0.2-1c-0.4,0.4-0.8,0.7-1.2,0.9l0.1-0.1c0.4-0.3,0.7-0.6,1-0.9c-0.4,0-0.6,0.1-1,0.2
						c-0.1,0-0.1,0-0.2,0c0.4-0.1,0.8-0.2,1.2-0.3c0.2-0.2,0.4-0.4,0.6-0.6c-0.6,0-1.1,0-1.6,0.1c0.5-0.2,1.2-0.2,1.7-0.2
						c0.2-0.3,0.4-0.5,0.7-0.8c-0.7-0.1-1.3,0.1-2,0.3l-0.1,0c0.6-0.2,1.5-0.4,2.1-0.3c0.1-0.2,0.3-0.3,0.4-0.5
						c0.1-0.1,0.1-0.2,0.2-0.2c-0.6-0.2-1.6,0-2.2,0.2c-0.1,0-0.1,0.1-0.2,0.1c0.1-0.1,0.1-0.1,0.2-0.1c0.6-0.3,1.6-0.4,2.2-0.2
						c0.1-0.2,0.3-0.4,0.4-0.6c-0.8-0.3-1.4-0.3-2.2,0l-0.1,0c0.7-0.3,1.5-0.3,2.3,0c0.7-1,1.4-2.1,1.8-3
						C952.3,437.1,952.4,437.1,952.4,437.2C952.4,437.1,952.5,437.2,952.4,437.2L952.4,437.2z M948.7,442.4
						C948.7,442.4,948.7,442.4,948.7,442.4L948.7,442.4z"/>
				</g>
			</g>
			<g id="XMLID_19_" class="st1">
				<path id="XMLID_24_" class="st25" d="M1104.3,426.8L1104.3,426.8c0.1-0.3,0.1-0.5,0.1-0.6l0,0c-0.1,0-0.1,0-0.2,0.1
					c0-0.1,0-0.2,0.1-0.3c0,0,0,0,0,0c0,0,0,0,0,0c0,0-0.1,0-0.2,0c0-0.1,0.1-0.3,0.1-0.3c0.1,0-0.2,0-0.2,0c0-0.2,0.2-0.4,0.2-0.4
					s-0.2,0-0.2,0c0-0.1,0.2-0.3,0.2-0.3c0,0,0,0,0,0l0,0c0,0-0.1,0-0.2,0c0.1-0.1,0.1-0.2,0.2-0.3c0,0-0.1-0.1-0.2-0.1
					c0-0.2,0.2-0.2,0.3-0.3c0,0-0.1-0.1-0.2-0.1c0-0.1,0.1-0.2,0.2-0.3c0,0,0,0,0,0c0,0,0,0,0,0c0,0,0,0,0,0c-0.1,0-0.1-0.1-0.2-0.1
					c0-0.1,0.2-0.2,0.3-0.3c0,0-0.1-0.1-0.2-0.1c0.1-0.1,0.2-0.1,0.3-0.2c0,0-0.1-0.1-0.2-0.1c0.1-0.1,0.2-0.1,0.3-0.2
					c0,0-0.1-0.1-0.2-0.1c0-0.1,0.2-0.1,0.3-0.2c0,0-0.1-0.1-0.1-0.1c0.1-0.1,0.2-0.1,0.3-0.2c0,0-0.1,0-0.1-0.1
					c0.1-0.2,0.3-0.2,0.4-0.2c0,0-0.1-0.1-0.2-0.1c0.1-0.1,0.2-0.1,0.4-0.1c0,0-0.1-0.1-0.1-0.1c0.1-0.1,0.3-0.1,0.5-0.1
					c0,0,0,0,0,0c0,0-0.1-0.2-0.1-0.2c0.2-0.1,0.4,0,0.5,0c0,0-0.1-0.1-0.1-0.2c0.2-0.1,0.3,0.1,0.5,0.1c0,0-0.1-0.2-0.1-0.2
					c0.2,0,0.4,0.2,0.6,0.2c0,0-0.1-0.2-0.1-0.3c0.2,0,0.4,0.1,0.5,0.1c0.3,0.1,0.9,0.1,1.3,0.1c0,0.4,0.1,1,0.2,1.3
					c0.1,0.2,0.2,0.3,0.2,0.5c-0.1,0-0.2-0.1-0.3-0.1c0.1,0.2,0.2,0.4,0.3,0.6c0,0-0.2,0-0.2-0.1c0,0.2,0.2,0.3,0.1,0.5
					c0,0-0.2,0-0.2-0.1c0,0.2,0.1,0.4,0.1,0.5c0,0-0.2-0.1-0.2-0.1c0,0,0,0,0,0c0,0.2,0.1,0.4,0,0.5c0-0.1-0.1,0-0.1-0.1
					c0,0.2,0,0.3,0,0.4c0,0-0.2-0.1-0.2-0.1c0,0.1,0,0.3-0.1,0.4c0,0-0.1-0.1-0.1-0.1c-0.1,0.1,0,0.2-0.1,0.3c0,0-0.1-0.1-0.1-0.1
					c0,0.1-0.1,0.2-0.1,0.3c0-0.1-0.1-0.1-0.1-0.1c-0.1,0.1,0,0.2-0.1,0.3c-0.1,0-0.1-0.1-0.1-0.2c-0.1,0.1-0.1,0.2-0.2,0.3
					c0,0-0.1-0.1-0.1-0.2c-0.1,0.1-0.1,0.3-0.2,0.3c0,0-0.1-0.1-0.1-0.2c0,0,0,0,0-0.1c0,0,0,0,0,0c0,0,0,0,0,0
					c-0.1,0.1-0.1,0.2-0.2,0.3c0,0-0.1-0.1-0.1-0.2c-0.1,0.1-0.1,0.3-0.3,0.3c0,0-0.1-0.1-0.1-0.2c-0.1,0.2-0.1,0.2-0.3,0.3
					c0-0.1,0-0.2,0-0.2l0,0c0,0,0,0,0,0c0,0.1-0.2,0.2-0.3,0.3c0,0,0-0.2,0-0.2s-0.2,0.2-0.3,0.2c0,0,0-0.3-0.1-0.2
					c0,0-0.1,0.2-0.3,0.2c0,0-0.1-0.1-0.1-0.2c0,0,0,0,0,0c0,0,0,0,0,0c-0.1,0.1-0.2,0.1-0.3,0.1c0,0,0-0.1,0-0.2c0,0,0,0,0,0
					C1104.8,426.7,1104.6,426.7,1104.3,426.8L1104.3,426.8z M1106.5,421.6L1106.5,421.6c-0.1,0-0.2,0-0.3,0
					C1106.3,421.6,1106.4,421.6,1106.5,421.6L1106.5,421.6z M1109.2,424L1109.2,424c0,0.1,0,0.2,0,0.3
					C1109.2,424.2,1109.2,424.1,1109.2,424z"/>
				<g id="XMLID_20_" class="st22">
					<path id="XMLID_21_" class="st23" d="M1110.3,419.4c-0.4,0.9-1.1,2-1.9,3c0.4,0.7,0.5,1.5,0.3,2.2l0-0.1
						c0.1-0.8,0.1-1.4-0.3-2.1c-0.1,0.2-0.3,0.4-0.4,0.6c0.3,0.6,0.2,1.6,0.1,2.2c0,0.1,0,0.1-0.1,0.2c0-0.1,0.1-0.2,0.1-0.2
						c0.1-0.6,0.2-1.6-0.1-2.2c-0.2,0.2-0.3,0.4-0.4,0.6c0,0-0.1,0.1-0.1,0.1c0.1,0.6,0,1.5-0.2,2.1l0-0.1c0.1-0.7,0.3-1.3,0.1-2
						c-0.2,0.2-0.4,0.5-0.7,0.8c0,0.5,0,1.2-0.3,1.7c0.2-0.5,0.2-1.1,0.2-1.6c-0.2,0.2-0.4,0.4-0.6,0.6c0,0.4-0.1,0.8-0.3,1.2
						c0-0.1,0-0.1,0-0.2c0.1-0.4,0.1-0.6,0.2-1c-0.4,0.4-0.8,0.7-1.2,0.9l0.1-0.1c0.4-0.3,0.7-0.6,1-0.9c-0.4,0-0.6,0.1-1,0.2
						c-0.1,0-0.1,0-0.2,0c0.4-0.1,0.8-0.2,1.2-0.3c0.2-0.2,0.4-0.4,0.6-0.6c-0.6,0-1.1,0-1.6,0.1c0.5-0.2,1.2-0.2,1.7-0.2
						c0.2-0.3,0.4-0.5,0.7-0.8c-0.7-0.1-1.3,0.1-2,0.3l-0.1,0c0.6-0.2,1.5-0.4,2.1-0.3c0.1-0.2,0.3-0.3,0.4-0.5
						c0.1-0.1,0.1-0.2,0.2-0.2c-0.6-0.2-1.6,0-2.2,0.2c-0.1,0-0.1,0.1-0.2,0.1c0.1-0.1,0.1-0.1,0.2-0.1c0.6-0.3,1.6-0.4,2.2-0.2
						c0.1-0.2,0.3-0.4,0.4-0.6c-0.8-0.3-1.4-0.3-2.2,0l-0.1,0c0.7-0.3,1.5-0.3,2.3,0c0.7-1,1.4-2.1,1.8-3
						C1110.2,419.3,1110.2,419.3,1110.3,419.4C1110.3,419.3,1110.3,419.3,1110.3,419.4L1110.3,419.4z M1106.6,424.5
						C1106.6,424.5,1106.6,424.5,1106.6,424.5L1106.6,424.5z"/>
				</g>
			</g>
			<g id="XMLID_28_" class="st1">
				<path id="XMLID_33_" class="st24" d="M1033.4,458L1033.4,458c0.1-0.3,0.1-0.5,0.1-0.6c0,0,0,0,0,0c-0.1,0-0.1,0-0.2,0.1
					c0-0.1,0-0.2,0.1-0.3c0,0,0,0,0,0l0,0c0,0-0.1,0-0.2,0c0-0.1,0.1-0.3,0.1-0.3c0.1,0-0.2,0-0.2,0c0-0.2,0.2-0.4,0.2-0.4
					s-0.2,0-0.2,0c0-0.1,0.2-0.3,0.2-0.3c0,0,0,0,0,0l0,0c0,0-0.1,0-0.2,0c0.1-0.1,0.1-0.2,0.2-0.3c0,0-0.1-0.1-0.2-0.1
					c0-0.2,0.2-0.2,0.3-0.3c0,0-0.1-0.1-0.2-0.1c0-0.1,0.1-0.2,0.2-0.3c0,0,0,0,0,0c0,0,0,0,0,0c0,0,0,0,0,0c-0.1,0-0.1-0.1-0.2-0.1
					c0-0.1,0.2-0.2,0.3-0.3c0,0-0.1-0.1-0.2-0.1c0.1-0.1,0.2-0.1,0.3-0.2c0,0-0.1-0.1-0.2-0.1c0.1-0.1,0.2-0.1,0.3-0.2
					c0,0-0.1-0.1-0.2-0.1c0-0.1,0.2-0.1,0.3-0.2c0,0-0.1-0.1-0.1-0.1c0.1-0.1,0.2-0.1,0.3-0.2c0,0-0.1,0-0.1-0.1
					c0.1-0.2,0.3-0.2,0.4-0.2c0,0-0.1-0.1-0.2-0.1c0.1-0.1,0.2-0.1,0.4-0.1c0,0-0.1-0.1-0.1-0.1c0.1-0.1,0.3-0.1,0.5-0.1
					c0,0,0,0,0,0c0,0-0.1-0.2-0.1-0.2c0.2-0.1,0.4,0,0.5,0c0,0-0.1-0.1-0.1-0.2c0.2-0.1,0.3,0.1,0.5,0.1c0,0-0.1-0.2-0.1-0.2
					c0.2,0,0.4,0.2,0.6,0.2c0,0-0.1-0.2-0.1-0.3c0.2,0,0.4,0.1,0.5,0.1c0.3,0.1,0.9,0.1,1.3,0.1c0,0.4,0.1,1,0.2,1.3
					c0.1,0.2,0.2,0.3,0.2,0.5c-0.1,0-0.2-0.1-0.3-0.1c0.1,0.2,0.2,0.4,0.3,0.6c0,0-0.2,0-0.2-0.1c0,0.2,0.2,0.3,0.1,0.5
					c0,0-0.2,0-0.2-0.1c0,0.2,0.1,0.4,0.1,0.5c0,0-0.2-0.1-0.2-0.1c0,0,0,0,0,0c0,0.2,0.1,0.4,0,0.5c0-0.1-0.1,0-0.1-0.1
					c0,0.2,0,0.3,0,0.4c0,0-0.2-0.1-0.2-0.1c0,0.2,0,0.3-0.1,0.4c0,0-0.1-0.1-0.1-0.1c-0.1,0.1,0,0.2-0.1,0.3c0,0-0.1-0.1-0.1-0.1
					c0,0.1-0.1,0.2-0.1,0.3c0-0.1-0.1-0.1-0.1-0.1c-0.1,0.1,0,0.2-0.1,0.3c-0.1,0-0.1-0.1-0.1-0.2c-0.1,0.1-0.1,0.2-0.2,0.3
					c0,0-0.1-0.1-0.1-0.2c-0.1,0.1-0.1,0.3-0.2,0.3c0,0-0.1-0.1-0.1-0.2c0,0,0,0,0-0.1c0,0,0,0,0,0c0,0,0,0,0,0
					c-0.1,0.1-0.1,0.2-0.2,0.3c0,0-0.1-0.1-0.1-0.2c-0.1,0.1-0.1,0.3-0.3,0.3c0,0-0.1-0.1-0.1-0.2c-0.1,0.2-0.1,0.2-0.3,0.3
					c0-0.1,0-0.2,0-0.2l0,0c0,0,0,0,0,0c0,0.1-0.2,0.2-0.3,0.3c0,0,0-0.2,0-0.2s-0.2,0.2-0.3,0.2c0,0,0-0.3-0.1-0.2
					c0,0-0.1,0.2-0.3,0.2c0,0-0.1-0.1-0.1-0.2l0,0c0,0,0,0,0,0c-0.1,0.1-0.2,0.1-0.3,0.1c0,0,0-0.1,0-0.2c0,0,0,0,0,0
					C1033.9,457.9,1033.7,457.9,1033.4,458L1033.4,458z M1035.6,452.8L1035.6,452.8c-0.1,0-0.2,0-0.3,0
					C1035.4,452.8,1035.4,452.8,1035.6,452.8L1035.6,452.8z M1038.3,455.2L1038.3,455.2c0,0.1,0,0.2,0,0.3
					C1038.3,455.4,1038.3,455.3,1038.3,455.2z"/>
				<g id="XMLID_29_" class="st22">
					<path id="XMLID_30_" class="st23" d="M1039.4,450.5c-0.4,0.9-1.1,2-1.9,3c0.4,0.7,0.5,1.5,0.3,2.2l0-0.1
						c0.1-0.8,0.1-1.4-0.3-2.1c-0.1,0.2-0.3,0.4-0.4,0.6c0.3,0.6,0.2,1.6,0.1,2.2c0,0.1,0,0.1-0.1,0.2c0-0.1,0.1-0.2,0.1-0.2
						c0.1-0.6,0.2-1.6-0.1-2.2c-0.2,0.2-0.3,0.4-0.4,0.6c0,0-0.1,0.1-0.1,0.1c0.1,0.6,0,1.5-0.2,2.1l0-0.1c0.1-0.7,0.3-1.3,0.1-2
						c-0.2,0.2-0.4,0.5-0.7,0.8c0,0.5,0,1.2-0.3,1.7c0.2-0.5,0.2-1.1,0.2-1.6c-0.2,0.2-0.4,0.4-0.6,0.6c0,0.4-0.1,0.8-0.3,1.2
						c0-0.1,0-0.1,0-0.2c0.1-0.4,0.1-0.6,0.2-1c-0.4,0.4-0.8,0.7-1.2,0.9l0.1-0.1c0.4-0.3,0.7-0.6,1-0.9c-0.4,0-0.6,0.1-1,0.2
						c-0.1,0-0.1,0-0.2,0c0.4-0.1,0.8-0.2,1.2-0.3c0.2-0.2,0.4-0.4,0.6-0.6c-0.6,0-1.1,0-1.6,0.1c0.5-0.2,1.2-0.2,1.7-0.2
						c0.2-0.3,0.4-0.5,0.7-0.8c-0.7-0.1-1.3,0.1-2,0.3l-0.1,0c0.6-0.2,1.5-0.4,2.1-0.3c0.1-0.2,0.3-0.3,0.4-0.5
						c0.1-0.1,0.1-0.2,0.2-0.2c-0.6-0.2-1.6,0-2.2,0.2c-0.1,0-0.1,0.1-0.2,0.1c0.1-0.1,0.1-0.1,0.2-0.1c0.6-0.3,1.6-0.4,2.2-0.2
						c0.1-0.2,0.3-0.4,0.4-0.6c-0.8-0.3-1.4-0.3-2.2,0l-0.1,0c0.7-0.3,1.5-0.3,2.3,0c0.7-1,1.4-2.1,1.8-3
						C1039.3,450.5,1039.3,450.5,1039.4,450.5C1039.4,450.5,1039.4,450.5,1039.4,450.5L1039.4,450.5z M1035.6,455.7
						C1035.7,455.7,1035.7,455.7,1035.6,455.7L1035.6,455.7z"/>
				</g>
			</g>
			<g id="XMLID_37_" class="st1">
				<path id="XMLID_42_" class="st26" d="M1124.9,397.2L1124.9,397.2c-0.3-0.1-0.5-0.1-0.6-0.1c0,0,0,0,0,0c0,0.1,0,0.1,0,0.2
					c-0.1,0-0.2-0.1-0.3-0.1c0,0,0,0,0,0c0,0,0,0,0,0c0,0-0.1,0.1,0,0.2c-0.1,0-0.3-0.2-0.3-0.2c0-0.1,0,0.2-0.1,0.2
					c-0.2,0-0.3-0.2-0.3-0.2s0,0.2,0,0.2c-0.1,0-0.3-0.2-0.3-0.3c0,0,0,0,0,0l0,0c0,0,0,0.1,0,0.2c-0.1-0.1-0.2-0.1-0.3-0.3
					c0,0-0.1,0.1-0.1,0.2c-0.1-0.1-0.2-0.2-0.3-0.3c0,0-0.1,0.1-0.1,0.2c-0.1-0.1-0.2-0.2-0.2-0.3c0,0,0,0,0,0c0,0,0,0,0,0
					c0,0,0,0,0,0.1c0,0-0.1,0.1-0.1,0.2c-0.1-0.1-0.2-0.2-0.2-0.3c0,0-0.1,0.1-0.1,0.2c-0.1-0.1-0.1-0.2-0.2-0.3
					c0,0-0.1,0.1-0.1,0.2c-0.1-0.1-0.1-0.2-0.1-0.3c0,0-0.1,0.1-0.1,0.1c-0.1-0.1-0.1-0.2-0.1-0.3c0,0-0.1,0.1-0.1,0.1
					c-0.1-0.1-0.1-0.3-0.2-0.3c0,0,0,0.1-0.1,0.1c-0.2-0.2-0.1-0.3-0.2-0.4c0,0-0.2,0.1-0.2,0.1c-0.1-0.1-0.1-0.3-0.1-0.4
					c0,0-0.1,0-0.1,0.1c-0.1-0.1,0-0.3-0.1-0.5c0,0,0,0,0,0c0,0-0.2,0.1-0.2,0.1c0-0.2,0.1-0.4,0.1-0.5c0,0-0.2,0.1-0.2,0.1
					c0-0.2,0.1-0.3,0.1-0.5c0,0-0.2,0-0.2,0.1c0-0.2,0.2-0.4,0.2-0.6c-0.1,0-0.2,0.1-0.3,0.1c0-0.2,0.1-0.3,0.2-0.5
					c0.1-0.3,0.2-0.9,0.2-1.3c0.4,0,1,0,1.3-0.1c0.2-0.1,0.4-0.1,0.5-0.2c0,0.1-0.1,0.2-0.1,0.3c0.2,0,0.4-0.2,0.6-0.2
					c0,0-0.1,0.2-0.1,0.2c0.2,0,0.3-0.1,0.5-0.1c0,0-0.1,0.2-0.1,0.2c0.2,0,0.4-0.1,0.5,0c0,0-0.1,0.2-0.1,0.2c0,0,0,0,0,0
					c0.2,0,0.4,0,0.5,0.1c-0.1,0-0.1,0.1-0.1,0.1c0.2,0,0.3,0,0.4,0.1c0,0-0.1,0.1-0.1,0.1c0.1,0,0.3,0,0.4,0.2c0,0-0.1,0.1-0.1,0.1
					c0.1,0.1,0.2,0,0.3,0.2c0,0-0.1,0.1-0.1,0.1c0.1,0,0.2,0.1,0.3,0.1c-0.1,0-0.1,0.1-0.1,0.1c0.1,0.1,0.2,0,0.3,0.1
					c0,0.1-0.1,0.1-0.2,0.1c0.1,0.1,0.2,0.1,0.3,0.2c0,0-0.1,0.1-0.2,0.1c0.1,0.1,0.3,0.1,0.3,0.2c0,0-0.1,0.1-0.2,0.1c0,0,0,0,0,0
					c0,0,0,0,0,0c0,0,0,0,0,0c0.1,0.1,0.2,0.1,0.3,0.3c0,0-0.1,0-0.2,0.1c0.1,0.1,0.2,0.2,0.3,0.3c0,0-0.1,0.1-0.2,0.1
					c0.1,0.1,0.2,0.2,0.3,0.3c-0.1,0-0.2,0-0.2,0l0,0c0,0,0,0,0,0c0.1,0,0.2,0.2,0.3,0.3c0,0-0.2,0-0.2,0s0.2,0.2,0.2,0.4
					c0,0-0.3,0-0.2,0c0,0,0.1,0.2,0.2,0.3c0,0-0.1,0.1-0.2,0c0,0,0,0,0,0c0,0,0,0,0,0c0,0.1,0.1,0.2,0.1,0.3c0,0-0.1,0-0.2,0l0,0
					C1124.8,396.8,1124.8,397,1124.9,397.2L1124.9,397.2z M1119.9,394.6L1119.9,394.6c0,0.1,0,0.2,0,0.3
					C1119.9,394.8,1119.9,394.7,1119.9,394.6L1119.9,394.6z M1122.5,392.1L1122.5,392.1c0.1,0,0.2,0,0.3,0
					C1122.7,392.1,1122.6,392.1,1122.5,392.1z"/>
				<g id="XMLID_38_" class="st22">
					<path id="XMLID_39_" class="st23" d="M1118,390.6c0.9,0.5,1.9,1.3,2.8,2.1c0.7-0.3,1.5-0.4,2.3-0.1l-0.1,0
						c-0.8-0.2-1.4-0.2-2.2,0.1c0.2,0.2,0.4,0.3,0.5,0.5c0.6-0.2,1.6-0.1,2.2,0.1c0.1,0,0.1,0.1,0.2,0.1c-0.1,0-0.1-0.1-0.2-0.1
						c-0.6-0.2-1.6-0.3-2.2-0.1c0.2,0.2,0.4,0.3,0.5,0.5c0,0,0.1,0.1,0.1,0.1c0.7-0.1,1.5,0.1,2.1,0.4l-0.1,0
						c-0.7-0.2-1.3-0.4-2-0.3c0.2,0.2,0.5,0.5,0.7,0.7c0.5,0,1.2,0.1,1.7,0.4c-0.5-0.2-1.1-0.3-1.6-0.3c0.2,0.2,0.4,0.4,0.6,0.7
						c0.4,0.1,0.8,0.2,1.2,0.4c-0.1,0-0.1,0-0.1,0c-0.4-0.1-0.6-0.2-1-0.3c0.4,0.4,0.7,0.9,0.8,1.3l-0.1-0.1
						c-0.2-0.4-0.5-0.7-0.8-1.1c0,0.4,0,0.6,0.1,1c0,0.1,0,0.1,0,0.2c-0.1-0.4-0.1-0.8-0.1-1.2c-0.2-0.2-0.4-0.5-0.6-0.7
						c-0.1,0.6-0.1,1.1,0,1.7c-0.2-0.5-0.1-1.2,0-1.7c-0.2-0.2-0.5-0.5-0.7-0.7c-0.2,0.7,0,1.3,0.1,2l0,0.1
						c-0.2-0.6-0.3-1.5-0.1-2.1c-0.1-0.1-0.3-0.3-0.4-0.4c-0.1-0.1-0.1-0.1-0.2-0.2c-0.3,0.6-0.2,1.6,0,2.2c0,0.1,0.1,0.2,0.1,0.2
						c-0.1-0.1-0.1-0.1-0.1-0.2c-0.2-0.6-0.3-1.7,0-2.3c-0.2-0.2-0.3-0.3-0.5-0.5c-0.4,0.7-0.4,1.3-0.2,2.1l0,0.1
						c-0.2-0.8-0.1-1.5,0.2-2.2c-0.9-0.8-1.9-1.6-2.8-2.1C1117.9,390.7,1117.9,390.7,1118,390.6
						C1117.9,390.6,1117.9,390.6,1118,390.6L1118,390.6z M1122.8,394.8C1122.8,394.8,1122.8,394.8,1122.8,394.8L1122.8,394.8z"/>
				</g>
			</g>
			<g id="XMLID_1_" class="st1">
				<path id="XMLID_6_" class="st21" d="M761.9,356.3L761.9,356.3c-0.2-0.4-0.4-0.5-0.5-0.6c0,0,0,0,0,0c0,0.1-0.1,0.2-0.1,0.2
					c-0.1-0.1-0.2-0.2-0.2-0.4c0,0,0,0,0,0c0,0,0,0,0,0c0,0-0.2,0.1-0.2,0.1c-0.1-0.1-0.2-0.4-0.1-0.4c0-0.1-0.2,0.2-0.2,0.1
					c-0.2-0.2-0.2-0.5-0.2-0.5s-0.2,0.1-0.2,0.2c-0.1-0.1-0.1-0.4-0.1-0.5c0,0,0,0,0,0l0,0c0,0-0.1,0.1-0.2,0.2
					c-0.1-0.2-0.1-0.3-0.1-0.5c-0.1,0-0.2,0.1-0.2,0.1c-0.1-0.2-0.1-0.4-0.1-0.6c-0.1,0-0.2,0.1-0.2,0.1c-0.1-0.2-0.1-0.3,0-0.5
					c0,0,0,0,0,0c0,0,0,0,0-0.1c0,0,0,0,0,0.1c-0.1,0-0.2,0-0.2,0.1c-0.1-0.2,0-0.3,0-0.5c-0.1,0-0.2,0-0.3,0.1
					c-0.1-0.2,0-0.3,0-0.5c0,0-0.2,0.1-0.3,0.1c0-0.2,0.1-0.2,0.1-0.4c-0.1,0-0.2,0-0.2,0.1c0-0.1,0-0.3,0.1-0.4
					c-0.1,0-0.2,0-0.2,0.1c-0.1-0.2,0.1-0.3,0.1-0.5c0,0-0.1,0-0.2,0.1c-0.1-0.3,0.1-0.4,0.2-0.6c0,0-0.2,0-0.3,0
					c0-0.2,0.1-0.3,0.3-0.5c-0.1,0-0.2,0-0.2,0c0-0.2,0.2-0.4,0.3-0.6c0,0,0,0,0,0c0,0-0.3-0.1-0.3-0.1c0.1-0.2,0.4-0.3,0.5-0.5
					c-0.1,0-0.2-0.1-0.3-0.1c0.1-0.2,0.3-0.3,0.5-0.4c-0.1,0-0.2-0.1-0.3-0.1c0.2-0.2,0.5-0.3,0.7-0.4c-0.1,0-0.3,0-0.4-0.1
					c0.2-0.1,0.4-0.3,0.6-0.4c0.4-0.2,0.9-0.8,1.2-1.2c0.4,0.4,1,0.8,1.5,0.9c0.2,0.1,0.5,0.2,0.7,0.3c0,0.1-0.3,0.1-0.3,0.2
					c0.2,0.1,0.6,0.1,0.8,0.2c-0.1,0-0.2,0.1-0.2,0.1c0.2,0.1,0.4,0.1,0.6,0.3c-0.1,0-0.2,0.1-0.3,0.1c0.2,0.1,0.5,0.2,0.6,0.4
					c0,0-0.3,0.1-0.3,0.1c0,0,0,0,0,0c0.2,0.2,0.4,0.3,0.5,0.5c-0.1,0-0.2,0.1-0.2,0.1c0.2,0.1,0.3,0.2,0.4,0.4c0,0-0.2,0.1-0.3,0
					c0.1,0.2,0.3,0.2,0.3,0.5c-0.1,0-0.1,0-0.2,0c0,0.1,0.2,0.2,0.2,0.4c0,0-0.2,0-0.2,0c0.1,0.1,0.2,0.3,0.2,0.4
					c-0.1,0-0.2,0-0.2,0c0,0.2,0.2,0.2,0.2,0.4c-0.1,0-0.2,0-0.3,0c0,0.2,0.2,0.3,0.1,0.5c-0.1,0-0.2,0-0.3,0
					c0.1,0.2,0.2,0.3,0.1,0.5c0,0-0.2,0-0.2,0c0,0,0,0,0-0.1c0,0,0,0,0,0.1c0,0,0,0,0,0c0.1,0.2,0.1,0.3,0.1,0.5
					c-0.1,0-0.2-0.1-0.2,0c0.1,0.2,0.1,0.4,0.1,0.6c0,0-0.2-0.1-0.3-0.1c0.1,0.2,0.1,0.3,0,0.5c-0.1-0.1-0.2-0.1-0.2-0.1l0,0
					c0,0,0,0,0,0c0,0.1,0.1,0.4,0,0.5c0,0-0.2-0.1-0.2-0.1s0.1,0.3-0.1,0.5c0,0-0.3-0.2-0.2-0.1c0,0,0,0.3-0.1,0.4
					c0,0-0.2-0.1-0.2-0.1c0,0,0,0,0,0c0,0,0,0,0,0c0,0.1-0.1,0.3-0.1,0.4c0,0-0.1-0.1-0.1-0.2c0,0,0,0,0,0
					C762.1,355.7,762,355.9,761.9,356.3L761.9,356.3z M758.8,349.5L758.8,349.5c-0.1,0.1-0.2,0.2-0.2,0.3
					C758.6,349.7,758.7,349.6,758.8,349.5L758.8,349.5z M763.5,349L763.5,349c0.1,0.1,0.2,0.1,0.3,0.2
					C763.8,349.2,763.7,349.1,763.5,349z"/>
				<g id="XMLID_2_" class="st22">
					<path id="XMLID_3_" class="st23" d="M760,343.8c0.5,1.2,0.9,2.9,1.2,4.5c1,0.3,1.9,0.8,2.4,1.7l-0.1-0.1
						c-0.7-0.8-1.3-1.3-2.4-1.6c0.1,0.3,0.1,0.6,0.2,0.9c0.8,0.3,1.8,1.2,2.2,1.9c0.1,0.1,0.1,0.2,0.1,0.3c-0.1-0.1-0.1-0.2-0.2-0.3
						c-0.4-0.7-1.4-1.6-2.2-1.9c0.1,0.3,0.1,0.6,0.1,0.9c0,0.1,0,0.1,0,0.2c0.7,0.4,1.5,1.3,1.9,2.1l-0.1-0.1
						c-0.5-0.7-1.1-1.4-1.9-1.9c0,0.4,0.1,0.9,0.1,1.3c0.5,0.5,1.2,1.1,1.4,1.8c-0.3-0.7-0.8-1.2-1.4-1.7c0,0.4,0.1,0.8,0.1,1.2
						c0.4,0.4,0.7,0.9,0.9,1.3c-0.1-0.1,0-0.1-0.1-0.2c-0.3-0.4-0.5-0.7-0.8-1.1c0,0.7,0,1.5-0.1,2l0-0.1c0.1-0.6,0.1-1.2,0.1-1.8
						c-0.3,0.4-0.5,0.7-0.7,1.1c-0.1,0.1,0,0.1-0.1,0.2c0.2-0.5,0.5-1,0.8-1.4c0-0.4,0-0.8-0.1-1.2c-0.5,0.5-1,1-1.3,1.7
						c0.2-0.7,0.8-1.3,1.3-1.8c0-0.4-0.1-0.9-0.2-1.3c-0.7,0.6-1.1,1.4-1.5,2.2l0,0.1c0.3-0.8,0.9-1.8,1.6-2.3
						c0-0.3-0.1-0.5-0.1-0.8c0-0.1,0-0.3-0.1-0.4c-0.7,0.4-1.5,1.5-1.8,2.3c0,0.1-0.1,0.2-0.1,0.3c0-0.1,0-0.2,0.1-0.3
						c0.3-0.8,1.1-2,1.8-2.4c-0.1-0.3-0.1-0.6-0.2-0.9c-1,0.5-1.5,1.1-2,2l0,0.1c0.4-1,1.1-1.7,2-2.2c-0.3-1.5-0.7-3.2-1.2-4.5
						c0,0,0-0.1,0-0.1C760,343.7,760,343.7,760,343.8L760,343.8z M761.7,352.1C761.7,352,761.7,352,761.7,352.1L761.7,352.1z"/>
				</g>
			</g>
			<g class="st1">
				<path class="st27" d="M472,97c1-0.6,1.8,0.2,1.8,0.2l2,1.5l1.1-0.5c0,0-1.5-2.2-2.5-2.5c-1-0.3-0.6-1.9-4.5-2.6
					c-2.8-0.5-3.5-0.9-3.7-1l1.4,2.1c0,0-3.6,4.7-3.7,5.3C463.8,99.5,471,97.6,472,97z M427.5,99.2c-1.1,0-4-1.1-5.5-0.4l2.4,1.8
					c0,0-2.3,7-1.7,7.8c0.6,0.8,4.4-2.6,4.4-2.6l-0.7-1.3l1.6,0.4l1.5-2.2l1.6,0.1l1.8,1.1l1.2-0.8l-2-1.3
					C432.2,101.8,428.6,99.2,427.5,99.2z M518.7,142c-0.6-0.7-6.6,2.3-6.7,5.1l-3.6,0.3l1.4,1.3c0,0,3.6,2.5,5.2,2.7
					c1.6,0.2,2.6,0.8,2.6,0.8l1.2,0.6l0.3-1.9l-3.2-1.2C515.7,149.6,519.3,142.7,518.7,142z M593.2,112.4c2,0.2,2.4,0.4,2.5,0.6
					l0.4-1l-3.4-1.4c0,0-0.1-1.6,0.4-1.7c0.5-0.1,2.2-3.7,3-3.8c0.8,0-5.9-1.6-8,2.6l-0.7,0.3l-3.1-0.1c0,0,1,0.7,1.4,1.1
					C586.1,109.4,590.1,112.1,593.2,112.4z M547.7,147.5c0.7,0.8,4.9,0.6,4.9,0.6l1.4,0.4l0.1-0.7l-1.4-0.4c0,0-1.3-0.7-1.4-1.1
					c-0.1-0.4,0.9-3.5,0.9-3.5l1.7-2.3l-0.1-0.8c-2.5-0.2-7.6,4.2-7.6,4.2l-2.8-0.4C544.2,146.4,547,146.8,547.7,147.5z
					 M428.1,128.6c3.1-4.3,0.7-8.1,0.7-8.1s-1.5,2.2-2.2,2.3c-0.6,0.1-3.5,3.8-3.5,3.8l-3.6-0.3c0.4,1.4,5.7,4.2,5.7,4.2
					s2.8,0.4,3.5,0.5c0.8,0.1,1.8,1.6,1.8,1.6l0.7-0.6l0.5-1.1l-3.9-1.6L428.1,128.6z M491.6,147l1.7,0.8l0.5-1.3l-2.4-0.8l-1.6-1.3
					c1.1-0.5,2-4.6,2-4.6l-1.9-0.3c0,0,2.4-0.5,2.5-1.1c0.1-0.6-1.1-3.9-1.1-3.9s-1.3,2.7-2,2.6c-0.7-0.1-3.6,5.5-3.6,5.5l-3.2-0.3
					C484.1,146.2,491.6,147,491.6,147z M588.4,187.3l2.2,0.9l0-0.8c0,0-2.1-1-2.6-1.1c-0.5-0.1-0.4-1.2-0.4-1.2l1.6-1.6l-0.5-0.3
					c0,0,2.3-2.6,2.4-2.9c0-0.3-1.3-0.6-1.9-0.4c-0.6,0.2-5.7,1.4-5.6,3.2l-3.6-0.1C579.8,183.2,581.6,186.3,588.4,187.3z
					 M481.2,129.1c0.6,0.8,3.6-2.6,3.6-2.6l1.1-1.4l1.8-1.7l3.7,1.4l0.3-0.7c0,0-6.4-5.4-11.9-4.5l2.3,1.7
					C482,121.3,480.6,128.2,481.2,129.1z M521.8,117.5c0,0,1.7,2.5,7.8,3.8l1.8,0.6l0.2,0.7l0.4-1l-3.3-2.3l0.6-0.7
					c0,0,2.2-4.5-0.4-6.2c0,0-4.1,3.9-3.9,4.8c0,0-3.6-1-4.2-0.4l0.1,0.4L521.8,117.5z M580.3,157.1c-0.9-1.1-3,2.3-3.7,2.5
					c-0.7,0.2-2.2,2.9-2.1,3.5l-0.3,0.2c0,0-3-1.1-3.3-0.7c-0.2,0.4,0.9,1,0.9,1s2.9,2.9,4,3.1c1.2,0.2,4.6,0.6,4.6,0.6l1.7,0.8
					l0.6-0.3c0,0-3-2.2-3.4-2.2C578.9,165.6,581.3,158.2,580.3,157.1z M592.8,141.1l-0.4,0.2c0,0,2.3,2,2.6,2.6
					c0.3,0.6,0.9,5.5,2.4,6.1c1.5,0.6,2.7-3.7,2.7-3.7l0.2-0.2l1,0.2l1.6,1.1l1.5-0.5C604.3,146.9,596.9,140.8,592.8,141.1z
					 M641,162.8l1.2,0.8c0,0,1.8,0.6,1.2-0.6c-0.6-1.2-7-4.5-7.7-5c-0.7-0.5-3.3-0.6-3.3-0.6l1.6,2c0.4,0.1,0,1,0,1
					c-1.4,0.5-2.8,7.1-2.8,7.1c1.3,0.2,2-1.5,4.4-1.8c2.4-0.3,4.6-3.1,4.6-3.1L641,162.8z M711,172.6c0,0,3,0.6,4.6,0.3
					c1.6-0.3,2.4,0.2,2.4,0.2l1.8,1.1l1-1.6l-3-0.8l-0.8-1c0,0,1.2-4.8-2-6.1c0,0-2.8,4.2-2.8,4.4c0,0.3-3.2-0.3-3.2-0.3l0.2,0.8
					l2,1.7L711,172.6z M649.9,124.7c-2-0.2-4.7-0.6-4.7-0.6l-0.1,0.2l2.5,1.7c0,0,0.5,3.9,0.8,4.4c0.3,0.5,1.2,2.7,1.2,2.7
					s3.6-4.1,3.5-4.8c-0.1-0.7,4.2,0.5,4.2,0.5S652,124.9,649.9,124.7z M598,129.6l-1.1-0.8l-2.1-1.6c0,0,2.6-4.3,0.6-7.3l-1.7,1.2
					c0,0-3.2,2.9-3,3.9c0.2,1-3.9-0.1-3.9-0.1l-0.1,0.4c0,0,1.9,1.4,1.8,1.8c-0.1,0.4-0.1,1.1-0.1,1.1s5.1,0.8,5.5,0.9
					c0.5,0.1,2.8,1.2,2.8,1.2L598,129.6z M613.9,187.4c3.7-2.1,1.7-8.1,1.7-8.1c-0.7-0.6-6,6.3-6,6.3l-3.4-0.4c2,4,9.4,4.7,9.4,4.7
					l1.5,0.9l0.8,0l0.2-1.3l-2.3-0.7L613.9,187.4z M544.3,130.4l0.8-1.5l-1.2-0.3l-1.2-0.6c0,0-4.7-3.7-9-3.4l1.9,2.4
					c0,0,0.3,6.2,1.6,6.8c1.3,0.6,3.8-4.7,3.8-4.7l2.5,0.5L544.3,130.4z M688.3,156.2c0,0-1.9-1.1-2.8-1.2c-0.9-0.1-4.3-0.3-5.2,0
					l2.2,2c0,0-3.7,4.6-3.3,7.3c0,0,6.6-1.7,7.6-5.2l1.4-0.2l2.1,1.1l1.5,0.5l0.1-0.9l-3-1.9L688.3,156.2z M744.6,158.2
					c0.1-0.7,1.7-2.6,1.2-4.3c-0.6-1.7-1.2-1.8-1.2-1.8l-0.8-1.3c0,0-1.8,1.5-1.8,1.9c-0.1,0.4-1.6,2.3-1.5,3.3
					c0,0.9-3.6-0.2-3.6-0.2l1.8,2c0,0-1.5,3.4-1.3,3.8c0,0,4.7,0.1,6.9-1.4l2.7,1l1.3,0.7l0.3-2
					C748.6,160.1,744.5,158.8,744.6,158.2z M540.7,159.9l2.5,2.2c0,0,2.7,6.6,3.3,7c0.6,0.3,2.6-4.6,2.6-4.6l2.1-0.1l1.7,1l-0.1-0.8
					C553,164.5,545.8,158.3,540.7,159.9z"/>
			</g>
			<g id="XMLID_55_" class="st1">
				<path id="XMLID_75_" class="st21" d="M276,147.7c0.8-0.5,1.9-0.8,2.9-1c-15.3,2.9-29.8,17-30,33.7
					c-0.3,22.3,21.4,38.8,26.7,42.5C234.4,170.1,276,147.7,276,147.7z"/>
				<path id="XMLID_74_" class="st21" d="M278.4,223.1l3.8,0c-14.2-52.5,1-76.6,1-76.6c0.3-0.2,0.6-0.3,0.9-0.4
					c-1.4,0-2.8,0.2-4.2,0.4c0.5-0.1,0.9-0.1,0.9-0.1C252.4,168.4,276.2,218.7,278.4,223.1z"/>
				<path id="XMLID_73_" class="st21" d="M287.4,223.1l3.8,0c2.4-4.4,28.3-53.5,0.6-76.2c0,0,0-0.1,0.3,0c-1.5-0.4-3-0.6-4.5-0.8
					c0,0,0.1,0,0.1,0C299.5,169.2,288.1,220.2,287.4,223.1z"/>
				<path id="XMLID_72_" class="st21" d="M294.2,222.9c5.5-4.1,26.1-20.8,26.8-41.6c0.5-15-11.4-28.1-24.9-33.1
					C300.8,151.3,333.5,174.9,294.2,222.9z"/>
				<path id="XMLID_70_" class="st28" d="M278.4,223.1c-2.1-4.4-26-54.7,2.4-76.7c0,0-0.4,0-0.9,0.1c-0.3,0.1-0.6,0.1-1,0.2
					c-1,0.2-2.1,0.5-2.9,1c0,0-41.6,22.4-0.5,75.2c0.1,0.1,0.2,0.1,0.3,0.2L278.4,223.1z"/>
				<path id="XMLID_68_" class="st28" d="M291.7,147c27.7,22.7,1.8,71.7-0.6,76.2l2.5,0l0,0.1c0.2-0.1,0.4-0.3,0.6-0.4
					c39.3-47.9,6.6-71.6,1.9-74.6c-1.3-0.5-2.7-0.9-4.1-1.2C291.7,147,291.7,147,291.7,147z"/>
				<path id="XMLID_66_" class="st28" d="M282.1,223.1l5.3,0c0.7-3,12.1-53.9,0.2-76.9c0,0,0,0-0.1,0c-0.8-0.1-1.6-0.1-2.5-0.1
					c-0.3,0-0.7,0-1,0c-0.3,0.1-0.6,0.2-0.9,0.4C283.2,146.5,267.9,170.6,282.1,223.1z"/>
				<polygon id="XMLID_65_" class="st29" points="277.4,234.8 276.4,225.2 276.8,225.2 277,227.9 278.2,225.6 278.6,225.8 
					277.1,228.5 277.7,234.7 				"/>
				<polygon id="XMLID_64_" class="st29" points="284.3,234.9 284.4,228.7 282.2,225.9 282.5,225.7 284.4,228.1 284.5,224.6 
					284.8,224.6 284.7,228.1 286.5,225.7 286.7,225.9 284.7,228.7 284.7,228.7 284.6,234.9 				"/>
				<polygon id="XMLID_63_" class="st29" points="291.5,234.8 292.2,228.8 290.5,225.8 290.8,225.6 292.3,228.2 292.6,225.4 
					292.9,225.5 291.8,234.9 				"/>
				<polygon id="XMLID_62_" class="st21" points="292.8,226.1 276.5,225.9 272.4,220.6 296.7,220.9 				"/>
				<path id="XMLID_59_" class="st30" d="M276,225.2l-0.6-0.8l18.4,0.2l-0.6,0.7L276,225.2L276,225.2z M273.6,222.1l-0.6-0.8
					l23.2,0.3l-0.6,0.7L273.6,222.1z"/>
				<path id="XMLID_58_" class="st31" d="M291.9,243.2c1.1-2.4,0.1-8.4,0.1-8.4l-14.9-0.2c0,0-1.1,6-0.1,8.4
					C277.8,244.9,291.1,245.1,291.9,243.2z"/>
				<path id="XMLID_57_" class="st29" d="M292.1,242.4c0.6-2.7-0.1-7.7-0.1-7.7l-14.9-0.2c0,0-0.9,4.9-0.3,7.7
					C280.1,243.2,288.8,243.4,292.1,242.4z"/>
				
					<rect id="XMLID_56_" x="284.3" y="226.8" transform="matrix(1.315519e-02 -0.9999 0.9999 1.315519e-02 46.2052 516.348)" class="st29" width="0.9" height="16"/>
			</g>
		</g>
	</g>
</g>
<g id="OBJECTS">
</g>
<g id="DESIGNED_BY_FREEPIK">
</g>
</svg>
