<svg xmlns="http://www.w3.org/2000/svg" xmlns:xlink="http://www.w3.org/1999/xlink" viewBox="0 0 1321.5 800"><style>.st1{display:none}.st6{display:inline}.st7{fill-rule:evenodd;clip-rule:evenodd}.st13,.st7{fill:#ff4c00}.st14{fill:#fff}.st18{display:none;fill:#b46720}.st18,.st22,.st23{fill-rule:evenodd;clip-rule:evenodd}.st22{display:inline;fill:#ff4c00}.st23{fill:#dc9517}.st24{display:inline;fill:#f95c32}.st24,.st25,.st28,.st29{fill-rule:evenodd;clip-rule:evenodd}.st25{display:inline;opacity:.64;fill:#ff9773}.st28{fill:#f1f2f2}.st29{fill:#414042}</style><g id="BACKGROUND_1_"><defs><path id="SVGID_1_" d="M0 0h1321.5v800H0z"/></defs><clipPath id="SVGID_2_"><use xlink:href="#SVGID_1_" overflow="visible"/></clipPath><g clip-path="url(#SVGID_2_)"><g class="st1"><linearGradient id="SVGID_3_" gradientUnits="userSpaceOnUse" x1="213.276" y1="400" x2="1175.846" y2="400"><stop offset="0" stop-color="#9fc7d3"/><stop offset=".315" stop-color="#c0d5df"/><stop offset=".767" stop-color="#e9e6ee"/><stop offset="1" stop-color="#f9edf4"/></linearGradient><path d="M1162.5 399.2c-6.1 0-11.4 2.6-14.5 6.5-1.3.1-2.6.2-3.8.5-.9-8.1-10.2-14.6-19.9-14.6-5.1 0-9.7 1.6-13.1 4.2h-1.3c-3.5 0-6.7 1-9 2.5-1-4.8-7.1-8.8-15.4-10.6-.2-1.5-.8-2.8-1.6-4.1-.8-2.1-2.2-3.7-4.1-5.2-1.8-1.6-4-2.5-6.4-3.1-2.4-1-5-1.8-7.7-.9h-.8c-.6 0-1.2-.5-1.7-.4-2.7-1-6-2-9.6-2-3.7 0-7.2.6-9.9 1.7-.2-.3-.3-.6-.5-.9-.8-2.1-2.2-3.8-4.1-5.3-1.8-1.6-4-2.7-6.4-3.3-2.4-1-5-2.2-7.7-1.3h-.8c-3.6 0-7 .6-10.1 2.1-1.4.9-2.7 1.6-4.1 2.5-2.5 2.1-4.2 4.5-5.1 7.3-.2 1-.3 2.1-.5 3.2-.1-.1-.2-.1-.4-.2-1.8-1.6-4-2.5-6.4-3.2-2.4-1-5-1.9-7.7-1h-.8c-3.6 0-7 .4-10.1 1.9-1.4.9-2.7 1.4-4.1 2.3-2.1 1.7-3.6 3.7-4.6 5.9h-.2c-2 0-4 .3-5.8.7-1.3-.8-2.8-1.2-4.3-1.7-2.4-1-5-2-7.7-1.1h-.8c-3.6 0-7 .5-10.1 2-1.4.9-2.7 1.5-4.1 2.3-2.5 2.1-4.2 4.5-5.1 7.3-.2 1-.3 2-.5 3-.4.3-.7.6-1.1.9-2.2-1.1-4.8-1.8-7.7-1.8-.5 0-1 0-1.6.1-.2-.2-.4-.4-.6-.7-2.5-2.1-5.4-3.5-8.8-4.3-1.8-.2-3.5-.4-5.3-.6-1.6 0-3.1.1-4.6.4-2.6-5.4-10.6-9.4-20-9.4-6.6 0-12.4 1.9-16.2 4.9-1.7-3.2-5.8-5.8-10.9-7.2v-.6c0-4.6-3.6-8.6-8.7-10.4-2.8-6.2-11.7-10.7-22.4-10.7-1.8 0-3.6.1-5.3.4.9-1.5 1.3-3.2 1.3-5 0-7.2-7.7-13-17.2-13h-1.1c-1-5.2-5.6-9.7-11.3-12 .4-.7.7-1.5 1-2.3.2-1.5.5-2.9.7-4.4 0-3-.9-5.8-2.7-8.4l-3.1-3.4c-1.5-1.4-3.3-2.4-5.4-3.1-1.4-6.5-9-11.6-16.9-11.6-3.1 0-5.9.7-8.4 1.9-1.2-2.6-3.6-4.8-6.9-6.3.4-.7.6-1.5.6-2.3 0-3.7-4.3-6.8-9.6-6.8-2.7 0-5.1.8-6.8 2-3.1-2.8-7.9-4.6-13.2-4.6-7.3 0-13.6 3.3-15.8 8-1.8-1.4-4.5-2.3-7.4-2.3-5.6 0-10.1 3.2-10.1 7.1v.4c-6.2 1.5-10.7 5.7-10.7 10.6v.1c-3.2 1.2-5.9 2.9-7.8 5-3.5-2-7.4-3.2-12-3.2-2.7 0-5.4.4-7.8 1.2-2.3-.9-4.8-1.5-7.4-1.6-3-3.9-8.1-6.5-14.2-6.5-7.9 0-15.5 5.1-16.9 11.6-2 .7-3.8 1.7-5.4 3.1l-3.1 3.4c-1.8 2.6-2.7 5.4-2.7 8.4.2 1.5.5 2.9.7 4.4.3.8.6 1.6 1 2.3-5.7 2.3-10.3 6.8-11.3 12h-1.1c-9.5 0-17.2 5.8-17.2 13 0 1.8.5 3.5 1.3 5-1.7-.3-3.5-.4-5.3-.4-10.7 0-19.6 4.5-22.4 10.7-5.1 1.8-8.7 5.8-8.7 10.4v.6c-5.2 1.4-9.2 4-10.9 7.2-3.8-3-9.7-4.9-16.2-4.9-9.5 0-17.4 4-20 9.4-1.5-.3-3-.5-4.6-.4-1.8.2-3.5.4-5.3.6-3.4.8-6.3 2.2-8.8 4.3-.2.2-.4.4-.6.7-.5 0-1-.1-1.6-.1-2.9 0-5.6.7-7.7 1.8-.3-.3-.7-.6-1.1-.9-.2-1-.3-2-.5-3-1-2.8-2.7-5.2-5.1-7.3-1.4-.9-2.7-1.5-4.1-2.3-3.1-1.5-6.5-2-10.1-2h-.8c-2.8-.9-5.3.1-7.7 1.1-1.6.4-3 .9-4.3 1.7-1.8-.4-3.8-.7-5.8-.7h-.2c-1-2.2-2.5-4.2-4.6-5.9-1.4-.9-2.7-1.4-4.1-2.3-3.1-1.5-6.5-1.9-10.1-1.9h-.8c-2.8-.9-5.3 0-7.7 1-2.5.7-4.6 1.6-6.4 3.2-.1.1-.2.1-.4.2-.2-1-.3-2.1-.5-3.2-1-2.8-2.7-5.2-5.1-7.3-1.4-.9-2.7-1.6-4.1-2.5-3.1-1.5-6.5-2.1-10.1-2.1h-.8c-2.8-.9-5.3.3-7.7 1.3-2.5.7-4.6 1.7-6.4 3.3-2 1.5-3.3 3.3-4.1 5.3-.2.3-.3.6-.5.9-2.8-1.1-6.2-1.7-9.9-1.7-3.6 0-6.9 1-9.6 2-.6 0-1.2.4-1.7.4h-.8c-2.8-.9-5.3-.1-7.7.9-2.5.7-4.6 1.5-6.4 3.1-2 1.5-3.3 3.2-4.1 5.2-.8 1.3-1.4 2.7-1.6 4.1-8.3 1.7-14.4 5.7-15.4 10.6-2.3-1.6-5.5-2.5-9-2.5h-1.3c-3.4-2.6-8-4.2-13.1-4.2-9.7 0-19 6.6-19.9 14.6-1.2-.3-2.5-.4-3.8-.5-3-3.9-8.4-6.5-14.5-6.5-5 0-9.2 2-13.4 5.1v115.3h535.2v-2.7h427.3V404.4c-5-3.1-9.2-5.2-14.2-5.2zM705 296.4c-.4-.5-.8-1.1-1.3-1.6l.1-.1c.4.6.8 1.1 1.3 1.6 0 0 0 .1-.1.1z" fill-rule="evenodd" clip-rule="evenodd" fill="url(#SVGID_3_)"/><linearGradient id="SVGID_4_" gradientUnits="userSpaceOnUse" x1="-.776" y1="458.532" x2="576.959" y2="458.532"><stop offset="0" stop-color="#9fc7d3"/><stop offset=".315" stop-color="#c0d5df"/><stop offset=".767" stop-color="#e9e6ee"/><stop offset="1" stop-color="#f9edf4"/></linearGradient><path d="M511.3 450.2c-5.8 1.7-11.8 2.3-14.7 7-1.3.1-2.4.3-3.6.6-.9-10-10-18.1-19.5-18.1-5 0-9.5 2-12.8 5.2h-1.3c-3.5 0-6.6 1.2-8.8 3.1-1-6-7-10.9-15.1-13-.2-1.8-.7-3.4-1.6-5.1-.8-2.5-2.1-4.6-4.1-6.4-1.8-2-3.9-2.8-6.3-3.6-2.3-1.3-4.9-2.1-7.6-.9h-.8c-.6 0-1.1-.9-1.7-.8-2.6-1.2-5.9-2.7-9.4-2.7-3.7 0-7 .7-9.7 2-.1-.4-.3-.7-.5-1.1-.8-2.5-2.1-4.7-4.1-6.6-1.8-2-3.9-3.3-6.3-4.1-2.3-1.3-4.9-2.8-7.6-1.6h-.8c-3.5 0-6.8.8-9.9 2.6-1.3 1.1-2.6 2-4 3.1-2.4 2.5-4.1 5.6-5 9-.2 1.3-.3 2.6-.5 3.9l-.3-.3c-1.8-2-3.9-2.9-6.3-3.7-2.3-1.3-4.9-2.3-7.6-1.1h-.8c-3.5 0-6.8.2-9.9 2.1-1.3 1.1-2.6 1.6-4 2.7-2 2.1-3.5 4.5-4.5 7.2h-.2c-2 0-3.9.3-5.7.8-1.3-1-2.7-1.3-4.2-1.8-2.3-1.3-4.9-2.4-7.6-1.1h-.8c-3.5 0-6.8.3-9.9 2.2-1.3 1.1-2.6 1.7-4 2.7-2.4 2.5-4.1 5.5-5 8.9-.2 1.2-.3 2.4-.5 3.7-.4.3-.7.7-1 1.1-2.1-1.4-4.7-2.3-7.6-2.3-.5 0-1 0-1.5.1-.2-.3-.4-.6-.6-.8-2.4-2.5-5.3-4.3-8.6-5.3-1.7-.2-3.5-.5-5.2-.7-1.6-.1-3 .1-4.5.5-2.5-6.7-10.4-11.6-19.6-11.6-6.4 0-12.2 2.3-15.9 6-1.7-3.9-5.6-7.2-10.7-8.9v-.7c0-5.7-3.5-10.6-8.6-12.8-2.7-7.6-11.5-13.2-21.9-13.2-1.8 0-3.5.2-5.2.5.8-1.9 1.3-4 1.3-6.2 0-8.8-7.6-16-16.9-16h-1c-1-6.4-5.5-11.9-11.1-14.8.4-.9.7-1.9 1-2.9.2-1.8.5-3.6.7-5.4 0-3.7-.9-7.1-2.7-10.3l-3.1-4.1c-1.5-1.7-3.3-3-5.3-3.8-1.4-8-8.8-14.2-16.6-14.2-6 0-10.9 3.2-13.9 8-3 .2-5.8 1.1-8.4 2.6-1.3 1-2.5 2-3.8 3.1-1.8 1.8-3.1 3.9-3.9 6.3-1.2 2.3-1.7 4.9-1.6 7.5v.9l-.9.6c-1-.5-2-.9-3-1.2-1.7-.2-3.5-.5-5.2-.7-2.4-.1-4.7.4-6.8 1.4-.8-.1-1.5-.1-2.3-.1-1.8 0-3.6.2-5.3.6.7-1.6 1.1-3.4 1.1-5.2 0-9.1-9.5-16.6-21.2-16.6-8 0-15 3.4-18.6 8.5-3.4-2.5-7.6-3.9-12.1-3.9-5.8 0-10.6 2.4-14.7 6.1v260.6h524l45.8-72.2c22.5-14-4-90.7-57.6-75.3z" fill-rule="evenodd" clip-rule="evenodd" fill="url(#SVGID_4_)"/><linearGradient id="SVGID_5_" gradientUnits="userSpaceOnUse" x1="329.598" y1="484.87" x2="851.598" y2="484.87" gradientTransform="matrix(-1 0 0 1 1651.077 0)"><stop offset="0" stop-color="#9fc7d3"/><stop offset=".315" stop-color="#c0d5df"/><stop offset=".767" stop-color="#e9e6ee"/><stop offset="1" stop-color="#f9edf4"/></linearGradient><path d="M812.6 477.4c5.9 0 11.2 2.6 14.1 6.5 1.3.1 2.5.2 3.7.5.9-8.1 10-14.6 19.4-14.6 5 0 9.4 1.6 12.8 4.2h1.3c3.4 0 6.6 1 8.8 2.5 1-4.8 6.9-8.8 15-10.6.2-1.5.7-2.8 1.6-4.1.8-2.1 2.1-3.7 4-5.2 1.8-1.6 3.9-2.3 6.3-3 2.3-1 4.8-1.8 7.5-.8h.8c.6 0 1.1-.6 1.7-.6 2.6-1 5.8-2.1 9.3-2.1 3.6 0 7 .6 9.7 1.7.1-.3.3-.6.5-.9.8-2.1 2.1-3.8 4-5.3 1.8-1.6 3.9-2.7 6.3-3.4 2.3-1 4.8-2.4 7.5-1.4h.8c3.5 0 6.8.7 9.8 2.2 1.3.9 2.6 1.7 3.9 2.5 2.4 2.1 4.1 4.5 5 7.3.2 1 .3 2.1.5 3.2.1-.1.2-.1.3-.2 1.8-1.6 3.9-2.4 6.3-3.1 2.3-1 4.8-1.9 7.5-.9h.8c3.5 0 6.8.3 9.8 1.8 1.3.9 2.6 1.4 3.9 2.3 2 1.7 3.5 4 4.5 6h.2c2 0 3.9.2 5.6.6 1.3-.8 2.7-1.1 4.2-1.6 2.3-1 4.8-2 7.5-1h.8c3.5 0 6.8.3 9.8 1.8 1.3.9 2.6 1.4 3.9 2.2 2.4 2.1 4.1 4.5 5 7.3.2 1 .3 2 .5 3 .4.3.7.6 1 .9 2.1-1.1 4.7-1.8 7.5-1.8.5 0 1 0 1.5.1.2-.2.4-.4.6-.7 2.4-2.1 5.3-3.5 8.6-4.3 1.7-.2 3.5-.4 5.2-.6 1.5 0 3 .1 4.5.4 2.5-5.4 10.3-9.4 19.5-9.4 6.4 0 12.1 1.9 15.8 4.9 1.7-3.2 5.6-5.8 10.7-7.2v-.6c0-4.6 3.5-8.6 8.5-10.4 2.7-6.2 11.4-10.7 21.8-10.7 1.8 0 3.5.1 5.2.4-.8-1.5-1.3-3.2-1.3-5 0-7.2 7.5-13 16.8-13h1c1-5.2 5.4-9.7 11-12-.4-.7-.7-1.5-1-2.3-.2-1.5-.5-2.9-.7-4.4 0-3 .9-5.8 2.7-8.4l3-3.4c1.5-1.4 3.3-2.4 5.2-3.1 1.4-6.5 8.8-11.6 16.5-11.6 5.9 0 10.9 2.6 13.8 6.5 3 .1 5.8.9 8.4 2.1 1.3.8 2.5 1.7 3.8 2.5 1.8 1.4 3.1 3.1 3.9 5.1 1.2 1.9 1.7 3.9 1.6 6.1v.7c.3.2.6.3.9.5 1-.4 2-.7 3-1 1.7-.2 3.5-.4 5.2-.6 2.4-.1 4.7.3 6.8 1.1.8-.1 1.5-.1 2.3-.1 1.8 0 3.6.2 5.2.5-.7-1.3-1.1-2.8-1.1-4.2 0-7.4 9.5-13.4 21.1-13.4 8 0 14.9 2.8 18.5 6.9 3.4-2 7.4-3.2 11.9-3.2 5.7 0 10.5 1.9 14.5 5v211.3h-522V482.5c4.6-3.1 8.8-5.1 13.7-5.1z" fill-rule="evenodd" clip-rule="evenodd" fill="url(#SVGID_5_)"/></g><g class="st1"><g class="st6"><path class="st7" d="M1019.5 146.5c-6.1-5.1-14-8.2-22.5-8.2-17.9 0-32.6 13.3-34.9 30.6h-.3c-16.6 0-30 13.5-30 30.1 0 1.7.2 3.4.4 5-11.6 2.5-20.3 12.7-20.3 25.1 0 1.8.2 3.6.5 5.3-16.4 2.7-29 17-29 34.3 0 8.7 3.2 16.6 8.4 22.7v.6c0 13.5 10.9 24.4 24.4 24.4 2.1 0 4.1-.2 6-.7-1.4 3.4-2.2 7.1-2.2 11.1 0 15.8 12.8 28.6 28.6 28.6 1.1 0 2.2-.1 3.3-.2-1.4 3.6-2.2 7.5-2.2 11.7 0 17.7 14.4 32.1 32 32.1 10.7 0 20.1-5.2 25.9-13.2 10.1 2.7 20.7 4.1 31.6 4.1 20 0 38.9-4.8 55.5-13.2 4 2 8.5 3.1 13.3 3.1 16.6 0 30-13.5 30-30.1 0-1.8-.2-3.6-.5-5.3 5.5 4.5 12.6 7.2 20.3 7.2 17.7 0 32-14.4 32-32.1 0-14.6-9.7-26.9-23-30.8 4.8-5.7 7.7-13.1 7.7-21.2 0-13.1-7.7-24.5-18.8-29.7l-.5-1.6c2.1-3.6 3.3-7.8 3.3-12.2 0-12.7-9.6-23.1-22-24.3l-.7-1c.4-2.2.6-4.5.6-6.8 0-21.9-17.8-39.7-39.7-39.7-7.2 0-14 1.9-19.8 5.3-.8-.4-1.1-.5-1.9-.8-2.4-14.3-14.8-25.1-29.7-25.1-10.9-.2-20.6 5.9-25.8 14.9z"/><path d="M1101 339.5l-2.7-2.9c-12.5 7.1-25.7 15.7-39.2 25.9-5.3 4-10.2 8-14.9 12-.7-3.9-1.2-8.2-1.4-13-.3-6.8.2-12.9.9-18 12.2-12.9 24.4-25.7 36.6-38.6l-4.1-3.8-34.5 26.9-2.6-81.1h-8.2l-2.6 81.1-34.5-26.9-4.1 3.8 36.6 38.6c.7 4 1.2 8.7 1.2 14.1 0 6.6-.8 12.3-1.7 16.9-18-12.6-36.1-25.3-54.1-37.9l-2.7 2.9c14.6 10.3 30.3 23.6 45.4 40.7 3.9 4.4 7.5 8.8 10.9 13.1.1 6.5.2 13 .2 19.5l-.9 22.1-3 72.6c8.4 4.2 18.4 4.2 26.8 0-1-37.7-2.1-75.4-3.1-113.1 2.7-4.6 5.9-9.3 9.5-14 14.8-19.7 32.1-32.6 46.2-40.9z" fill-rule="evenodd" clip-rule="evenodd" fill="#824737"/><path d="M1024 111.3c-6.1-5.1-14-8.2-22.5-8.2-17.9 0-32.6 13.3-34.9 30.6h-.3c-16.6 0-30 13.5-30 30.1 0 1.7.2 3.4.4 5-11.6 2.5-20.3 12.7-20.3 25.1 0 1.8.2 3.6.5 5.3-16.4 2.7-29 17.1-29 34.3 0 8.7 3.2 16.6 8.4 22.7v.6c0 13.5 10.9 24.5 24.4 24.5 2.1 0 4.1-.3 6-.8-1.4 3.4-2.2 7.1-2.2 11.1 0 15.8 12.8 28.7 28.6 28.7 1.1 0 2.2-.1 3.3-.2-1.8 4.5-2.5 9.4-2.1 14.6 1.4 15.2 13.6 27.5 28.8 29 11.9 1.1 22.7-4.3 29.1-13.1 10.1 2.7 20.7 4.1 31.6 4.1 20 0 38.9-4.8 55.5-13.2 4 2 8.5 3.1 13.3 3.1 16.6 0 30.1-13.5 30.1-30.1 0-1.8-.2-3.5-.5-5.3 5.5 4.5 12.6 7.2 20.3 7.2 17.7 0 32-14.4 32-32.1 0-14.6-9.7-26.9-23-30.8 4.8-5.7 7.7-13.1 7.7-21.2 0-13.1-7.7-24.5-18.8-29.7l-.5-1.6c2.1-3.6 3.3-7.8 3.3-12.2 0-12.7-9.6-23.1-22-24.3l-.7-1c.4-2.2.6-4.5.6-6.8 0-21.9-17.8-39.7-39.7-39.7-7.2 0-14 1.9-19.9 5.3-.8-.4-1.1-.5-1.9-.8-2.4-14.3-14.8-25.1-29.7-25.1-10.9-.1-20.6 5.9-25.9 14.9z" fill-rule="evenodd" clip-rule="evenodd" fill="#f95c32"/><path d="M1107.8 192.1c-2.7-2.3-6.2-3.6-10-3.6-8 0-14.5 5.9-15.6 13.6h-.2c-7.4 0-13.4 6-13.4 13.4 0 .8.1 1.5.2 2.2-5.2 1.1-9 5.7-9 11.2 0 .8.1 1.6.2 2.4-7.3 1.2-12.9 7.6-12.9 15.3 0 3.9 1.4 7.4 3.7 10.1v.3c0 5.2 3.6 9.9 8.8 10.7 1.7.3 3.3.2 4.8-.2-1.1 2.7-1.3 5.9-.3 9 1.8 5.6 7.4 9.1 13.3 8.6h.3c-.9 2.3-1.2 4.9-.8 7.6 1 6.1 6.1 11 12.3 11.8 5.5.7 10.5-1.8 13.4-5.8 4.5 1.2 9.2 1.8 14.1 1.8 8.9 0 17.3-2.1 24.8-5.9 1.8.9 3.8 1.4 5.9 1.4 7.4 0 13.4-6 13.4-13.4 0-.8-.1-1.6-.2-2.3 3 2.5 7.2 3.8 11.5 3 5.8-1 10.5-5.6 11.5-11.4 1.4-7.6-3.3-14.4-10-16.4 2.1-2.6 3.4-5.8 3.4-9.4 0-5.9-3.4-10.9-8.4-13.3l-.2-.7c.9-1.6 1.5-3.5 1.5-5.4 0-5.7-4.3-10.3-9.8-10.8l-.3-.4c.4-2.4.3-5-.2-7.6-.9-4.4-3.7-8.3-7.6-10.5-6.5-3.7-13.4-3.2-18.5-.2-.4-.2-.5-.2-.8-.4-1.1-6.4-6.6-11.2-13.2-11.2-5-.2-9.4 2.5-11.7 6.5z" fill-rule="evenodd" clip-rule="evenodd" fill="#ea4006"/><path d="M953.7 179.9c-2.7-2.3-6.2-3.6-10-3.6-8 0-14.5 5.9-15.6 13.6h-.1c-4.5 0-8.8 2.2-11.2 6-2.1 3.5-2.5 6.7-2 9.6-5.2 1.1-9 5.7-9 11.2 0 .8.1 1.6.2 2.4-7.3 1.2-12.9 7.6-12.9 15.3 0 3.9 1.4 7.4 3.7 10.1v.3c0 6 4.9 10.9 10.9 10.9.9 0 1.8-.1 2.7-.3-1.4 3.3-1.4 7.2.5 11.1 1.9 4 6.1 6.5 10.6 6.6.8 0 1.5 0 2.2-.1-.9 2.3-1.2 4.9-.8 7.6 1 6.1 6 11 12.1 11.8 5.5.7 10.6-1.7 13.6-5.8 4.5 1.2 9.2 1.8 14.1 1.8 8.9 0 17.3-2.1 24.7-5.9 1.8.9 3.8 1.4 5.9 1.4 7.4 0 13.4-6 13.4-13.4 0-.8-.1-1.6-.2-2.3 3.1 2.5 7.2 3.8 11.5 3 5.8-1 10.5-5.6 11.6-11.4 1.4-7.6-3.3-14.5-10-16.4 2.1-2.6 3.4-5.9 3.4-9.4 0-5.9-3.4-10.9-8.4-13.3l-.2-.7c.9-1.6 1.5-3.5 1.5-5.4 0-5.6-4.3-10.3-9.8-10.8l-.3-.4c.2-1 .3-2 .3-3 0-9.8-7.9-17.7-17.7-17.7-3.2 0-6.2.9-8.8 2.3l-1-.5c-1.1-6.3-6.6-11-13.2-11-5.1-.3-9.4 2.4-11.7 6.4z" fill-rule="evenodd" clip-rule="evenodd" fill="#dd4712"/><path d="M1036 126.8c-3.5-2.9-8-4.7-12.9-4.7-10.2 0-18.6 7.6-19.9 17.5h-.2c-8.9 0-16.5 6.9-17.1 15.8-.1 1.5-.1 2.9.2 4.3-6.6 1.4-11.6 7.3-11.6 14.3 0 1 .1 2 .3 3-9.4 1.6-16.6 9.7-16.6 19.6 0 5 1.8 9.5 4.8 13v.4c0 5 2.6 9.8 7 12.2 3.8 2 7.2 2.2 10.4 1.4-1.4 3.4-1.7 7.4-.5 11.4 2.3 7.2 9.5 11.9 17.1 11.2h.4c-1.2 2.9-1.6 6.3-1 9.7 1.2 7.5 7.2 13.6 14.6 14.9 7.5 1.4 14.3-1.8 18.3-7.3 5.8 1.5 11.8 2.3 18.1 2.3 11.4 0 22.2-2.7 31.7-7.5 2.3 1.1 4.9 1.8 7.6 1.8 9.5 0 17.2-7.7 17.2-17.2 0-1-.1-2-.3-3 3.5 2.8 7.9 4.4 12.8 4.1 8.8-.6 16.1-7.6 17-16.4.9-9.2-4.9-17.1-13-19.5 2.8-3.3 4.4-7.5 4.4-12.1 0-7.5-4.4-14-10.8-17l-.3-.9c1.2-2.1 1.9-4.4 1.9-7 0-7.2-5.5-13.2-12.6-13.9l-.4-.5c.2-1.3.3-2.6.3-3.9 0-12.5-10.1-22.7-22.7-22.7-4.1 0-7.9 1.1-11.2 3-.5-.3-.7-.3-1.2-.6-1.4-8.1-8.5-14.2-17-14.2-6.3-.1-11.9 3.4-14.8 8.5z" fill-rule="evenodd" clip-rule="evenodd" fill="#fc7e65"/></g></g><g class="st1"><g class="st6"><path class="st13" d="M936.9 497.7s23-2.1 13-21.8-24.6-23.3-29.8-34.6c-5.2-11.3-14.8 13.5-13.1 31.1 1.7 17.6 5.5 29.4 7.9 27l.2-12.2s6.2 4.5 13.1 4.6c0 0-13.3 8.3-6.9 8 6.3-.3 15.6-2.1 15.6-2.1z"/><path class="st14" d="M895.5 450.1s11.7 10.6 16.7 13.4c3.5 1.9 17.8-14.1 17.8-14.1 7.7-3.6-26.9-18.7-34.5.7z"/><path class="st13" d="M889.9 437.1s-4.6 5.4-1.8 9.3l5.5-.8s-2.2 3.8 0 6.9c0 0 10.8-10.6 16.8 9.9l-.8-33.7c.1-.1-11-2.4-19.7 8.4zm45.7-.5s4.7 5.3 2.1 9.2l-5.5-.6s2.3 3.8.2 6.9c0 0-11.1-10.3-16.6 10.3l-.1-33.7c0-.1 11-2.7 19.9 7.9z"/><path class="st13" d="M910.4 462.3h5.4l2.2-33.6-13.5-.1"/><path fill="#2c1c0f" d="M910.4 462.3l3.4 7.8 2-7.8z"/><path class="st13" d="M892.8 434.1s.8-13.3 4-16l9.5 10.6s12.3 1.1 14.5-.1c2.2-1.3 9.3-11.7 9.3-11.7l4.2 18.4m46.6 6.7c1.3 3.3-1.3 18-2 14.1-.7-3.9-7.6-12.8-7.6-12.8-1.8.6-4.6 12.6-4.6 12.6-2.8-1.1-5.5-8.1-5.5-8.1.4 5 1.3 10.5 2.6 16.6 5.5 26-11.3 19.8-11.3 19.8l-5.8 10.4c38.5 5.6 45.3-25.5 42.6-45.1-2-2.9-8.4-7.5-8.4-7.5z"/><path class="st14" d="M977.6 414.2c-13.6 6.2-17.7 17.1-16.4 33.5 0 0 2.7 7 5.5 8.1 0 0 2.8-12 4.6-12.6 0 0 6.9 8.8 7.6 12.8.7 3.9 3.3-10.8 2-14.1 0 0 6.4 4.6 8.3 7.5-.7-5.1-2-9.5-3.6-12.2-7.7-12.7-8-23-8-23z"/><path d="M927 443.1c0 1.4-1.2 2.6-2.7 2.6-1.4 0-2.6-1.2-2.6-2.7m-17.5-.2c0 1.4-1.2 2.6-2.7 2.6-1.4 0-2.6-1.2-2.6-2.7" fill="none" stroke="#282f39" stroke-linecap="round" stroke-linejoin="round" stroke-miterlimit="10"/></g></g><path class="st18" d="M1137.4 518.1c.5-.8.7-1.7.4-2.6-.1-.2-.2-.5-.3-.7-.6-1.7-2.4-2.9-4.6-3.2-.4-.2-.8-.3-1.3-.5-.1-.2-.3-.4-.5-.6.1-.9.1-1.8-.3-2.7-.4-1.1-1.1-1.9-2.3-2.5-.9-.5-2.1-.7-3.2-.7-.3-.3-.5-.5-.9-.7-1-.6-2.1-.7-3.3-.7-.2-.1-.1-.1-.2-.2-.4-.1-.4-.2-.9-.2-.2-.1.3-.2.3-.3 0-.3-1.7-.7-2.2-.9-.4-.2-1.8-.4-2.2-.5-.4-.1-.7-.2-1.1-.2-.8-.7-2-1.3-3.6-1.4-2.7-.2-4.4 1-5 2.5h-.3c-1.7-.1-3 .3-3.9 1-.6-.7-1.6-1.2-2.6-1.5-.8-.2-1.6-.3-2.5-.2-.8-.9-2.2-1.6-3.8-1.7-.9-.1-1.4.1-2.2.3-.2-.1-.3-.3-.5-.4-.2-.2-.5-.4-.7-.5 0-.4-.1-.7-.3-1.1.1-.2.2-.3.3-.5.1-.2.2-.5.3-.7.5-1 .2-2.2-.3-3.1-.6-1-1.8-1.6-3-2-.8-.3-1.8-.3-2.7-.1-.5-.5-1-.9-1.7-1.3-1.1-.7-2.7-.8-4-.6-.3 0-.5.1-.8.1-1.4-.6-3.1-.6-4.6-.1-.6-.5-1.4-1-2.2-1.3l-1.2-.5c-1.5-.4-3-.5-4.3 0-.7-.3-1.5-1.1-2.3-1.2h-.3c-2.6-.2-4.7 1.8-5.3 3.6-1.9-.1-3.6 1.3-4.5 2.5-2.1.1-3.5 1.2-4 2.5-1.1 0-2 .3-2.8.8-2.2 0-4.2 1.4-4.7 3 0-.3-.1-.5-.1-.8-.3-.9-.8-1.6-1.5-2.3-.5-.6-1.4-.9-2.2-1.1.3-.7.3-1.4.1-2.1-.2-1-1.2-1.9-2.3-2.5-1-.5-2.4-.8-3.6-.7-.8-.5-1.7-.8-2.7-1-.4-.4-1-.8-1.6-1.2-1.2-.7-2.7-.8-4-.6h-.2c-1.2-1.2-3.1-1.8-5.2-1.5-1.9.2-3.5 1.5-4 3h-.3c-1.1.3-1.7.4-2.5.9-.8.4-1.3.9-2 1.4-.9.8-.9 2-.7 3-.5.4-1 .8-1.3 1.3-.5-.1-1.1-.2-1.6-.1-1.5-1.1-3.6-1.4-5.4-.9 0-.6-.2-1.3-.6-1.9-.5-.9-1.8-1.7-3-2-1.2-.3-2.8-.3-3.9.1-.1-.8-.5-1.6-1.2-2.2-.5-.5-1.7-.8-1.7-1v-.4c.1-2.2-2.3-4.1-5.1-4.3-2.3-.2-4.4 1-5.2 2.5-.6.1-1.1.3-1.6.5-.3-.1-.7-.2-1-.3-.4-.5-1-1-1.6-1.3-.6-.3-1.3-.5-1.9-.6-.6-.7-1.6-1.2-2.6-1.4-1.4-.4-2.8-.2-4.1.2-.2.1-.4.1-.6.2-1.2.4-2.1 1.3-2.6 2.3-.1.1-.1.3-.1.4-.4-.1-.9-.1-1.3-.1-.4-.8-1.1-1.6-2-2l-.6-.3c-2.6-1.2-5.5-.8-7.3 1-.3.4-.6.8-.7 1.3-1.5-.1-3 .2-4.1.9-.2.1-.4.3-.6.4-1.1.8-1.7 1.8-1.7 2.9-.8.2-1.5.6-2 1.2-.3.1-.7.1-1 .3-.5-.1-.9 0-1.4-.1h-.8c-.3-.3-.8-.6-1.2-.8-.1-.6-.3-1.2-.6-1.8-.5-.9-1.6-1.5-2.8-1.9-.1-.2-.1-.4-.2-.5-.7-2-2.9-3.2-5.5-3.2-.8-.9-2.1-1.6-3.6-1.9-.2-.2-.4-.3-.7-.5l-.6-.3c-.6-.3-1.3-.5-1.9-.6h-.1c-.3-.1-.6-.1-.9-.1-1.4-.1-2.7.3-3.8 1-.6.4-1 .9-1.3 1.4-1.2-.3-2.8-.2-3.9.2-1.3.5-2 1.3-2.6 2.3-1 1.6-1.4 3.5-1.4 5.3h-.3c-1.7-.2-3.2.9-3.5 2.2-.7.2-1.3.6-1.7 1.1-.1.1-.2.6-.3.6h-.5c-.3 0-.6-.3-.9-.2-.3-.2-.7-.6-1.1-.8-.8-.2-1.6-.2-2.4-.1-.5.1-.9.2-1.3.4-.4-.7-1.1-1.4-2.1-1.6-.6-.2-1.2-.3-1.8-.5-1.3-.3-2.5-.1-3.3.6-.9-.3-2-.4-2.9 0-.6.3-1.3.6-1.9.8-.9.4-1.4 1-1.6 1.7-.7-.3-1.5-.4-2.3-.3l-1.5.2c-.6.1-1.2.4-1.6.7-1.4.2-2.4 1.2-2.5 2.3v.2c-.1 0-.2.1-.3.1-1 .3-1.8 1-2.3 1.8-1.5.6-2.6 1.9-2.7 3.3-.1.6.1 1.2.4 1.8l267 15.1z"/><path class="st18" d="M1206.8 528.3c.5-.8.7-1.7.4-2.6-.1-.2-.2-.5-.3-.7-.6-1.7-2.4-2.9-4.6-3.2-.4-.2-.8-.3-1.3-.5-.1-.2-.3-.4-.5-.6.1-.9.1-1.8-.3-2.7-.4-1.1-1.1-1.9-2.3-2.5-.9-.5-2.1-.7-3.2-.7-.3-.3-.5-.5-.9-.7-1-.6-2.1-.7-3.3-.7-.2-.1-.1-.1-.2-.2-.4-.1-.4-.2-.9-.2-.2-.1.3-.2.3-.3 0-.3-1.7-.7-2.2-.9-.4-.2-1.8-.4-2.2-.5-.4-.1-.7-.2-1.1-.2-.8-.7-2-1.3-3.6-1.4-2.7-.2-4.4 1-5 2.5h-.3c-1.7-.1-3 .3-3.9 1-.6-.7-1.6-1.2-2.6-1.5-.8-.2-1.6-.3-2.5-.2-.8-.9-2.2-1.6-3.8-1.7-.9-.1-1.4.1-2.2.3-.2-.1-.3-.3-.5-.4-.2-.2-.5-.4-.7-.5 0-.4-.1-.7-.3-1.1.1-.2.2-.3.3-.5.1-.2.2-.5.3-.7.5-1 .2-2.2-.3-3.1-.6-1-1.8-1.6-3-2-.8-.3-1.8-.3-2.7-.1-.5-.5-1-.9-1.7-1.3-1.1-.7-2.7-.8-4-.6-.3 0-.5.1-.8.1-1.4-.6-3.1-.6-4.6-.1-.6-.5-1.4-1-2.2-1.3l-1.2-.5c-1.5-.4-3-.5-4.3 0-.7-.3-1.5-1.1-2.3-1.2h-.3c-2.6-.2-4.7 1.8-5.3 3.6-1.9-.1-3.6 1.3-4.5 2.5-2.1.1-3.5 1.2-4 2.5-1.1 0-2 .3-2.8.8-2.2 0-4.2 1.4-4.7 3 0-.3-.1-.5-.1-.8-.3-.9-.8-1.6-1.5-2.3-.5-.6-1.4-.9-2.2-1.1.3-.7.3-1.4.1-2.1-.2-1-1.2-1.9-2.3-2.5-1-.5-2.4-.8-3.6-.7-.8-.5-1.7-.8-2.7-1-.4-.4-1-.8-1.6-1.2-1.2-.7-2.7-.8-4-.6h-.2c-1.2-1.2-3.1-1.8-5.2-1.5-1.9.2-3.5 1.5-4 3h-.3c-1.1.3-1.7.4-2.5.9-.8.4-1.3.9-2 1.4-.9.8-.9 2-.7 3-.5.4-1 .8-1.3 1.3-.5-.1-1.1-.2-1.6-.1-1.5-1.1-3.6-1.4-5.4-.9 0-.6-.2-1.3-.6-1.9-.5-.9-1.8-1.7-3-2-1.2-.3-2.8-.3-3.9.1-.1-.8-.5-1.6-1.2-2.2-.5-.5-1.7-.8-1.7-1v-.4c.1-2.2-2.3-4.1-5.1-4.3-2.3-.2-4.4 1-5.2 2.5-.6.1-1.1.3-1.6.5-.3-.1-.7-.2-1-.3-.4-.5-1-1-1.6-1.3-.6-.3-1.3-.5-1.9-.6-.6-.7-1.6-1.2-2.6-1.4-1.4-.4-2.8-.2-4.1.2-.2.1-.4.1-.6.2-1.2.4-2.1 1.3-2.6 2.3-.1.1-.1.3-.1.4-.4-.1-.9-.1-1.3-.1-.4-.8-1.1-1.6-2-2l-.6-.3c-2.6-1.2-5.5-.8-7.3 1-.3.4-.6.8-.7 1.3-1.5-.1-3 .2-4.1.9-.2.1-.4.3-.6.4-1.1.8-1.7 1.8-1.7 2.9-.8.2-1.5.6-2 1.2-.3.1-.7.1-1 .3-.5-.1-.9 0-1.4-.1h-.8c-.3-.3-.8-.6-1.2-.8-.1-.6-.3-1.2-.6-1.8-.5-.9-1.6-1.5-2.8-1.9-.1-.2-.1-.4-.2-.5-.7-2-2.9-3.2-5.5-3.2-.8-.9-2.1-1.6-3.6-1.9-.2-.2-.4-.3-.7-.5l-.6-.3c-.6-.3-1.3-.5-1.9-.6h-.1c-.3-.1-.6-.1-.9-.1-1.4-.1-2.7.3-3.8 1-.6.4-1 .9-1.3 1.4-1.2-.3-2.8-.2-3.9.2-1.3.5-2 1.3-2.6 2.3-1 1.6-1.4 3.5-1.4 5.3h-.3c-1.7-.2-3.2.9-3.5 2.2-.7.2-1.3.6-1.7 1.1-.1.1-.2.6-.3.6h-.5c-.3 0-.6-.3-.9-.2-.3-.2-.7-.6-1.1-.8-.8-.2-1.6-.2-2.4-.1-.5.1-.9.2-1.3.4-.4-.7-1.1-1.4-2.1-1.6-.6-.2-1.2-.3-1.8-.5-1.3-.3-2.5-.1-3.3.6-.9-.3-2-.4-2.9 0-.6.3-1.3.6-1.9.8-.9.4-1.4 1-1.6 1.7-.7-.3-1.5-.4-2.3-.3l-1.5.2c-.6.1-1.2.4-1.6.7-1.4.2-2.4 1.2-2.5 2.3v.2c-.1 0-.2.1-.3.1-1 .3-1.8 1-2.3 1.8-1.5.6-2.6 1.9-2.7 3.3-.1.6.1 1.2.4 1.8l267 15.1z"/><g id="XMLID_1084_" class="st1"><path id="XMLID_1089_" class="st22" d="M845.4 325.2c.1-.3.1-.5.1-.6h-.1c0-.1 0-.2.1-.3h-.2c0-.1.1-.3.1-.3h-.2c0-.2.2-.3.2-.3h-.2c0-.1.2-.3.2-.3h-.2c.1-.1.1-.2.2-.3 0 0-.1-.1-.2-.1 0-.1.2-.2.3-.3 0 0-.1-.1-.2-.1 0-.1.1-.2.2-.3 0 0-.1-.1-.2-.1 0-.1.2-.2.3-.2 0 0-.1-.1-.2-.1.1-.1.2-.1.3-.2 0 0-.1-.1-.2-.1.1-.1.2-.1.3-.1l-.1-.1c0-.1.2-.1.3-.1l-.1-.1c.1-.1.2-.1.3-.2h-.1c.1-.2.3-.1.4-.2l-.1-.1c.1-.1.2-.1.4-.1l-.1-.1c.1-.1.3-.1.5-.1l-.1-.2h.5s-.1-.1-.1-.2c.2-.1.3.1.5.1l-.1-.2c.2 0 .4.2.6.2l-.1-.2c.2 0 .3.1.5.1.3.1.9.1 1.2.1 0 .4.1.9.2 1.2.1.2.1.3.2.5-.1 0-.2-.1-.3-.1 0 .2.2.4.3.5 0 0-.2 0-.2-.1 0 .2.1.3.1.5 0 0-.2 0-.2-.1 0 .2.1.3.1.5l-.2-.1c0 .2.1.3 0 .5 0 0-.1 0-.1-.1v.4s-.1-.1-.2-.1c0 .1 0 .3-.1.4l-.1-.1c-.1.1 0 .2-.1.3l-.1-.1c0 .1-.1.2-.1.3l-.1-.1c-.1.1 0 .2-.1.3-.1 0-.1-.1-.1-.1-.1.1-.1.2-.2.3 0 0-.1-.1-.1-.2-.1.1-.1.2-.2.3l-.1-.1c-.1.1-.1.2-.2.3l-.1-.1c-.1.1-.1.2-.3.3 0 0-.1-.1-.1-.2 0 .1-.1.2-.3.3v-.2c0 .1-.2.2-.3.3v-.2s-.1.2-.3.2c0 0 0-.2-.1-.2 0 0-.1.2-.2.2 0 0-.1-.1-.1-.2-.1.1-.2.1-.3.1v-.2c-.3-.2-.4-.2-.7 0zm2-4.9h-.3.3zm2.6 2.2z"/><g id="XMLID_1085_" class="st6"><path id="XMLID_1086_" class="st23" d="M851 318.1c-.4.9-1.1 1.9-1.8 2.8.3.7.5 1.4.3 2.1v-.1c.1-.8 0-1.3-.3-2-.1.2-.3.4-.4.5.3.5.2 1.5.1 2.1 0 .1 0 .1-.1.2 0-.1.1-.1.1-.2.1-.6.2-1.5-.1-2-.1.2-.3.4-.4.5l-.1.1c.1.6 0 1.4-.2 2v-.1c.1-.6.2-1.3.1-1.9-.2.2-.4.5-.6.7 0 .5 0 1.1-.2 1.6.2-.5.2-1 .2-1.5l-.6.6c0 .4-.1.8-.2 1.1v-.1c.1-.3.1-.6.2-.9-.4.4-.8.7-1.1.9l.1-.1c.3-.2.6-.5 1-.8-.3 0-.6.1-.9.2h-.1c.4-.1.7-.2 1.1-.2l.6-.6c-.5 0-1 0-1.5.1.4-.2 1.1-.2 1.6-.2.2-.2.4-.5.6-.7-.6-.1-1.3.1-1.9.3h-.1c.6-.2 1.4-.4 2-.3.1-.2.2-.3.4-.5l.2-.2c-.6-.2-1.5 0-2.1.2-.1 0-.1.1-.2.1.1-.1.1-.1.2-.1.5-.2 1.5-.4 2.1-.2.1-.2.3-.4.4-.5-.7-.3-1.3-.2-2 0h-.1c.7-.3 1.4-.3 2.1 0 .7-.9 1.3-2 1.7-2.8-.2-.1-.1-.2-.1-.1zm-3.5 4.9z"/></g></g><g id="XMLID_46_" class="st1"><path id="XMLID_51_" class="st24" d="M830.1 337.2c.2-.1.4-.3.4-.4-.1 0-.1 0-.1-.1.1-.1.2-.1.3-.2l-.1-.1c.1-.1.3-.1.3-.1.1 0-.1-.1-.1-.1.1-.1.4-.1.4-.1l-.1-.1c.1-.1.3-.1.4-.1l-.1-.1c.1-.1.2-.1.4-.1 0 0-.1-.1-.1-.2.1-.1.3-.1.4-.1 0 0 0-.1-.1-.2.1-.1.2-.1.3 0 0-.1 0-.1-.1-.2.1-.1.2 0 .4 0 0 0 0-.1-.1-.2h.4s-.1-.1-.1-.2c.1 0 .2.1.3.1v-.2c.1 0 .2 0 .3.1v-.2c.1-.1.2.1.3.1 0 0 0-.1-.1-.1.2-.1.3.1.4.1v-.2c.2 0 .2.1.4.2v-.2c.2 0 .3.1.4.2v-.2c.1.1.2.3.4.3v-.2c.2.1.2.2.3.3 0 0 .1-.2 0-.2.1.1.2.4.3.5 0-.1 0-.2.1-.3.1.1.2.3.3.4.2.3.6.6.9.8-.2.3-.5.8-.6 1.1 0 .2-.1.3-.2.5-.1 0-.1-.2-.1-.2-.1.2-.1.4-.2.6 0 0-.1-.1-.1-.2-.1.1-.1.3-.2.4 0 0-.1-.1-.1-.2-.1.1-.1.3-.3.4l-.1-.2c-.1.1-.2.3-.3.3 0-.1-.1-.1 0-.2-.1.1-.1.2-.3.3v-.2c-.1.1-.1.2-.4.2v-.1c-.1 0-.2.2-.3.2v-.2c-.1.1-.2.1-.3.1v-.2c-.1 0-.1.1-.3.2v-.2c-.1 0-.2.1-.3.1v-.2c-.1.1-.2.1-.4.1v-.2c-.1 0-.2.1-.3.1v-.2c-.1.1-.3.1-.4.1v-.2c-.1.1-.2.1-.4 0l.1-.1c-.1 0-.3.1-.4 0l.1-.1s-.2.1-.4 0l.1-.2h-.3s0-.1.1-.2c-.1 0-.2 0-.3-.1l.1-.1c0 .3-.2.2-.5.1zm4.8-2.4c-.1-.1-.2-.1-.2-.2 0 .1.1.1.2.2zm.5 3.3c-.1.1-.1.2-.1.2s0-.1.1-.2z"/><g id="XMLID_47_" class="st6"><path id="XMLID_48_" class="st23" d="M839 335.5c-.8.4-2.1.8-3.2 1-.2.7-.5 1.4-1.2 1.8.6-.5.9-1 1.1-1.7-.2.1-.4.1-.7.1-.2.6-.8 1.3-1.3 1.6-.1.1-.1.1-.2.1.1 0 .1-.1.2-.1.5-.3 1.1-1 1.3-1.6-.2 0-.5.1-.7.1h-.1c-.3.5-.9 1.1-1.4 1.4h.1c.5-.4 1-.8 1.3-1.4-.3 0-.6.1-.9.1-.3.4-.7.9-1.2 1.1.5-.3.8-.6 1.1-1.1-.3 0-.5.1-.8.1-.3.3-.6.5-.9.7l.1-.1c.3-.2.5-.4.7-.6h-1.4 1.4c-.3-.2-.5-.3-.8-.5-.1 0 0 0-.1-.1.3.1.7.3 1 .5.3 0 .6-.1.8-.1-.4-.4-.8-.7-1.3-.9.5.1 1 .5 1.3.9.3 0 .6-.1.9-.2-.4-.5-1-.7-1.6-1h-.1c.6.2 1.3.6 1.7 1 .2 0 .4-.1.6-.1.1 0 .2 0 .3-.1-.3-.5-1.1-1-1.7-1.2-.1 0-.1 0-.2-.1h.2c.6.2 1.4.7 1.7 1.2.2 0 .4-.1.7-.2-.4-.7-.8-1-1.5-1.3h-.1c.7.2 1.3.7 1.6 1.4 1.1-.3 2.3-.6 3.1-1 .2.2.2.2.2.3 0-.1 0 0 0 0zm-5.9 1.4c.1 0 .1 0 0 0z"/></g></g><g id="XMLID_10_" class="st1"><path id="XMLID_15_" class="st25" d="M946.5 444.7c.1-.3.1-.5.1-.6-.1 0-.1 0-.2.1 0-.1 0-.2.1-.3h-.2c0-.1.1-.3.1-.3h-.2c0-.2.2-.4.2-.4h-.2c0-.1.2-.3.2-.3h-.2c.1-.1.1-.2.2-.3 0 0-.1-.1-.2-.1 0-.2.2-.2.3-.3 0 0-.1-.1-.2-.1 0-.1.1-.2.2-.3-.1 0-.1-.1-.2-.1 0-.1.2-.2.3-.3 0 0-.1-.1-.2-.1.1-.1.2-.1.3-.2 0 0-.1-.1-.2-.1.1-.1.2-.1.3-.2 0 0-.1-.1-.2-.1 0-.1.2-.1.3-.2l-.1-.1c.1-.1.2-.1.3-.2 0 0-.1 0-.1-.1.1-.2.3-.2.4-.2 0 0-.1-.1-.2-.1.1-.1.2-.1.4-.1l-.1-.1c.1-.1.3-.1.5-.1l-.1-.2c.2-.1.4 0 .5 0 0 0-.1-.1-.1-.2.2-.1.3.1.5.1l-.1-.2c.2 0 .4.2.6.2 0-.1-.1-.2-.1-.3.2 0 .4.1.5.1.3.1.9.1 1.3.1 0 .4.1 1 .2 1.3.1.2.2.3.2.5-.1 0-.2-.1-.3-.1l.3.6s-.2 0-.2-.1c0 .2.2.3.1.5 0 0-.2 0-.2-.1 0 .2.1.4.1.5l-.2-.1c0 .2.1.4 0 .5 0-.1-.1 0-.1-.1v.4l-.2-.1c0 .2 0 .3-.1.4l-.1-.1c-.1.1 0 .2-.1.3l-.1-.1c0 .1-.1.2-.1.3 0-.1-.1-.1-.1-.1-.1.1 0 .2-.1.3-.1 0-.1-.1-.1-.2-.1.1-.1.2-.2.3 0 0-.1-.1-.1-.2-.1.1-.1.3-.2.3 0 0-.1-.1-.1-.2v-.1c-.1.1-.1.2-.2.3 0 0-.1-.1-.1-.2-.1.1-.1.3-.3.3 0 0-.1-.1-.1-.2-.1.2-.1.2-.3.3v-.2c0 .1-.2.2-.3.3v-.2s-.2.2-.3.2c0 0 0-.3-.1-.2 0 0-.1.2-.3.2 0 0-.1-.1-.1-.2-.1.1-.2.1-.3.1v-.2c0 .5-.2.5-.4.7zm2.1-5.2h-.3.3zm2.7 2.3v.3c.1 0 .1-.1 0-.3z"/><g id="XMLID_11_" class="st6"><path id="XMLID_12_" class="st23" d="M952.4 437.2c-.4.9-1.1 2-1.9 3 .4.7.5 1.5.3 2.2v-.1c.1-.8.1-1.4-.3-2.1-.1.2-.3.4-.4.6.3.6.2 1.6.1 2.2 0 .1 0 .1-.1.2 0-.1.1-.1.1-.2.1-.6.2-1.6-.1-2.2-.2.2-.3.4-.4.6l-.1.1c.1.6 0 1.5-.2 2.1v-.1c.1-.7.3-1.3.1-2-.2.2-.4.5-.7.8 0 .5 0 1.2-.3 1.7.2-.5.2-1.1.2-1.6l-.6.6c0 .4-.1.8-.3 1.2v-.2c.1-.4.1-.6.2-1-.4.4-.8.7-1.2.9l.1-.1c.4-.3.7-.6 1-.9-.4 0-.6.1-1 .2h-.2l1.2-.3.6-.6c-.6 0-1.1 0-1.6.1.5-.2 1.2-.2 1.7-.2.2-.3.4-.5.7-.8-.7-.1-1.3.1-2 .3h-.1c.6-.2 1.5-.4 2.1-.3.1-.2.3-.3.4-.5.1-.1.1-.2.2-.2-.6-.2-1.6 0-2.2.2-.1 0-.1.1-.2.1.1-.1.1-.1.2-.1.6-.3 1.6-.4 2.2-.2.1-.2.3-.4.4-.6-.8-.3-1.4-.3-2.2 0h-.1c.7-.3 1.5-.3 2.3 0 .7-1 1.4-2.1 1.8-3 .2.1.3.1.3.2 0-.1.1 0 0 0zm-3.7 5.2z"/></g></g><g id="XMLID_19_" class="st1"><path id="XMLID_24_" class="st25" d="M1104.3 426.8c.1-.3.1-.5.1-.6-.1 0-.1 0-.2.1 0-.1 0-.2.1-.3h-.2c0-.1.1-.3.1-.3h-.2c0-.2.2-.4.2-.4h-.2c0-.1.2-.3.2-.3h-.2c.1-.1.1-.2.2-.3 0 0-.1-.1-.2-.1 0-.2.2-.2.3-.3 0 0-.1-.1-.2-.1 0-.1.1-.2.2-.3-.1 0-.1-.1-.2-.1 0-.1.2-.2.3-.3 0 0-.1-.1-.2-.1.1-.1.2-.1.3-.2 0 0-.1-.1-.2-.1.1-.1.2-.1.3-.2 0 0-.1-.1-.2-.1 0-.1.2-.1.3-.2l-.1-.1c.1-.1.2-.1.3-.2 0 0-.1 0-.1-.1.1-.2.3-.2.4-.2 0 0-.1-.1-.2-.1.1-.1.2-.1.4-.1l-.1-.1c.1-.1.3-.1.5-.1l-.1-.2c.2-.1.4 0 .5 0 0 0-.1-.1-.1-.2.2-.1.3.1.5.1l-.1-.2c.2 0 .4.2.6.2 0 0-.1-.2-.1-.3.2 0 .4.1.5.1.3.1.9.1 1.3.1 0 .4.1 1 .2 1.3.1.2.2.3.2.5-.1 0-.2-.1-.3-.1l.3.6s-.2 0-.2-.1c0 .2.2.3.1.5 0 0-.2 0-.2-.1 0 .2.1.4.1.5l-.2-.1c0 .2.1.4 0 .5 0-.1-.1 0-.1-.1v.4l-.2-.1c0 .1 0 .3-.1.4l-.1-.1c-.1.1 0 .2-.1.3l-.1-.1c0 .1-.1.2-.1.3 0-.1-.1-.1-.1-.1-.1.1 0 .2-.1.3-.1 0-.1-.1-.1-.2-.1.1-.1.2-.2.3 0 0-.1-.1-.1-.2-.1.1-.1.3-.2.3 0 0-.1-.1-.1-.2v-.1c-.1.1-.1.2-.2.3 0 0-.1-.1-.1-.2-.1.1-.1.3-.3.3 0 0-.1-.1-.1-.2-.1.2-.1.2-.3.3v-.2c0 .1-.2.2-.3.3v-.2s-.2.2-.3.2c0 0 0-.3-.1-.2 0 0-.1.2-.3.2 0 0-.1-.1-.1-.2-.1.1-.2.1-.3.1v-.2c.1.6-.1.6-.4.7zm2.2-5.2h-.3.3zm2.7 2.4z"/><g id="XMLID_20_" class="st6"><path id="XMLID_21_" class="st23" d="M1110.3 419.4c-.4.9-1.1 2-1.9 3 .4.7.5 1.5.3 2.2v-.1c.1-.8.1-1.4-.3-2.1-.1.2-.3.4-.4.6.3.6.2 1.6.1 2.2 0 .1 0 .1-.1.2 0-.1.1-.2.1-.2.1-.6.2-1.6-.1-2.2-.2.2-.3.4-.4.6l-.1.1c.1.6 0 1.5-.2 2.1v-.1c.1-.7.3-1.3.1-2-.2.2-.4.5-.7.8 0 .5 0 1.2-.3 1.7.2-.5.2-1.1.2-1.6l-.6.6c0 .4-.1.8-.3 1.2v-.2c.1-.4.1-.6.2-1-.4.4-.8.7-1.2.9l.1-.1c.4-.3.7-.6 1-.9-.4 0-.6.1-1 .2h-.2l1.2-.3.6-.6c-.6 0-1.1 0-1.6.1.5-.2 1.2-.2 1.7-.2.2-.3.4-.5.7-.8-.7-.1-1.3.1-2 .3h-.1c.6-.2 1.5-.4 2.1-.3.1-.2.3-.3.4-.5.1-.1.1-.2.2-.2-.6-.2-1.6 0-2.2.2-.1 0-.1.1-.2.1.1-.1.1-.1.2-.1.6-.3 1.6-.4 2.2-.2.1-.2.3-.4.4-.6-.8-.3-1.4-.3-2.2 0h-.1c.7-.3 1.5-.3 2.3 0 .7-1 1.4-2.1 1.8-3 .2.1.2.1.3.2 0-.1 0-.1 0 0zm-3.7 5.1z"/></g></g><g id="XMLID_28_" class="st1"><path id="XMLID_33_" class="st24" d="M1033.4 458c.1-.3.1-.5.1-.6-.1 0-.1 0-.2.1 0-.1 0-.2.1-.3h-.2c0-.1.1-.3.1-.3h-.2c0-.2.2-.4.2-.4h-.2c0-.1.2-.3.2-.3h-.2c.1-.1.1-.2.2-.3 0 0-.1-.1-.2-.1 0-.2.2-.2.3-.3 0 0-.1-.1-.2-.1 0-.1.1-.2.2-.3-.1 0-.1-.1-.2-.1 0-.1.2-.2.3-.3 0 0-.1-.1-.2-.1.1-.1.2-.1.3-.2 0 0-.1-.1-.2-.1.1-.1.2-.1.3-.2 0 0-.1-.1-.2-.1 0-.1.2-.1.3-.2l-.1-.1c.1-.1.2-.1.3-.2 0 0-.1 0-.1-.1.1-.2.3-.2.4-.2 0 0-.1-.1-.2-.1.1-.1.2-.1.4-.1l-.1-.1c.1-.1.3-.1.5-.1l-.1-.2c.2-.1.4 0 .5 0 0 0-.1-.1-.1-.2.2-.1.3.1.5.1l-.1-.2c.2 0 .4.2.6.2 0 0-.1-.2-.1-.3.2 0 .4.1.5.1.3.1.9.1 1.3.1 0 .4.1 1 .2 1.3.1.2.2.3.2.5-.1 0-.2-.1-.3-.1l.3.6s-.2 0-.2-.1c0 .2.2.3.1.5 0 0-.2 0-.2-.1 0 .2.1.4.1.5l-.2-.1c0 .2.1.4 0 .5 0-.1-.1 0-.1-.1v.4l-.2-.1c0 .2 0 .3-.1.4l-.1-.1c-.1.1 0 .2-.1.3l-.1-.1c0 .1-.1.2-.1.3 0-.1-.1-.1-.1-.1-.1.1 0 .2-.1.3-.1 0-.1-.1-.1-.2-.1.1-.1.2-.2.3 0 0-.1-.1-.1-.2-.1.1-.1.3-.2.3 0 0-.1-.1-.1-.2v-.1c-.1.1-.1.2-.2.3 0 0-.1-.1-.1-.2-.1.1-.1.3-.3.3 0 0-.1-.1-.1-.2-.1.2-.1.2-.3.3v-.2c0 .1-.2.2-.3.3v-.2s-.2.2-.3.2c0 0 0-.3-.1-.2 0 0-.1.2-.3.2 0 0-.1-.1-.1-.2-.1.1-.2.1-.3.1v-.2c.1.6-.1.6-.4.7zm2.2-5.2h-.3.3zm2.7 2.4z"/><g id="XMLID_29_" class="st6"><path id="XMLID_30_" class="st23" d="M1039.4 450.5c-.4.9-1.1 2-1.9 3 .4.7.5 1.5.3 2.2v-.1c.1-.8.1-1.4-.3-2.1-.1.2-.3.4-.4.6.3.6.2 1.6.1 2.2 0 .1 0 .1-.1.2 0-.1.1-.2.1-.2.1-.6.2-1.6-.1-2.2-.2.2-.3.4-.4.6l-.1.1c.1.6 0 1.5-.2 2.1v-.1c.1-.7.3-1.3.1-2-.2.2-.4.5-.7.8 0 .5 0 1.2-.3 1.7.2-.5.2-1.1.2-1.6l-.6.6c0 .4-.1.8-.3 1.2v-.2c.1-.4.1-.6.2-1-.4.4-.8.7-1.2.9l.1-.1c.4-.3.7-.6 1-.9-.4 0-.6.1-1 .2h-.2l1.2-.3.6-.6c-.6 0-1.1 0-1.6.1.5-.2 1.2-.2 1.7-.2.2-.3.4-.5.7-.8-.7-.1-1.3.1-2 .3h-.1c.6-.2 1.5-.4 2.1-.3.1-.2.3-.3.4-.5.1-.1.1-.2.2-.2-.6-.2-1.6 0-2.2.2-.1 0-.1.1-.2.1.1-.1.1-.1.2-.1.6-.3 1.6-.4 2.2-.2.1-.2.3-.4.4-.6-.8-.3-1.4-.3-2.2 0h-.1c.7-.3 1.5-.3 2.3 0 .7-1 1.4-2.1 1.8-3 .2.2.2.2.3.2zm-3.8 5.2c.1 0 .1 0 0 0z"/></g></g><g id="XMLID_37_" class="st1"><path id="XMLID_42_" d="M1124.9 397.2c-.3-.1-.5-.1-.6-.1v.2c-.1 0-.2-.1-.3-.1 0 0-.1.1 0 .2-.1 0-.3-.2-.3-.2 0-.1 0 .2-.1.2-.2 0-.3-.2-.3-.2v.2c-.1 0-.3-.2-.3-.3v.2c-.1-.1-.2-.1-.3-.3 0 0-.1.1-.1.2l-.3-.3s-.1.1-.1.2c-.1-.1-.2-.2-.2-.3v.1s-.1.1-.1.2c-.1-.1-.2-.2-.2-.3 0 0-.1.1-.1.2-.1-.1-.1-.2-.2-.3 0 0-.1.1-.1.2-.1-.1-.1-.2-.1-.3l-.1.1c-.1-.1-.1-.2-.1-.3l-.1.1c-.1-.1-.1-.3-.2-.3 0 0 0 .1-.1.1-.2-.2-.1-.3-.2-.4l-.2.1c-.1-.1-.1-.3-.1-.4 0 0-.1 0-.1.1-.1-.1 0-.3-.1-.5l-.2.1c0-.2.1-.4.1-.5l-.2.1c0-.2.1-.3.1-.5 0 0-.2 0-.2.1 0-.2.2-.4.2-.6-.1 0-.2.1-.3.1 0-.2.1-.3.2-.5.1-.3.2-.9.2-1.3.4 0 1 0 1.3-.1.2-.1.4-.1.5-.2 0 .1-.1.2-.1.3.2 0 .4-.2.6-.2l-.1.2c.2 0 .3-.1.5-.1l-.1.2c.2 0 .4-.1.5 0l-.1.2c.2 0 .4 0 .5.1-.1 0-.1.1-.1.1.2 0 .3 0 .4.1l-.1.1c.1 0 .3 0 .4.2l-.1.1c.1.1.2 0 .3.2l-.1.1c.1 0 .2.1.3.1-.1 0-.1.1-.1.1.1.1.2 0 .3.1 0 .1-.1.1-.2.1.1.1.2.1.3.2 0 0-.1.1-.2.1.1.1.3.1.3.2 0 0-.1.1-.2.1.1.1.2.1.3.3 0 0-.1 0-.2.1l.3.3s-.1.1-.2.1l.3.3h-.2c.1 0 .2.2.3.3h-.2s.2.2.2.4h-.2s.1.2.2.3c0 0-.1.1-.2 0 0 .1.1.2.1.3h-.2c0-.1 0 .1.1.3zm-5-2.6zm2.6-2.5h.3-.3z" display="inline" fill-rule="evenodd" clip-rule="evenodd" fill="#ea4006"/><g id="XMLID_38_" class="st6"><path id="XMLID_39_" class="st23" d="M1118 390.6c.9.5 1.9 1.3 2.8 2.1.7-.3 1.5-.4 2.3-.1h-.1c-.8-.2-1.4-.2-2.2.1.2.2.4.3.5.5.6-.2 1.6-.1 2.2.1.1 0 .1.1.2.1-.1 0-.1-.1-.2-.1-.6-.2-1.6-.3-2.2-.1.2.2.4.3.5.5l.1.1c.7-.1 1.5.1 2.1.4h-.1c-.7-.2-1.3-.4-2-.3l.7.7c.5 0 1.2.1 1.7.4-.5-.2-1.1-.3-1.6-.3.2.2.4.4.6.7.4.1.8.2 1.2.4h-.1c-.4-.1-.6-.2-1-.3.4.4.7.9.8 1.3l-.1-.1c-.2-.4-.5-.7-.8-1.1 0 .4 0 .6.1 1v.2c-.1-.4-.1-.8-.1-1.2-.2-.2-.4-.5-.6-.7-.1.6-.1 1.1 0 1.7-.2-.5-.1-1.2 0-1.7l-.7-.7c-.2.7 0 1.3.1 2v.1c-.2-.6-.3-1.5-.1-2.1l-.4-.4-.2-.2c-.3.6-.2 1.6 0 2.2 0 .1.1.2.1.2-.1-.1-.1-.1-.1-.2-.2-.6-.3-1.7 0-2.3l-.5-.5c-.4.7-.4 1.3-.2 2.1v.1c-.2-.8-.1-1.5.2-2.2-.9-.8-1.9-1.6-2.8-2.1-.2-.2-.2-.2-.1-.3-.1 0-.1 0 0 0zm4.8 4.2z"/></g></g><g id="XMLID_1_" class="st1"><path id="XMLID_6_" class="st22" d="M761.9 356.3c-.2-.4-.4-.5-.5-.6 0 .1-.1.2-.1.2-.1-.1-.2-.2-.2-.4l-.2.1c-.1-.1-.2-.4-.1-.4 0-.1-.2.2-.2.1-.2-.2-.2-.5-.2-.5s-.2.1-.2.2c-.1-.1-.1-.4-.1-.5l-.2.2c-.1-.2-.1-.3-.1-.5-.1 0-.2.1-.2.1-.1-.2-.1-.4-.1-.6-.1 0-.2.1-.2.1-.1-.2-.1-.3 0-.5v-.1.1c-.1 0-.2 0-.2.1-.1-.2 0-.3 0-.5-.1 0-.2 0-.3.1-.1-.2 0-.3 0-.5 0 0-.2.1-.3.1 0-.2.1-.2.1-.4-.1 0-.2 0-.2.1 0-.1 0-.3.1-.4-.1 0-.2 0-.2.1-.1-.2.1-.3.1-.5 0 0-.1 0-.2.1-.1-.3.1-.4.2-.6h-.3c0-.2.1-.3.3-.5h-.2c0-.2.2-.4.3-.6l-.3-.1c.1-.2.4-.3.5-.5-.1 0-.2-.1-.3-.1.1-.2.3-.3.5-.4-.1 0-.2-.1-.3-.1.2-.2.5-.3.7-.4-.1 0-.3 0-.4-.1.2-.1.4-.3.6-.4.4-.2.9-.8 1.2-1.2.4.4 1 .8 1.5.9.2.1.5.2.7.3 0 .1-.3.1-.3.2.2.1.6.1.8.2-.1 0-.2.1-.2.1.2.1.4.1.6.3-.1 0-.2.1-.3.1.2.1.5.2.6.4l-.3.1c.2.2.4.3.5.5-.1 0-.2.1-.2.1.2.1.3.2.4.4 0 0-.2.1-.3 0 .1.2.3.2.3.5h-.2c0 .1.2.2.2.4h-.2c.1.1.2.3.2.4h-.2c0 .2.2.2.2.4h-.3c0 .2.2.3.1.5h-.3c.1.2.2.3.1.5h-.2v-.1.1c.1.2.1.3.1.5-.1 0-.2-.1-.2 0 .1.2.1.4.1.6 0 0-.2-.1-.3-.1.1.2.1.3 0 .5-.1-.1-.2-.1-.2-.1 0 .1.1.4 0 .5l-.2-.1s.1.3-.1.5c0 0-.3-.2-.2-.1 0 0 0 .3-.1.4l-.2-.1c0 .1-.1.3-.1.4 0 0-.1-.1-.1-.2-.3.1-.4.3-.5.7zm-3.1-6.8c-.1.1-.2.2-.2.3 0-.1.1-.2.2-.3zm4.7-.5c.1.1.2.1.3.2 0 0-.1-.1-.3-.2z"/><g id="XMLID_2_" class="st6"><path id="XMLID_3_" class="st23" d="M760 343.8c.5 1.2.9 2.9 1.2 4.5 1 .3 1.9.8 2.4 1.7l-.1-.1c-.7-.8-1.3-1.3-2.4-1.6.1.3.1.6.2.9.8.3 1.8 1.2 2.2 1.9.1.1.1.2.1.3-.1-.1-.1-.2-.2-.3-.4-.7-1.4-1.6-2.2-1.9.1.3.1.6.1.9v.2c.7.4 1.5 1.3 1.9 2.1l-.1-.1c-.5-.7-1.1-1.4-1.9-1.9 0 .4.1.9.1 1.3.5.5 1.2 1.1 1.4 1.8-.3-.7-.8-1.2-1.4-1.7 0 .4.1.8.1 1.2.4.4.7.9.9 1.3-.1-.1 0-.1-.1-.2-.3-.4-.5-.7-.8-1.1 0 .7 0 1.5-.1 2v-.1c.1-.6.1-1.2.1-1.8-.3.4-.5.7-.7 1.1-.1.1 0 .1-.1.2.2-.5.5-1 .8-1.4 0-.4 0-.8-.1-1.2-.5.5-1 1-1.3 1.7.2-.7.8-1.3 1.3-1.8 0-.4-.1-.9-.2-1.3-.7.6-1.1 1.4-1.5 2.2v.1c.3-.8.9-1.8 1.6-2.3 0-.3-.1-.5-.1-.8 0-.1 0-.3-.1-.4-.7.4-1.5 1.5-1.8 2.3 0 .1-.1.2-.1.3 0-.1 0-.2.1-.3.3-.8 1.1-2 1.8-2.4-.1-.3-.1-.6-.2-.9-1 .5-1.5 1.1-2 2v.1c.4-1 1.1-1.7 2-2.2-.3-1.5-.7-3.2-1.2-4.5v-.1c.4.2.4.2.4.3zm1.7 8.3c0-.1 0-.1 0 0z"/></g></g><path d="M472 97c1-.6 1.8.2 1.8.2l2 1.5 1.1-.5s-1.5-2.2-2.5-2.5c-1-.3-.6-1.9-4.5-2.6-2.8-.5-3.5-.9-3.7-1l1.4 2.1s-3.6 4.7-3.7 5.3c-.1 0 7.1-1.9 8.1-2.5zm-44.5 2.2c-1.1 0-4-1.1-5.5-.4l2.4 1.8s-2.3 7-1.7 7.8c.6.8 4.4-2.6 4.4-2.6l-.7-1.3 1.6.4 1.5-2.2 1.6.1 1.8 1.1 1.2-.8-2-1.3c.1 0-3.5-2.6-4.6-2.6zm91.2 42.8c-.6-.7-6.6 2.3-6.7 5.1l-3.6.3 1.4 1.3s3.6 2.5 5.2 2.7c1.6.2 2.6.8 2.6.8l1.2.6.3-1.9-3.2-1.2c-.2-.1 3.4-7 2.8-7.7zm74.5-29.6c2 .2 2.4.4 2.5.6l.4-1-3.4-1.4s-.1-1.6.4-1.7c.5-.1 2.2-3.7 3-3.8.8 0-5.9-1.6-8 2.6l-.7.3-3.1-.1s1 .7 1.4 1.1c.4.4 4.4 3.1 7.5 3.4zm-45.5 35.1c.7.8 4.9.6 4.9.6l1.4.4.1-.7-1.4-.4s-1.3-.7-1.4-1.1c-.1-.4.9-3.5.9-3.5l1.7-2.3-.1-.8c-2.5-.2-7.6 4.2-7.6 4.2l-2.8-.4c.8 2.9 3.6 3.3 4.3 4zm-119.6-18.9c3.1-4.3.7-8.1.7-8.1s-1.5 2.2-2.2 2.3c-.6.1-3.5 3.8-3.5 3.8l-3.6-.3c.4 1.4 5.7 4.2 5.7 4.2l3.5.5c.8.1 1.8 1.6 1.8 1.6l.7-.6.5-1.1-3.9-1.6.3-.7zm63.5 18.4l1.7.8.5-1.3-2.4-.8-1.6-1.3c1.1-.5 2-4.6 2-4.6l-1.9-.3s2.4-.5 2.5-1.1c.1-.6-1.1-3.9-1.1-3.9s-1.3 2.7-2 2.6c-.7-.1-3.6 5.5-3.6 5.5l-3.2-.3c1.6 3.9 9.1 4.7 9.1 4.7zm96.8 40.3l2.2.9v-.8s-2.1-1-2.6-1.1c-.5-.1-.4-1.2-.4-1.2l1.6-1.6-.5-.3s2.3-2.6 2.4-2.9c0-.3-1.3-.6-1.9-.4-.6.2-5.7 1.4-5.6 3.2l-3.6-.1c-.2.2 1.6 3.3 8.4 4.3zm-107.2-58.2c.6.8 3.6-2.6 3.6-2.6l1.1-1.4 1.8-1.7 3.7 1.4.3-.7s-6.4-5.4-11.9-4.5l2.3 1.7c-.1 0-1.5 6.9-.9 7.8zm40.6-11.6s1.7 2.5 7.8 3.8l1.8.6.2.7.4-1-3.3-2.3.6-.7s2.2-4.5-.4-6.2c0 0-4.1 3.9-3.9 4.8 0 0-3.6-1-4.2-.4l.1.4.9.3zm58.5 39.6c-.9-1.1-3 2.3-3.7 2.5-.7.2-2.2 2.9-2.1 3.5l-.3.2s-3-1.1-3.3-.7c-.2.4.9 1 .9 1s2.9 2.9 4 3.1c1.2.2 4.6.6 4.6.6l1.7.8.6-.3s-3-2.2-3.4-2.2c-.4 0 2-7.4 1-8.5zm12.5-16l-.4.2s2.3 2 2.6 2.6c.3.6.9 5.5 2.4 6.1 1.5.6 2.7-3.7 2.7-3.7l.2-.2 1 .2 1.6 1.1 1.5-.5c-.1 0-7.5-6.1-11.6-5.8zm48.2 21.7l1.2.8s1.8.6 1.2-.6c-.6-1.2-7-4.5-7.7-5-.7-.5-3.3-.6-3.3-.6l1.6 2c.4.1 0 1 0 1-1.4.5-2.8 7.1-2.8 7.1 1.3.2 2-1.5 4.4-1.8 2.4-.3 4.6-3.1 4.6-3.1l.8.2zm70 9.8s3 .6 4.6.3c1.6-.3 2.4.2 2.4.2l1.8 1.1 1-1.6-3-.8-.8-1s1.2-4.8-2-6.1c0 0-2.8 4.2-2.8 4.4 0 .3-3.2-.3-3.2-.3l.2.8 2 1.7-.2 1.3zm-61.1-47.9c-2-.2-4.7-.6-4.7-.6l-.1.2 2.5 1.7s.5 3.9.8 4.4c.3.5 1.2 2.7 1.2 2.7s3.6-4.1 3.5-4.8c-.1-.7 4.2.5 4.2.5s-5.3-3.9-7.4-4.1zm-51.9 4.9l-1.1-.8-2.1-1.6s2.6-4.3.6-7.3l-1.7 1.2s-3.2 2.9-3 3.9c.2 1-3.9-.1-3.9-.1l-.1.4s1.9 1.4 1.8 1.8c-.1.4-.1 1.1-.1 1.1s5.1.8 5.5.9c.5.1 2.8 1.2 2.8 1.2l1.3-.7zm15.9 57.8c3.7-2.1 1.7-8.1 1.7-8.1-.7-.6-6 6.3-6 6.3l-3.4-.4c2 4 9.4 4.7 9.4 4.7l1.5.9h.8l.2-1.3-2.3-.7-1.9-1.4zm-69.6-57l.8-1.5-1.2-.3-1.2-.6s-4.7-3.7-9-3.4l1.9 2.4s.3 6.2 1.6 6.8c1.3.6 3.8-4.7 3.8-4.7l2.5.5.8.8zm144 25.8s-1.9-1.1-2.8-1.2c-.9-.1-4.3-.3-5.2 0l2.2 2s-3.7 4.6-3.3 7.3c0 0 6.6-1.7 7.6-5.2l1.4-.2 2.1 1.1 1.5.5.1-.9-3-1.9-.6-1.5zm56.3 2c.1-.7 1.7-2.6 1.2-4.3-.6-1.7-1.2-1.8-1.2-1.8l-.8-1.3s-1.8 1.5-1.8 1.9c-.1.4-1.6 2.3-1.5 3.3 0 .9-3.6-.2-3.6-.2l1.8 2s-1.5 3.4-1.3 3.8c0 0 4.7.1 6.9-1.4l2.7 1 1.3.7.3-2c0 .2-4.1-1.1-4-1.7zm-203.9 1.7l2.5 2.2s2.7 6.6 3.3 7c.6.3 2.6-4.6 2.6-4.6l2.1-.1 1.7 1-.1-.8c.2-.1-7-6.3-12.1-4.7z" fill-rule="evenodd" clip-rule="evenodd" fill="#212121"/><g id="XMLID_55_"><path id="XMLID_75_" class="st7" d="M276 147.7c.8-.5 1.9-.8 2.9-1-15.3 2.9-29.8 17-30 33.7-.3 22.3 21.4 38.8 26.7 42.5-41.2-52.8.4-75.2.4-75.2z"/><path id="XMLID_74_" class="st7" d="M278.4 223.1h3.8c-14.2-52.5 1-76.6 1-76.6.3-.2.6-.3.9-.4-1.4 0-2.8.2-4.2.4.5-.1.9-.1.9-.1-28.4 22-4.6 72.3-2.4 76.7z"/><path id="XMLID_73_" class="st7" d="M287.4 223.1h3.8c2.4-4.4 28.3-53.5.6-76.2 0 0 0-.1.3 0-1.5-.4-3-.6-4.5-.8h.1c11.8 23.1.4 74.1-.3 77z"/><path id="XMLID_72_" class="st7" d="M294.2 222.9c5.5-4.1 26.1-20.8 26.8-41.6.5-15-11.4-28.1-24.9-33.1 4.7 3.1 37.4 26.7-1.9 74.7z"/><path id="XMLID_70_" class="st28" d="M278.4 223.1c-2.1-4.4-26-54.7 2.4-76.7 0 0-.4 0-.9.1-.3.1-.6.1-1 .2-1 .2-2.1.5-2.9 1 0 0-41.6 22.4-.5 75.2.1.1.2.1.3.2h2.6z"/><path id="XMLID_68_" class="st28" d="M291.7 147c27.7 22.7 1.8 71.7-.6 76.2h2.5v.1c.2-.1.4-.3.6-.4 39.3-47.9 6.6-71.6 1.9-74.6-1.3-.5-2.7-.9-4.1-1.2l-.3-.1z"/><path id="XMLID_66_" class="st28" d="M282.1 223.1h5.3c.7-3 12.1-53.9.2-76.9h-.1c-.8-.1-1.6-.1-2.5-.1h-1c-.3.1-.6.2-.9.4.1 0-15.2 24.1-1 76.6z"/><path id="XMLID_65_" class="st29" d="M277.4 234.8l-1-9.6h.4l.2 2.7 1.2-2.3.4.2-1.5 2.7.6 6.2z"/><path id="XMLID_64_" class="st29" d="M284.3 234.9l.1-6.2-2.2-2.8.3-.2 1.9 2.4.1-3.5h.3l-.1 3.5 1.8-2.4.2.2-2 2.8-.1 6.2z"/><path id="XMLID_63_" class="st29" d="M291.5 234.8l.7-6-1.7-3 .3-.2 1.5 2.6.3-2.8.3.1-1.1 9.4z"/><path id="XMLID_62_" class="st7" d="M292.8 226.1l-16.3-.2-4.1-5.3 24.3.3z"/><path id="XMLID_59_" d="M276 225.2l-.6-.8 18.4.2-.6.7-17.2-.1zm-2.4-3.1l-.6-.8 23.2.3-.6.7-22-.2z" fill-rule="evenodd" clip-rule="evenodd" fill="#caebf3"/><path id="XMLID_58_" d="M291.9 243.2c1.1-2.4.1-8.4.1-8.4l-14.9-.2s-1.1 6-.1 8.4c.8 1.9 14.1 2.1 14.9.2z" fill-rule="evenodd" clip-rule="evenodd" fill="#726658"/><path id="XMLID_57_" class="st29" d="M292.1 242.4c.6-2.7-.1-7.7-.1-7.7l-14.9-.2s-.9 4.9-.3 7.7c3.3 1 12 1.2 15.3.2z"/><path id="XMLID_56_" transform="matrix(.01316 -.9999 .9999 .01316 46.205 516.348)" class="st29" d="M284.3 226.8h.9v16h-.9z"/></g></g></g></svg>