<?xml version="1.0" encoding="iso-8859-1"?>
<!-- Generator: Adobe Illustrator 19.0.0, SVG Export Plug-In . SVG Version: 6.00 Build 0)  -->
<svg version="1.1" id="Capa_1" xmlns="http://www.w3.org/2000/svg" xmlns:xlink="http://www.w3.org/1999/xlink" x="0px" y="0px"
	 viewBox="0 0 511.999 511.999" style="enable-background:new 0 0 511.999 511.999;" xml:space="preserve">
<g>
	<g>
		<path d="M464.184,133.169c-5.518,0-9.996,4.478-9.996,9.996s4.478,9.996,9.996,9.996c5.528,0,9.996-4.478,9.996-9.996
			S469.712,133.169,464.184,133.169z"/>
	</g>
</g>
<g>
	<g>
		<path d="M47.815,133.169c-5.528,0-9.996,4.478-9.996,9.996s4.468,9.996,9.996,9.996c5.518,0,9.996-4.478,9.996-9.996
			S53.333,133.169,47.815,133.169z"/>
	</g>
</g>
<g>
	<g>
		<path id="animate_this" d="M511.418,349.404c-4.735-44.496-44.082-54.58-45.757-54.989c-8.941-2.178-15.835,7.92-10.549,15.454
			c8.402,11.974,4.734,26.135,4.717,26.204c-0.074,0.258-0.137,0.52-0.189,0.783c-3.463,17.317-50.39,24.124-81.612-8.941
			c-28.158-29.83-56.167-32.946-57.313-33.061c-30.39-3.143-53.419,11.153-64.804,20.355c-11.383-9.16-34.437-23.474-64.595-20.359
			c-1.179,0.118-29.185,3.234-57.353,33.064c-20.719,21.945-48.924,26.548-66.365,21.539c-4.058-1.166-13.665-4.726-15.239-12.597
			c-1.921-9.675-1.167-18.879,4.525-26.983c2.393-3.407,2.423-7.94,0.076-11.38s-6.585-5.061-10.624-4.078
			c-1.675,0.408-41.009,10.493-45.756,54.987c-6.084,42.186,35.941,94.99,115.628,102.709
			c53.888,5.217,111.263-13.056,139.792-59.676c28.441,46.412,85.488,64.955,139.817,59.661
			C475.382,444.339,517.518,391.584,511.418,349.404z M393.876,432.198c-45.873,4.47-107.079-10.1-128.558-65.895
			c-1.484-3.859-5.193-6.405-9.329-6.405c-0.002,0-0.005,0-0.007,0c-4.139,0.003-7.846,2.555-9.328,6.418
			c-21.374,55.756-82.585,70.343-128.519,65.896c-43.296-4.193-90.237-27.064-97.734-68.715
			c-1.372-13.352,1.784-27.147,11.007-37.263c-0.797,21.72,9.104,36.242,30.669,42.436c23.847,6.85,59.819,1.148,86.421-27.03
			c22.722-24.062,43.997-26.8,44.841-26.899c30.201-3.117,51.365,16.735,55.299,20.747c4.345,4.428,10.712,3.943,14.432,0.146
			l0.116-0.119c3.908-4.023,24.947-23.926,55.421-20.779c0.895,0.105,22.168,2.842,44.881,26.905
			c41.323,43.76,108.132,35.396,115.69-0.557c0.424-1.669,1.681-7.343,1.403-14.856c5.239,5.74,9.779,13.933,10.973,25.471
			c0.021,0.202,0.038,0.341,0.071,0.541C496.078,381.483,463.544,425.406,393.876,432.198z"/>
	</g>
</g>
<g>
	<g>
		<path d="M510.586,130.818c-9.226-52.489-53.248-71.792-106.54-71.792c-20.622,0-39.045,1.427-54.822,4.243
			c-0.387-0.045-0.778-0.075-1.177-0.075H163.974c-0.576,0-1.137,0.059-1.685,0.153c-16.31-2.83-35.785-4.321-56.604-4.321
			c-65.783,0-97.101,31.005-104.272,71.795c-9.324,53.127,28.935,142.298,107.659,142.298c35.841,0,77.126-19.964,100.398-48.545
			c21.264-26.101,32.709-57.144,31.179-84.024c3.719-3.813,8.914-7.38,15.351-7.38s11.633,3.567,15.351,7.38
			c-1.53,26.879,9.914,57.923,31.177,84.021c24.011,29.492,62.529,48.548,98.13,48.548
			C485.588,273.119,519.258,180.228,510.586,130.818z M193.966,211.949c-23.035,28.293-60.154,41.178-84.895,41.178
			c-65.9-0.001-95.091-78.249-87.968-118.846c7.289-41.465,42.642-55.261,84.58-55.261c23.135,0,62.049,2.24,82.64,12.685
			c17.28,8.757,27.228,22.003,31.305,41.674C225.022,159.594,211.25,190.734,193.966,211.949z M255.999,113.176
			c-6.857,0-13.531,1.913-19.668,5.524c-4.833-14.481-13.006-26.461-24.438-35.613h88.211
			c-11.438,9.154-19.612,21.133-24.439,35.611C269.527,115.089,262.854,113.176,255.999,113.176z M400.656,253.127
			c-29.368,0-62.573-16.548-82.627-41.181c-17.283-21.211-31.041-52.423-25.661-78.561c6.368-30.801,27.035-44.007,57.66-49.929
			c14.965-2.902,33.643-4.435,54.016-4.435c43.099-0.002,79.421,12.993,86.85,55.257
			C497.574,172.345,471.699,253.127,400.656,253.127z"/>
	</g>
</g>
<g>
	<g>
		<path d="M93.408,209.629C83.021,205,73.335,193.491,66.834,178.053c-2.142-5.089-8.004-7.477-13.092-5.334
			c-5.088,2.142-7.476,8.004-5.333,13.092c8.574,20.364,21.666,35.307,36.864,42.079c5.024,2.239,10.943-0.002,13.199-5.062
			C100.717,217.785,98.45,211.875,93.408,209.629z"/>
	</g>
</g>
<g>
	<g>
		<path d="M458.252,172.717c-5.085-2.139-10.95,0.25-13.09,5.34c-6.49,15.436-16.165,26.944-26.544,31.572
			c-5.042,2.248-7.308,8.159-5.059,13.201c1.659,3.72,5.31,5.928,9.137,5.928c1.359,0,2.742-0.279,4.065-0.869
			c15.19-6.773,28.271-21.718,36.834-42.083C465.734,180.717,463.341,174.856,458.252,172.717z"/>
	</g>
</g>
<g>
</g>
<g>
</g>
<g>
</g>
<g>
</g>
<g>
</g>
<g>
</g>
<g>
</g>
<g>
</g>
<g>
</g>
<g>
</g>
<g>
</g>
<g>
</g>
<g>
</g>
<g>
</g>
<g>
</g>
</svg>
